<svg width="24" height="24" viewBox="0 0 24 24" fill="none" xmlns="http://www.w3.org/2000/svg">
<g clip-path="url(#clip0_672_277097)">
<path d="M21.7595 17.5484H20.4223V15.5755L23.0029 14.1678V7.8811L23.9881 0H21.2605L20.7548 1.01152L20.1816 0H12.8682L13.8534 7.8811V14.1678L16.434 15.5755V17.5484H12.3519V14.1466C12.3519 13.6118 12.1118 13.1323 11.734 12.8094C12.5189 12.397 13.0557 11.574 13.0557 10.6276C13.0557 9.41194 11.706 6.28739 10.217 6.28739H9.86509V6.6393C9.86509 7.60685 9.37585 8.28213 8.9027 8.93518C8.50486 9.48434 8.12902 10.003 8.12902 10.6276C8.12902 11.574 8.66584 12.397 9.45073 12.8094C9.07297 13.1323 8.83283 13.6119 8.83283 14.1466V17.5484H6.76832V11.8499L8.67898 5.1626L8.57702 5.02358C8.53057 4.96023 7.4117 3.47214 5.00879 3.47214C2.60588 3.47214 1.487 4.96023 1.44055 5.02353L1.33859 5.16256L3.24926 11.8499V17.5484H2.24046C1.01155 17.5484 0.0117188 18.5482 0.0117188 19.7771V21.1848H0.715531V19.7771C0.715531 18.9363 1.39964 18.2522 2.24046 18.2522H2.26392V24H2.96773V21.7713H5.90028V21.0674H2.96773V18.2522H21.0322V21.0674H18.0997V21.7713H21.0322V24H21.7361V18.2522H21.7595C22.6003 18.2522 23.2844 18.9363 23.2844 19.7771V21.1848H23.9883V19.7771C23.9883 18.5482 22.9884 17.5484 21.7595 17.5484ZM6.0645 17.5484H3.95307V14.2266C4.05629 14.0238 4.43293 13.3724 5.00879 13.3724C5.58465 13.3724 5.96128 14.0238 6.0645 14.2266V17.5484ZM6.0645 13.0882C5.79504 12.8547 5.44402 12.6686 5.00879 12.6686C4.57355 12.6686 4.22253 12.8548 3.95307 13.0882V11.895C4.06779 11.7119 4.43283 11.2141 5.00879 11.2141C5.57845 11.2141 5.94861 11.7142 6.0645 11.8963V13.0882ZM5.00879 10.5103C4.45545 10.5103 4.03673 10.7715 3.75065 11.0429L2.11457 5.31655C2.41308 4.99862 3.34643 4.17595 5.00879 4.17595C6.67893 4.17595 7.60538 4.99585 7.90324 5.31571L6.26692 11.0429C5.98084 10.7715 5.56212 10.5103 5.00879 10.5103ZM8.83283 10.6276C8.83283 10.2312 9.12933 9.82194 9.47265 9.34803C9.89592 8.76387 10.4089 8.05588 10.5382 7.09912C10.8628 7.29628 11.2461 7.75174 11.5905 8.36781C12.0317 9.15693 12.3519 10.1073 12.3519 10.6275C12.3519 11.5977 11.5626 12.387 10.5924 12.387C9.62214 12.387 8.83283 11.5978 8.83283 10.6276ZM11.6481 17.5484H9.53665V15.6501C9.65315 15.467 10.023 14.9677 10.5924 14.9677C11.1617 14.9677 11.5316 15.467 11.6481 15.6501V17.5484ZM11.6481 14.626C11.3785 14.4253 11.027 14.2639 10.5924 14.2639C10.1577 14.2639 9.80621 14.4253 9.53665 14.626V14.1466C9.53665 13.5645 10.0102 13.0909 10.5924 13.0909C11.1745 13.0909 11.6481 13.5645 11.6481 14.1466V14.626ZM22.2991 9.38416H14.5572V8.21114H22.2991V9.38416ZM13.6655 0.703812H15.0264V4.10557H15.7302V0.703812H16.6686V2.22874H17.3724V0.703812H18.3108V3.16716H19.0147V0.703812H19.7714L20.7936 2.50754L21.6955 0.703812H23.1908L22.3404 7.50733H14.5159L13.6655 0.703812ZM19.7185 17.5484H17.1378V15.1577L14.5572 13.7501V10.088H22.2991V13.7501L19.7185 15.1577V17.5484Z" fill="black"/>
<path d="M14.5806 19.8944H9.41934C8.57851 19.8944 7.89441 20.5785 7.89441 21.4194C7.89441 22.2602 8.57851 22.9443 9.41934 22.9443H14.5806C15.4214 22.9443 16.1056 22.2602 16.1056 21.4194C16.1056 20.5785 15.4214 19.8944 14.5806 19.8944ZM14.5806 22.2405H9.41934C8.9666 22.2405 8.59822 21.8721 8.59822 21.4194C8.59822 20.9666 8.9666 20.5982 9.41934 20.5982H14.5806C15.0334 20.5982 15.4017 20.9666 15.4017 21.4194C15.4017 21.8721 15.0334 22.2405 14.5806 22.2405Z" fill="black"/>
</g>
<defs>
<clipPath id="clip0_672_277097">
<rect width="24" height="24" fill="white"/>
</clipPath>
</defs>
</svg>
