<svg width="24" height="24" viewBox="0 0 24 24" fill="none" xmlns="http://www.w3.org/2000/svg">
<g clip-path="url(#clip0_672_277111)">
<path d="M18.9511 19.8904H5.04891M5.04891 23.6477H18.9511M5.04891 23.6477V17.0724H0.352234M5.04891 23.6477H0.352234V17.0724M0.352234 3.92172H23.6477V1.76125C23.6477 1.76125 18.0274 0.352249 12 0.352249C5.9726 0.352249 0.352234 1.76125 0.352234 1.76125V3.92172ZM0.352234 3.92172H3.17024M0.352234 3.92172V17.0724M3.17024 3.92172V17.0724H0.352234M3.17024 3.92172L0.352234 6.73972H3.17024L0.352234 9.32289H3.17024L0.352234 11.9061H3.17024L0.352234 14.4892H3.17024L0.352234 17.0724M2.34832 22.0978H3.05282" stroke="black" stroke-width="0.5" stroke-miterlimit="10"/>
<path d="M2.70057 20.501C3.21935 20.501 3.6399 20.0804 3.6399 19.5616C3.6399 19.0429 3.21935 18.6223 2.70057 18.6223C2.18178 18.6223 1.76123 19.0429 1.76123 19.5616C1.76123 20.0804 2.18178 20.501 2.70057 20.501Z" stroke="black" stroke-width="0.5" stroke-miterlimit="10"/>
<path d="M23.6478 17.0724H20.8298V3.92172H23.6478V17.0724Z" stroke="black" stroke-width="0.5" stroke-miterlimit="10"/>
<path d="M23.6478 23.6478H18.9511V17.0724H23.6478V23.6478Z" stroke="black" stroke-width="0.5" stroke-miterlimit="10"/>
<path d="M21.6517 22.0978H20.9472M20.8298 3.92172L23.6478 6.73973H20.8298L23.6478 9.3229H20.8298L23.6478 11.9061H20.8298L23.6478 14.4892H20.8298L23.6478 17.0724" stroke="black" stroke-width="0.5" stroke-miterlimit="10"/>
<path d="M21.2994 20.501C21.8182 20.501 22.2388 20.0804 22.2388 19.5616C22.2388 19.0429 21.8182 18.6223 21.2994 18.6223C20.7807 18.6223 20.3601 19.0429 20.3601 19.5616C20.3601 20.0804 20.7807 20.501 21.2994 20.501Z" stroke="black" stroke-width="0.5" stroke-miterlimit="10"/>
<path d="M5.86072 5.33072V3.92172M18.0118 5.33072V3.92172M5.55558 7.62876C5.00532 7.0785 5.00532 6.18636 5.55558 5.63615C6.10584 5.08593 6.99797 5.08589 7.54819 5.63615L7.88029 5.96825L5.88768 7.96086L5.55558 7.62876ZM18.3169 7.62876C18.8672 7.0785 18.8672 6.18636 18.3169 5.63615C17.7666 5.08593 16.8745 5.08589 16.3243 5.63615L15.9922 5.96825L17.9848 7.96086L18.3169 7.62876Z" stroke="black" stroke-width="0.5" stroke-miterlimit="10"/>
</g>
<defs>
<clipPath id="clip0_672_277111">
<rect width="24" height="24" fill="white"/>
</clipPath>
</defs>
</svg>
