<svg width="24" height="24" viewBox="0 0 24 24" fill="none" xmlns="http://www.w3.org/2000/svg">
<path d="M14.8592 14.1444H16.3364M19.1956 17.0036H20.6252M14.8592 19.8628H16.3364M21.5782 4.13723H18.2425M6.28161 19.8628H3.42242V15.574C3.42242 14.7844 4.06246 14.1444 4.85202 14.1444C5.64158 14.1444 6.28161 14.7844 6.28161 15.574V19.8628ZM12 19.8628H9.1408V15.574C9.1408 14.7844 9.78083 14.1444 10.5704 14.1444C11.36 14.1444 12 14.7844 12 15.574V19.8628Z" stroke="black" stroke-width="0.5" stroke-miterlimit="10" stroke-linecap="round" stroke-linejoin="round"/>
<path d="M16.3364 9.85561V11.2852H0.515625V22.7219H23.4844V9.85561H16.3364Z" stroke="black" stroke-width="0.5" stroke-miterlimit="10" stroke-linecap="round" stroke-linejoin="round"/>
<path d="M7.71121 11.2852V9.85561C7.71121 9.06609 7.07118 8.42601 6.28161 8.42601C5.49205 8.42601 4.85202 9.06604 4.85202 9.85561V14.1444M13.4296 11.2852V9.85561C13.4296 9.06609 12.7896 8.42601 12 8.42601C11.2104 8.42601 10.5704 9.06604 10.5704 9.85561V14.1444M19.1956 14.1444H20.6252M14.8592 17.0036H16.3364M19.1956 19.8628H20.6252M21.34 1.27809L22.0548 9.85561M17.766 9.85561L18.4808 1.27809M22.7696 1.27809H17.0512" stroke="black" stroke-width="0.5" stroke-miterlimit="10" stroke-linecap="round" stroke-linejoin="round"/>
</svg>
