<svg width="24" height="24" viewBox="0 0 24 24" fill="none" xmlns="http://www.w3.org/2000/svg">
<g clip-path="url(#clip0_832_277046)">
<path d="M6 6.75C6.20711 6.75 6.375 6.58211 6.375 6.375C6.375 6.16789 6.20711 6 6 6C5.79289 6 5.625 6.16789 5.625 6.375C5.625 6.58211 5.79289 6.75 6 6.75Z" fill="black"/>
<path d="M9 6.75C9.20711 6.75 9.375 6.58211 9.375 6.375C9.375 6.16789 9.20711 6 9 6C8.79289 6 8.625 6.16789 8.625 6.375C8.625 6.58211 8.79289 6.75 9 6.75Z" fill="black"/>
<path d="M8.25 7.125V6H7.5V7.125C7.49988 7.22442 7.46033 7.31973 7.39003 7.39003C7.31973 7.46033 7.22442 7.49988 7.125 7.5H6.75V8.25H7.125C7.42327 8.24967 7.70922 8.13103 7.92013 7.92013C8.13103 7.70922 8.24967 7.42327 8.25 7.125ZM5.66461 9.16772C5.80757 9.45606 6.02846 9.69858 6.30224 9.86778C6.57601 10.037 6.89171 10.1261 7.21355 10.125H8.25V9.375H7.21355C7.03109 9.37562 6.8521 9.3251 6.69689 9.22918C6.54167 9.13325 6.41644 8.99576 6.33539 8.83228L5.66461 9.16772Z" fill="black"/>
<path d="M14.25 15.375V14.25C14.2493 13.6535 14.0121 13.0816 13.5903 12.6597C13.1684 12.2379 12.5965 12.0007 12 12H10.875V10.8361C11.2083 10.7661 11.5152 10.6035 11.7605 10.3672C12.0057 10.1308 12.1794 9.83009 12.2617 9.49955L12.3003 9.34477C12.6388 9.2751 12.9429 9.09089 13.1615 8.82317C13.38 8.55545 13.4995 8.22058 13.5 7.875V4.5C13.4996 4.10231 13.3414 3.72104 13.0602 3.43983C12.779 3.15863 12.3977 3.00045 12 3C11.8012 2.99978 11.6105 2.92069 11.4699 2.78008C11.3293 2.63948 11.2502 2.44884 11.25 2.25C11.2496 1.85231 11.0914 1.47104 10.8102 1.18983C10.529 0.908626 10.1477 0.750448 9.75 0.750001H8.71355C8.25966 0.748551 7.82355 0.926305 7.5 1.24463C7.17645 0.926305 6.74034 0.748551 6.28645 0.750001H5.25C4.85231 0.750448 4.47104 0.908626 4.18983 1.18983C3.90863 1.47104 3.75045 1.85231 3.75 2.25C3.74978 2.44884 3.67069 2.63948 3.53008 2.78008C3.38948 2.92069 3.19884 2.99978 3 3C2.60231 3.00045 2.22104 3.15863 1.93983 3.43983C1.65863 3.72104 1.50045 4.10231 1.5 4.5V7.875C1.50045 8.22058 1.62001 8.55545 1.83853 8.82317C2.05706 9.09089 2.36118 9.2751 2.69967 9.34477L2.73834 9.49959C2.8206 9.83013 2.99431 10.1308 3.23955 10.3672C3.4848 10.6035 3.79166 10.7661 4.125 10.8361V12H3C2.40347 12.0007 1.83156 12.2379 1.40975 12.6597C0.987938 13.0816 0.75067 13.6535 0.75 14.25V15.375C0.749996 15.4616 0.779958 15.5455 0.834797 15.6125L3.7087 19.125H2.625C2.56327 19.125 2.50249 19.1403 2.44806 19.1694C2.39363 19.1985 2.34724 19.2406 2.313 19.292L1.563 20.417C1.52193 20.4786 1.50001 20.551 1.5 20.625V22.875C1.5 22.9745 1.53951 23.0698 1.60984 23.1402C1.68016 23.2105 1.77554 23.25 1.875 23.25H13.125C13.2245 23.25 13.3198 23.2105 13.3902 23.1402C13.4605 23.0698 13.5 22.9745 13.5 22.875V20.625C13.5 20.551 13.4781 20.4786 13.437 20.417L12.687 19.292C12.6528 19.2406 12.6064 19.1985 12.5519 19.1694C12.4975 19.1402 12.4367 19.125 12.375 19.125H11.2913L14.1652 15.6125C14.2201 15.5455 14.25 15.4616 14.25 15.375ZM4.875 5.24152C5.07596 5.21841 5.26688 5.14123 5.42744 5.01819C5.588 4.89516 5.71219 4.73088 5.78677 4.54284L6.06741 3.84122L6.36647 4.33969C6.53375 4.6167 6.76955 4.84597 7.05116 5.00541C7.33276 5.16485 7.65068 5.24908 7.97428 5.25H10.125V8.625C10.125 9.32119 9.84844 9.98887 9.35616 10.4812C8.86387 10.9734 8.19619 11.25 7.5 11.25C6.80381 11.25 6.13613 10.9734 5.64384 10.4812C5.15156 9.98887 4.875 9.32119 4.875 8.625V5.24152ZM3.46594 9.31767L3.36384 8.90906C3.34355 8.82792 3.29672 8.7559 3.2308 8.70443C3.16487 8.65296 3.08364 8.625 3 8.625C2.80116 8.62478 2.61052 8.54569 2.46992 8.40508C2.32931 8.26448 2.25022 8.07384 2.25 7.875V4.5C2.25022 4.30116 2.32931 4.11052 2.46992 3.96992C2.61052 3.82931 2.80116 3.75022 3 3.75C3.39769 3.74955 3.77896 3.59138 4.06017 3.31017C4.34137 3.02896 4.49955 2.64769 4.5 2.25C4.50022 2.05116 4.57931 1.86052 4.71992 1.71992C4.86052 1.57931 5.05116 1.50022 5.25 1.5H6.28645C6.46892 1.49938 6.6479 1.5499 6.80312 1.64582C6.95833 1.74175 7.08356 1.87924 7.16461 2.04272C7.19576 2.105 7.24363 2.15738 7.30287 2.19398C7.36211 2.23059 7.43037 2.24998 7.5 2.24998C7.56963 2.24998 7.63789 2.23059 7.69713 2.19398C7.75637 2.15738 7.80424 2.105 7.83539 2.04272C7.91644 1.87924 8.04168 1.74174 8.1969 1.64581C8.35213 1.54988 8.53112 1.49937 8.71359 1.5H9.75C9.94884 1.50022 10.1395 1.57931 10.2801 1.71992C10.4207 1.86052 10.4998 2.05116 10.5 2.25C10.5004 2.64769 10.6586 3.02896 10.9398 3.31017C11.221 3.59138 11.6023 3.74955 12 3.75C12.1988 3.75022 12.3895 3.82931 12.5301 3.96992C12.6707 4.11052 12.7498 4.30116 12.75 4.5V7.875C12.7498 8.07384 12.6707 8.26448 12.5301 8.40508C12.3895 8.54569 12.1988 8.62478 12 8.625C11.9164 8.625 11.8351 8.65296 11.7692 8.70443C11.7033 8.7559 11.6564 8.82792 11.6362 8.90906L11.5341 9.31763C11.4924 9.48498 11.4106 9.63967 11.2957 9.76838C11.1809 9.89708 11.0365 9.99594 10.875 10.0564V5.25H11.625V4.5H7.97428C7.78012 4.49946 7.58938 4.44892 7.42042 4.35325C7.25147 4.25759 7.11 4.12003 7.00964 3.95381L6.32156 2.80706C6.28563 2.74717 6.23368 2.6985 6.17157 2.66654C6.10947 2.63459 6.03967 2.62061 5.97004 2.62619C5.90042 2.63177 5.83374 2.65668 5.77751 2.69812C5.72128 2.73956 5.67775 2.79588 5.65181 2.86074L5.09044 4.26422C5.06281 4.33397 5.01481 4.39377 4.95269 4.43583C4.89057 4.47789 4.81722 4.50025 4.7422 4.5H3.375V5.25H4.125V10.0564C3.96348 9.99594 3.81909 9.8971 3.70428 9.7684C3.58946 9.6397 3.50767 9.48502 3.46594 9.31767ZM12.75 20.7385V22.5H2.25V20.7385L2.82567 19.875H12.1744L12.75 20.7385ZM13.5 15.2412L10.3223 19.125H4.67766L1.5 15.2412V14.25C1.50045 13.8523 1.65863 13.471 1.93983 13.1898C2.22104 12.9086 2.60231 12.7504 3 12.75H4.5C4.59946 12.75 4.69484 12.7105 4.76516 12.6402C4.83549 12.5698 4.875 12.4745 4.875 12.375V10.743C5.19078 11.1354 5.59051 11.452 6.04479 11.6696C6.49906 11.8871 6.99633 12 7.5 12C8.00367 12 8.50094 11.8871 8.95521 11.6696C9.40949 11.452 9.80922 11.1354 10.125 10.743V12.375C10.125 12.4745 10.1645 12.5698 10.2348 12.6402C10.3052 12.7105 10.4005 12.75 10.5 12.75H12C12.3977 12.7504 12.779 12.9086 13.0602 13.1898C13.3414 13.471 13.4996 13.8523 13.5 14.25V15.2412Z" fill="black"/>
<path d="M8.928 13.9197C9.13384 13.4418 9.27067 12.937 9.33441 12.4205L8.58998 12.3295C8.47444 13.2603 8.08706 14.1364 7.47628 14.8483C7.26963 14.5482 6.99317 14.3029 6.67068 14.1333C6.34819 13.9638 5.98934 13.8751 5.625 13.875H4.125V14.625H5.625C6.02269 14.6254 6.40396 14.7836 6.68517 15.0648C6.96637 15.346 7.12455 15.7273 7.125 16.125V16.875H7.875V16.125C7.87545 15.7273 8.03363 15.346 8.31483 15.0648C8.59604 14.7836 8.97731 14.6254 9.375 14.625H10.875V13.875H9.375C9.22488 13.875 9.07514 13.89 8.928 13.9197ZM22.875 0.75H12V1.5H21.9697L20.8447 2.625H13.5V3.375H20.625V10.8963L18.593 9.44484C18.5363 9.40437 18.4695 9.38047 18.4 9.37584C18.3305 9.3712 18.2611 9.38601 18.1995 9.41859L15.4918 10.8521L13.7491 9.30305L13.2509 9.86362L14.7843 11.2267L13.6995 11.8009L14.0505 12.4638L18.3456 10.1899L20.625 11.818V14.625H15V15.375H20.8447L21.9697 16.5H14.25V17.25H22.875C22.9745 17.25 23.0698 17.2105 23.1402 17.1402C23.2105 17.0698 23.25 16.9745 23.25 16.875V1.125C23.25 1.02554 23.2105 0.930161 23.1402 0.859835C23.0698 0.789509 22.9745 0.75 22.875 0.75ZM21.375 3.15534L22.5 2.03034V15.9697L21.375 14.8447V3.15534Z" fill="black"/>
<path d="M18 7.125C18 6.75416 17.89 6.39165 17.684 6.08331C17.478 5.77496 17.1851 5.53464 16.8425 5.39273C16.4999 5.25081 16.1229 5.21368 15.7592 5.28603C15.3955 5.35838 15.0614 5.53695 14.7992 5.79918C14.537 6.0614 14.3584 6.39549 14.286 6.75921C14.2137 7.12292 14.2508 7.49992 14.3927 7.84253C14.5346 8.18514 14.775 8.47798 15.0833 8.68401C15.3916 8.89003 15.7542 9 16.125 9C16.6221 8.99943 17.0987 8.8017 17.4502 8.4502C17.8017 8.09869 17.9994 7.62211 18 7.125ZM15 7.125C15 6.9025 15.066 6.68499 15.1896 6.49998C15.3132 6.31498 15.4889 6.17078 15.6945 6.08564C15.9 6.00049 16.1262 5.97821 16.3445 6.02162C16.5627 6.06503 16.7632 6.17217 16.9205 6.32951C17.0778 6.48684 17.185 6.6873 17.2284 6.90552C17.2718 7.12375 17.2495 7.34995 17.1644 7.55552C17.0792 7.76109 16.935 7.93679 16.75 8.0604C16.565 8.18402 16.3475 8.25 16.125 8.25C15.8267 8.24967 15.5408 8.13103 15.3299 7.92013C15.119 7.70922 15.0003 7.42327 15 7.125Z" fill="black"/>
</g>
<defs>
<clipPath id="clip0_832_277046">
<rect width="24" height="24" fill="white"/>
</clipPath>
</defs>
</svg>
