<svg width="24" height="24" viewBox="0 0 24 24" fill="none" xmlns="http://www.w3.org/2000/svg">
<path d="M17.001 7.89075L18.7219 6.17063L19.2521 6.70088L17.5313 8.421L17.001 7.89075ZM18.6908 4.84688L18.1605 4.31663L15.1478 7.32938L15.678 7.85963L18.6908 4.84688ZM4.53075 20.319V18.3863C4.33326 17.9624 4.23087 17.5005 4.23075 17.0329C4.2307 16.481 4.37143 15.9382 4.63962 15.4559C4.90782 14.9735 5.29463 14.5676 5.76346 14.2764C6.23228 13.9852 6.76764 13.8184 7.31889 13.7918C7.87014 13.7652 8.41907 13.8797 8.91375 14.1244H15.0848C15.5794 13.8797 16.1284 13.7652 16.6796 13.7918C17.2309 13.8184 17.7662 13.9852 18.2351 14.2764C18.7039 14.5676 19.0907 14.9735 19.3589 15.4559C19.6271 15.9382 19.7678 16.481 19.7678 17.0329C19.7676 17.5005 19.6652 17.9624 19.4678 18.3863V20.319C19.4679 20.987 19.2168 21.6307 18.7641 22.122C18.3115 22.6133 17.6906 22.9163 17.0248 22.9708C16.359 23.0253 15.6971 22.8272 15.1706 22.416C14.6441 22.0048 14.2916 21.4106 14.1833 20.7514L14.0494 19.941H9.94913L9.81525 20.7518C9.70685 21.411 9.35436 22.0052 8.82785 22.4164C8.30134 22.8277 7.63937 23.0257 6.97354 22.9712C6.3077 22.9166 5.68677 22.6135 5.23417 22.1222C4.78158 21.6308 4.53046 20.9871 4.53075 20.319ZM10.2705 14.9051V14.9359C10.2705 15.3946 10.4527 15.8345 10.7771 16.1588C11.1014 16.4832 11.5413 16.6654 12 16.6654C12.4587 16.6654 12.8986 16.4832 13.2229 16.1588C13.5473 15.8345 13.7295 15.3946 13.7295 14.9359V14.9051H10.2705ZM4.983 17.0329C4.98284 17.4155 5.07182 17.7928 5.24288 18.135C5.26795 18.1868 5.28078 18.2436 5.28038 18.3011V20.319C5.27985 20.7989 5.46 21.2614 5.785 21.6145C6.11 21.9676 6.55601 22.1854 7.03431 22.2246C7.51261 22.2638 7.98812 22.1215 8.36626 21.826C8.74439 21.5305 8.99742 21.1035 9.075 20.6299L9.2625 19.5049C9.27699 19.4172 9.32216 19.3375 9.38995 19.28C9.45774 19.2225 9.54375 19.191 9.63263 19.191H14.3689C14.4578 19.191 14.5438 19.2225 14.6116 19.28C14.6793 19.3375 14.7245 19.4172 14.739 19.5049L14.9246 20.6299C15.0022 21.1034 15.2552 21.5304 15.6333 21.8259C16.0114 22.1214 16.4869 22.2638 16.9651 22.2246C17.4434 22.1855 17.8894 21.9677 18.2144 21.6147C18.5395 21.2617 18.7197 20.7992 18.7193 20.3194V18.3C18.7188 18.2425 18.7317 18.1856 18.7568 18.1339C18.9278 17.7917 19.0168 17.4143 19.0166 17.0318C19.0159 16.3703 18.7529 15.7362 18.2853 15.2685C17.8176 14.8008 17.1835 14.5377 16.5221 14.5369C16.1133 14.5359 15.7106 14.6364 15.3503 14.8294C15.296 14.8582 15.2355 14.8733 15.174 14.8733H14.4795V14.9348C14.4795 15.5924 14.2183 16.223 13.7533 16.688C13.2883 17.153 12.6576 17.4143 12 17.4143C11.3424 17.4143 10.7117 17.153 10.2467 16.688C9.78174 16.223 9.5205 15.5924 9.5205 14.9348V14.8733H8.82488C8.76342 14.8733 8.7029 14.8582 8.64863 14.8294C8.28824 14.6364 7.88557 14.5359 7.47675 14.5369C6.81516 14.5377 6.1809 14.8009 5.71322 15.2689C5.24554 15.7369 4.98265 16.3713 4.98225 17.0329H4.983ZM7.011 18.4181H7.761V17.4769H8.7V16.7269H7.75875V15.7853H7.00875V16.7269H6.0675V17.4769H7.00875L7.011 18.4181ZM17.0824 15.7853H16.3324V16.566H17.0824V15.7853ZM17.0824 17.6029H16.3324V18.3836H17.0824V17.6029ZM18.0068 16.7096H17.2253V17.4596H18.006L18.0068 16.7096ZM16.1888 16.7096H15.4076V17.4596H16.188L16.1888 16.7096ZM3.48225 11.9348V1.55363C3.48225 1.45417 3.52176 1.35879 3.59209 1.28846C3.66242 1.21814 3.7578 1.17863 3.85725 1.17863H20.1428C20.2422 1.17863 20.3376 1.21814 20.4079 1.28846C20.4782 1.35879 20.5178 1.45417 20.5178 1.55363V11.9348C20.5178 12.0342 20.4782 12.1296 20.4079 12.1999C20.3376 12.2702 20.2422 12.3098 20.1428 12.3098H16.563V13.413H15.813V12.3098H8.187V13.413H7.437V12.3098H3.85725C3.7578 12.3098 3.66242 12.2702 3.59209 12.1999C3.52176 12.1296 3.48225 12.0342 3.48225 11.9348ZM19.7678 9.9375H4.23225V11.5598H19.7678V9.9375ZM4.23225 1.92863V9.1875H19.7678V1.92863H4.23225ZM12.606 10.3736H11.394V11.1236H12.606V10.3736Z" fill="black"/>
</svg>
