<svg width="24" height="24" viewBox="0 0 24 24" fill="none" xmlns="http://www.w3.org/2000/svg">
<path d="M19.695 11.5397C18.8827 11.6661 17.4813 11.9785 16.7722 12.6876C15.9005 13.5594 15.795 14.3755 16.467 15.0476C16.8064 15.387 17.1834 15.5308 17.5876 15.4753C18.1986 15.3817 18.6535 14.8429 18.6418 14.2223V14.2213C18.6256 13.1276 19.251 12.117 19.695 11.5397ZM17.4215 15.9824C16.9475 15.9824 16.5015 15.7831 16.1163 15.3983C15.7021 14.9839 14.9025 13.8562 16.4219 12.3368C17.5824 11.1761 20.1714 10.9763 20.2813 10.9682C20.3318 10.9646 20.3821 10.9764 20.4256 11.0022C20.4691 11.028 20.5037 11.0664 20.5248 11.1124C20.5458 11.1584 20.5523 11.2097 20.5433 11.2595C20.5344 11.3093 20.5104 11.3552 20.4747 11.3909C20.4608 11.4044 19.1163 12.7702 19.1373 14.2131C19.154 15.0812 18.518 15.8347 17.6587 15.9661C17.5801 15.977 17.5008 15.9824 17.4215 15.9824Z" fill="black"/>
<path d="M9.60404 22.8274C9.47244 22.8278 9.34207 22.8021 9.22044 22.7519C9.09882 22.7016 8.98834 22.6278 8.89538 22.5346C8.50575 22.145 8.50492 21.5114 8.89233 21.1205L10.5955 19.305L15.5987 13.9543C15.6208 13.9298 15.6475 13.91 15.6773 13.8959C15.7071 13.8819 15.7394 13.8739 15.7724 13.8725C15.8053 13.8711 15.8382 13.8763 15.8691 13.8877C15.9 13.8992 15.9283 13.9167 15.9523 13.9392C15.9764 13.9617 15.9957 13.9888 16.0092 14.0188C16.0227 14.0489 16.03 14.0814 16.0308 14.1143C16.0316 14.1473 16.0258 14.18 16.0137 14.2107C16.0017 14.2414 15.9837 14.2694 15.9607 14.293L10.9576 19.6442L9.25178 21.4622C9.25012 21.4645 9.24791 21.4661 9.24625 21.4683C9.19861 21.515 9.16077 21.5706 9.13493 21.6321C9.10909 21.6935 9.09578 21.7595 9.09578 21.8261C9.09578 21.8928 9.10909 21.9588 9.13493 22.0202C9.16077 22.0816 9.19861 22.1373 9.24625 22.1839C9.44694 22.3843 9.76113 22.3843 9.96211 22.1839L9.96764 22.1782L11.8284 20.4355L13.0498 19.2933L17.062 15.5399C17.0858 15.5177 17.1137 15.5003 17.1442 15.4889C17.1746 15.4774 17.2071 15.4721 17.2396 15.4731C17.2721 15.4742 17.3041 15.4817 17.3338 15.4952C17.3634 15.5086 17.3901 15.5278 17.4123 15.5516C17.4572 15.5996 17.4812 15.6635 17.479 15.7292C17.4768 15.7949 17.4487 15.857 17.4007 15.902L13.3886 19.6558L12.1673 20.7976L10.3095 22.5377C10.1219 22.7238 9.86826 22.8279 9.60404 22.8274Z" fill="black"/>
<path d="M10.7717 19.7226C10.7108 19.7226 10.6496 19.7007 10.6018 19.6554L6.72606 16.0239C6.67808 15.979 6.64993 15.9168 6.6478 15.8511C6.64568 15.7853 6.66974 15.7215 6.71471 15.6735C6.75968 15.6255 6.82187 15.5974 6.88759 15.5952C6.95331 15.5931 7.01719 15.6172 7.06517 15.6621L10.9411 19.2938C10.9648 19.316 10.984 19.3428 10.9974 19.3724C11.0108 19.4021 11.0182 19.4341 11.0193 19.4667C11.0203 19.4992 11.0149 19.5317 11.0034 19.5621C10.9919 19.5926 10.9745 19.6205 10.9522 19.6442C10.9037 19.6963 10.8378 19.7226 10.7717 19.7226ZM11.9981 18.4164C11.9317 18.4164 11.8653 18.3901 11.8168 18.338L8.22713 14.5045C8.18218 14.4565 8.15814 14.3926 8.16031 14.3268C8.16248 14.2611 8.19067 14.1989 8.23868 14.1539C8.2867 14.109 8.3506 14.085 8.41634 14.0871C8.48208 14.0893 8.54426 14.1175 8.58921 14.1655L12.1788 17.9989C12.2236 18.047 12.2475 18.1109 12.2453 18.1766C12.2431 18.2423 12.2149 18.3044 12.167 18.3494C12.1213 18.3924 12.0608 18.4163 11.998 18.4162L11.9981 18.4164ZM14.387 22.8278C14.1316 22.8278 13.8762 22.7309 13.6813 22.5377L11.8239 20.8023C11.8001 20.7801 11.7808 20.7534 11.7674 20.7237C11.7539 20.6941 11.7464 20.6621 11.7453 20.6295C11.7441 20.597 11.7495 20.5645 11.7609 20.534C11.7724 20.5036 11.7897 20.4756 11.812 20.4518C11.8342 20.428 11.8609 20.4088 11.8905 20.3953C11.9201 20.3818 11.9521 20.3743 11.9847 20.3732C12.0172 20.372 12.0497 20.3774 12.0802 20.3888C12.1107 20.4002 12.1386 20.4176 12.1624 20.4398L14.0227 22.1782C14.0249 22.1799 14.0269 22.1821 14.0286 22.1838C14.0753 22.2314 14.131 22.2693 14.1924 22.2951C14.2539 22.321 14.3199 22.3343 14.3866 22.3343C14.4533 22.3343 14.5193 22.321 14.5808 22.2951C14.6423 22.2693 14.698 22.2314 14.7446 22.1838C14.7923 22.1372 14.8301 22.0815 14.856 22.0201C14.8818 21.9586 14.8951 21.8926 14.8951 21.826C14.8951 21.7593 14.8818 21.6933 14.856 21.6319C14.8301 21.5705 14.7923 21.5148 14.7446 21.4682L14.7385 21.4622L13.0383 19.6442C12.9934 19.5961 12.9694 19.5322 12.9716 19.4664C12.9737 19.4006 13.0018 19.3384 13.0498 19.2933C13.0979 19.2484 13.1619 19.2245 13.2277 19.2267C13.2935 19.229 13.3557 19.2573 13.4006 19.3054L15.0985 21.1204C15.4861 21.5118 15.4851 22.145 15.0955 22.5346C15.0025 22.6278 14.8921 22.7016 14.7705 22.7519C14.6489 22.8022 14.5185 22.828 14.387 22.8278Z" fill="black"/>
<path d="M6.14585 15.5376L6.49977 15.8911L8.45122 13.9396L8.0973 13.5861L6.14585 15.5376ZM6.49977 16.4898C6.4361 16.4898 6.37257 16.4656 6.32399 16.4172L5.61975 15.7128C5.59677 15.6898 5.57854 15.6625 5.56612 15.6324C5.5537 15.6023 5.54733 15.5701 5.54736 15.5376C5.54736 15.4717 5.57325 15.4089 5.61961 15.3622L7.92208 13.06C8.01896 12.9631 8.17592 12.9633 8.27281 13.06L8.97718 13.7644C9.02369 13.8109 9.04943 13.874 9.04943 13.9396C9.04957 14.0054 9.02369 14.0685 8.97718 14.115L6.67486 16.417C6.62669 16.4655 6.56274 16.4897 6.49963 16.4897L6.49977 16.4898Z" fill="black"/>
<path d="M3.98595 13.7897L5.58971 15.3892L7.95003 13.0287L5.19275 10.2674L3.98595 13.7897ZM5.58971 15.9877C5.52632 15.9877 5.46293 15.9636 5.41435 15.9153L3.52573 14.0315C3.49294 13.9986 3.46999 13.9572 3.45948 13.912C3.44896 13.8667 3.45129 13.8195 3.46622 13.7755L4.85268 9.73028C4.86627 9.69045 4.8898 9.65474 4.92104 9.62653C4.95227 9.59832 4.99018 9.57853 5.03118 9.56904C5.07219 9.55955 5.11493 9.56067 5.15538 9.57229C5.19583 9.58392 5.23266 9.60566 5.26237 9.63546L8.47627 12.8535C8.57274 12.9504 8.5726 13.1074 8.47571 13.2041L5.7648 15.915C5.7165 15.9635 5.65324 15.9877 5.58971 15.9877Z" fill="black"/>
<path d="M5.27968 14.0944C5.21601 14.0944 5.1522 14.0701 5.1039 14.0214L3.93433 12.8469C3.88793 12.8003 3.86193 12.7372 3.86206 12.6714C3.86219 12.6057 3.88843 12.5427 3.93502 12.4963C3.9816 12.4499 4.04471 12.4239 4.11046 12.424C4.17621 12.4241 4.23921 12.4504 4.28561 12.497L5.45518 13.6714C5.55207 13.7684 5.55165 13.9255 5.45435 14.0221C5.43143 14.0451 5.40419 14.0633 5.37422 14.0757C5.34424 14.0881 5.31212 14.0944 5.27968 14.0944ZM6.40233 12.9669C6.33921 12.9669 6.27582 12.9428 6.2271 12.8945L4.50306 11.175C4.40617 11.0783 4.40617 10.9213 4.5025 10.8244C4.59953 10.7274 4.75648 10.7271 4.85337 10.8239L6.57769 12.5433C6.61249 12.578 6.63621 12.6222 6.64584 12.6704C6.65547 12.7185 6.65059 12.7684 6.6318 12.8138C6.61301 12.8592 6.58117 12.898 6.54032 12.9252C6.49946 12.9525 6.45144 12.967 6.40233 12.9669ZM10.6071 12.1562H13.394C13.4454 10.7999 13.9133 9.46619 14.7255 8.37551C15.1608 7.791 15.3907 7.09327 15.3907 6.35776C15.3907 4.51551 13.8921 2.99563 12.0505 2.96947C11.1491 2.95756 10.2885 3.30622 9.63186 3.95357C8.97552 4.60064 8.61427 5.45449 8.61427 6.35776C8.61427 7.08829 8.85372 7.81149 9.28833 8.39406C10.1091 9.49719 10.5623 10.793 10.6071 12.1561V12.1562ZM13.6373 12.6521H10.3631C10.3304 12.6521 10.2981 12.6457 10.268 12.6331C10.2378 12.6206 10.2105 12.6023 10.1874 12.5792C10.1644 12.556 10.1461 12.5286 10.1336 12.4984C10.1212 12.4682 10.1148 12.4359 10.1149 12.4033C10.1193 11.0572 9.69609 9.77346 8.89054 8.6904C8.39267 8.02298 8.1182 7.19445 8.1182 6.3579C8.11834 5.32065 8.53205 4.34139 9.28362 3.60034C10.0355 2.85915 11.0203 2.45887 12.0574 2.47368C13.0841 2.48821 14.0468 2.89915 14.7683 3.63093C15.4894 4.36257 15.8866 5.33103 15.8866 6.35776C15.8866 7.20068 15.6228 8.00097 15.1234 8.67171C14.3248 9.74384 13.8854 11.0694 13.8854 12.4041C13.8854 12.5411 13.7742 12.6521 13.6373 12.6521ZM12.0024 2.40572C11.8654 2.40572 11.7544 2.29471 11.7544 2.15783V1.4201C11.7544 1.35435 11.7805 1.2913 11.827 1.24481C11.8735 1.19832 11.9365 1.1722 12.0023 1.1722C12.068 1.1722 12.1311 1.19832 12.1776 1.24481C12.2241 1.2913 12.2502 1.35435 12.2502 1.4201L12.2503 2.15783C12.2503 2.29485 12.1392 2.40572 12.0024 2.40572ZM9.53179 3.20919C9.49252 3.20934 9.45378 3.20013 9.41878 3.18232C9.38378 3.16451 9.35353 3.13861 9.33054 3.10677L8.89843 2.50994C8.85984 2.45668 8.844 2.39027 8.85439 2.32532C8.86477 2.26038 8.90053 2.20222 8.95379 2.16364C9.00705 2.12506 9.07346 2.10922 9.13841 2.1196C9.20335 2.12998 9.26151 2.16574 9.30009 2.219L9.73235 2.81555C9.75915 2.85256 9.7752 2.89625 9.77874 2.94181C9.78228 2.98736 9.77317 3.03301 9.75241 3.07371C9.73165 3.11442 9.70005 3.1486 9.6611 3.17248C9.62214 3.19636 9.57735 3.20902 9.53165 3.20905L9.53179 3.20919ZM8.00485 5.30916C7.97924 5.30916 7.95377 5.30528 7.92844 5.29712L7.22864 5.07165C7.19667 5.0625 7.16687 5.04702 7.14101 5.02612C7.11515 5.00522 7.09375 4.97934 7.07809 4.95001C7.06243 4.92068 7.05283 4.88849 7.04985 4.85538C7.04688 4.82226 7.05059 4.78888 7.06077 4.75723C7.07096 4.72558 7.0874 4.6963 7.10913 4.67113C7.13085 4.64596 7.15742 4.62541 7.18724 4.61071C7.21706 4.59601 7.24954 4.58746 7.28274 4.58556C7.31593 4.58367 7.34917 4.58846 7.38048 4.59967L8.08056 4.82514C8.13655 4.84347 8.18419 4.88112 8.21497 4.93135C8.24575 4.98159 8.25765 5.04114 8.24854 5.09935C8.23944 5.15755 8.20992 5.21062 8.16527 5.24906C8.12063 5.2875 8.06376 5.30881 8.00485 5.30916ZM7.30435 8.1326C7.19971 8.1326 7.10227 8.06575 7.06836 7.96069C7.04828 7.89807 7.05386 7.83003 7.08388 7.77152C7.11391 7.713 7.16592 7.66879 7.2285 7.64858L7.92844 7.42311C7.99041 7.40517 8.05692 7.41208 8.11387 7.44237C8.17082 7.47265 8.21374 7.52394 8.23351 7.58534C8.25328 7.64674 8.24835 7.71342 8.21977 7.77125C8.19119 7.82908 8.1412 7.8735 8.08042 7.89509L7.38048 8.1207C7.35588 8.12862 7.33019 8.13263 7.30435 8.1326Z" fill="black"/>
<path d="M16.7004 8.1326C16.6754 8.1326 16.6496 8.12887 16.6245 8.1207L15.9247 7.89509C15.8937 7.88512 15.865 7.86914 15.8402 7.84807C15.8154 7.827 15.7949 7.80125 15.7801 7.77229C15.7652 7.74332 15.7562 7.71172 15.7535 7.67927C15.7509 7.64682 15.7547 7.61417 15.7646 7.58318C15.7746 7.55219 15.7906 7.52347 15.8116 7.49865C15.8327 7.47383 15.8585 7.45341 15.8874 7.43855C15.9164 7.42368 15.948 7.41467 15.9804 7.41202C16.0129 7.40937 16.0455 7.41314 16.0765 7.42311L16.7765 7.64872C16.8075 7.65868 16.8362 7.67465 16.861 7.69573C16.8858 7.71681 16.9062 7.74258 16.9211 7.77156C16.9359 7.80054 16.9449 7.83217 16.9475 7.86462C16.9501 7.89708 16.9462 7.92973 16.9362 7.9607C16.9202 8.01066 16.8887 8.05424 16.8463 8.08514C16.8039 8.11604 16.7528 8.13267 16.7004 8.1326ZM16.0004 5.30916C15.9412 5.30939 15.8839 5.28841 15.8388 5.25004C15.7937 5.21166 15.7638 5.15841 15.7546 5.09992C15.7454 5.04144 15.7574 4.98158 15.7884 4.93118C15.8195 4.88078 15.8676 4.84316 15.924 4.82514L16.6245 4.59953C16.6555 4.58952 16.6881 4.58572 16.7206 4.58835C16.753 4.59099 16.7846 4.6 16.8136 4.61488C16.8426 4.62976 16.8683 4.65021 16.8893 4.67505C16.9104 4.6999 16.9263 4.72866 16.9362 4.75967C16.9462 4.79064 16.9501 4.82329 16.9475 4.85575C16.9449 4.8882 16.9359 4.91983 16.9211 4.94881C16.9062 4.97779 16.8858 5.00356 16.861 5.02464C16.8362 5.04572 16.8075 5.06169 16.7765 5.07165L16.0765 5.29726C16.0519 5.30516 16.0262 5.30918 16.0004 5.30916ZM14.4735 3.2092C14.4277 3.20926 14.3829 3.19666 14.3439 3.1728C14.3048 3.14894 14.2732 3.11475 14.2524 3.07401C14.2316 3.03327 14.2225 2.98757 14.2261 2.94198C14.2297 2.89638 14.2459 2.85268 14.2728 2.81569L14.705 2.219C14.7856 2.10828 14.9403 2.08336 15.051 2.16364C15.1622 2.24392 15.1871 2.39908 15.1066 2.51008L14.6744 3.10663C14.6257 3.17349 14.5499 3.20906 14.4735 3.20906V3.2092ZM13.6373 13.6387H10.3676C10.3029 13.6372 10.2413 13.6104 10.1961 13.5641C10.1508 13.5177 10.1255 13.4555 10.1255 13.3908C10.1255 13.326 10.1508 13.2638 10.1961 13.2175C10.2413 13.1711 10.3029 13.1443 10.3676 13.1428H13.6373C13.7031 13.1428 13.7662 13.1689 13.8127 13.2154C13.8592 13.2619 13.8853 13.325 13.8853 13.3908C13.8853 13.4565 13.8592 13.5196 13.8127 13.5661C13.7662 13.6126 13.7031 13.6387 13.6373 13.6387ZM13.2146 14.63H10.7905C10.7257 14.6285 10.6642 14.6017 10.6189 14.5554C10.5737 14.509 10.5483 14.4468 10.5483 14.3821C10.5483 14.3173 10.5737 14.2551 10.6189 14.2088C10.6642 14.1624 10.7257 14.1356 10.7905 14.1341H13.2148C13.2795 14.1356 13.3411 14.1624 13.3863 14.2088C13.4316 14.2551 13.4569 14.3173 13.4569 14.3821C13.4569 14.4468 13.4316 14.509 13.3863 14.5554C13.3411 14.6017 13.2794 14.6285 13.2146 14.63ZM12.6038 12.6521H11.4056C11.3452 12.6521 11.2869 12.63 11.2416 12.59C11.1964 12.55 11.1673 12.4949 11.1598 12.435L10.5959 7.94367C10.5894 7.87929 10.6084 7.81494 10.6488 7.76435C10.6891 7.71377 10.7476 7.68094 10.8118 7.67289C10.876 7.66483 10.9408 7.68219 10.9924 7.72124C11.044 7.7603 11.0783 7.81796 11.0879 7.88194L11.6248 12.1561H12.3846L12.9168 7.88222C12.9207 7.84987 12.9311 7.81864 12.9472 7.79029C12.9632 7.76194 12.9847 7.73705 13.0105 7.71703C13.0362 7.69701 13.0656 7.68226 13.097 7.67363C13.1284 7.66499 13.1612 7.66264 13.1936 7.66671C13.2259 7.67071 13.2571 7.68106 13.2854 7.69715C13.3137 7.71323 13.3386 7.73476 13.3586 7.76047C13.3786 7.78619 13.3933 7.8156 13.4019 7.84701C13.4105 7.87843 13.4128 7.91123 13.4087 7.94353L12.85 12.4347C12.8426 12.4947 12.8134 12.5499 12.7681 12.59C12.7227 12.63 12.6643 12.6521 12.6038 12.6521Z" fill="black"/>
<path d="M12.007 15.7104C11.3419 15.7104 10.8007 15.1693 10.8007 14.5042C10.8009 14.4523 10.8054 14.4091 10.8101 14.3675L10.8115 14.3547C10.8188 14.2894 10.8518 14.2296 10.9031 14.1885C10.9544 14.1475 11.02 14.1284 11.0853 14.1356C11.1177 14.1392 11.149 14.1491 11.1775 14.1648C11.2061 14.1805 11.2312 14.2016 11.2516 14.227C11.2719 14.2524 11.2871 14.2816 11.2961 14.3129C11.3052 14.3441 11.308 14.3769 11.3044 14.4093L11.3032 14.4225C11.2997 14.4546 11.2967 14.4801 11.2967 14.5042C11.2969 14.6925 11.3718 14.8731 11.5049 15.0063C11.6381 15.1395 11.8186 15.2144 12.007 15.2147C12.1953 15.2144 12.3759 15.1395 12.5091 15.0063C12.6422 14.8731 12.7171 14.6925 12.7173 14.5042C12.7173 14.4796 12.7148 14.4538 12.7109 14.4212L12.7096 14.4094C12.7027 14.3442 12.7219 14.279 12.763 14.2279C12.804 14.1768 12.8637 14.1441 12.9288 14.1368C12.994 14.1296 13.0593 14.1484 13.1106 14.1892C13.1619 14.23 13.195 14.2895 13.2026 14.3546L13.2038 14.3657C13.2087 14.408 13.2132 14.4517 13.2132 14.5041C13.2132 15.1693 12.672 15.7104 12.007 15.7104ZM12.0031 8.61607C11.5236 8.61607 11.0449 8.44209 10.6724 8.09399C10.6486 8.07174 10.6295 8.04502 10.616 8.01537C10.6026 7.98571 10.5951 7.95369 10.594 7.92115C10.5929 7.8886 10.5982 7.85615 10.6097 7.82566C10.6211 7.79518 10.6385 7.76724 10.6607 7.74346C10.7057 7.69543 10.7678 7.66721 10.8336 7.66502C10.8661 7.66393 10.8986 7.66927 10.929 7.68072C10.9595 7.69217 10.9875 7.70952 11.0113 7.73176C11.5667 8.2508 12.4392 8.25067 12.9988 7.73121C13.0227 7.70904 13.0507 7.6918 13.0812 7.68045C13.1117 7.6691 13.1442 7.66387 13.1767 7.66507C13.2093 7.66626 13.2413 7.67385 13.2709 7.68741C13.3005 7.70097 13.3271 7.72023 13.3493 7.74408C13.3715 7.76794 13.3887 7.79593 13.4001 7.82645C13.4114 7.85697 13.4166 7.88943 13.4154 7.92198C13.4142 7.95452 13.4066 7.98651 13.3931 8.01612C13.3795 8.04573 13.3603 8.07237 13.3364 8.09454C12.9739 8.43072 12.4975 8.61697 12.0031 8.61607Z" fill="black"/>
</svg>
