<svg width="24" height="24" viewBox="0 0 24 24" fill="none" xmlns="http://www.w3.org/2000/svg">
<g clip-path="url(#clip0_832_277100)">
<mask id="mask0_832_277100" style="mask-type:luminance" maskUnits="userSpaceOnUse" x="0" y="0" width="24" height="24">
<path d="M0 7.05719e-05H23.9999V24H0V7.05719e-05Z" fill="white"/>
</mask>
<g mask="url(#mask0_832_277100)">
<path d="M15.2991 5.14416L17.6066 4.48492L18.962 2.113C19.0068 2.03451 19.0716 1.96928 19.1498 1.9239C19.228 1.87853 19.3168 1.85463 19.4072 1.85463C19.7883 1.85463 20.0363 2.25578 19.8658 2.59675L18.6365 5.05533C18.4582 5.41187 18.1456 5.683 17.7675 5.80908L16.1035 6.36371L6.31265 21.104C6.6825 21.3882 6.86639 21.9551 7.27213 22.1899C7.67507 22.423 8.25791 22.3003 8.69183 22.4802C9.12088 22.6581 9.44553 23.158 9.90055 23.2796C10.348 23.3993 10.8785 23.129 11.3471 23.1901C11.8048 23.2498 12.2478 23.6484 12.7218 23.6484C13.1958 23.6484 13.6387 23.2498 14.0965 23.1901C14.5649 23.129 15.0954 23.3993 15.5428 23.2797C15.9978 23.1581 16.3224 22.6582 16.7514 22.4804C17.1853 22.3004 17.7681 22.4233 18.171 22.1901C18.5767 21.9554 18.7606 21.3885 19.1304 21.1043L14.9763 13.8788" stroke="black" stroke-width="0.5" stroke-miterlimit="10" stroke-linecap="round" stroke-linejoin="round"/>
<path d="M13.0192 7.02126L11.9904 9.25991C11.7275 9.83187 11.5375 10.4346 11.4249 11.0539L10.843 14.2546" stroke="black" stroke-width="0.5" stroke-miterlimit="10" stroke-linecap="round" stroke-linejoin="round"/>
<path d="M14.4276 15.0567L14.8871 13.7239C15.1916 12.8411 15.2555 11.8931 15.0723 10.9774L14.6005 8.61824" stroke="black" stroke-width="0.5" stroke-miterlimit="10" stroke-linecap="round" stroke-linejoin="round"/>
<path d="M11.5945 23.2727L13.943 16.4621" stroke="black" stroke-width="0.5" stroke-miterlimit="10" stroke-linecap="round" stroke-linejoin="round"/>
<path d="M15.352 3.35766C15.352 3.98025 14.8473 4.48491 14.2248 4.48491C13.6022 4.48491 13.0975 3.98025 13.0975 3.35766C13.0975 2.73512 13.6022 2.23042 14.2248 2.23042C14.8473 2.23042 15.352 2.73512 15.352 3.35766Z" stroke="black" stroke-width="0.5" stroke-miterlimit="10" stroke-linecap="round" stroke-linejoin="round"/>
<path d="M12.7217 1.47888C12.7217 2.10147 12.217 2.60612 11.5945 2.60612C10.9719 2.60612 10.4672 2.10147 10.4672 1.47888C10.4672 0.856286 10.9719 0.351632 11.5945 0.351632C12.217 0.351632 12.7217 0.856286 12.7217 1.47888Z" stroke="black" stroke-width="0.5" stroke-miterlimit="10" stroke-linecap="round" stroke-linejoin="round"/>
<path d="M16.855 2.98192C16.855 3.39695 16.5186 3.73341 16.1035 3.73341C15.6885 3.73341 15.352 3.39695 15.352 2.98192C15.352 2.56689 15.6885 2.23042 16.1035 2.23042C16.5186 2.23042 16.855 2.56689 16.855 2.98192Z" stroke="black" stroke-width="0.5" stroke-miterlimit="10" stroke-linecap="round" stroke-linejoin="round"/>
<path d="M10.4672 5.61221L12.7321 5.89533M12.7321 5.89533C13.1155 5.94324 13.3592 6.33 13.237 6.69656C13.1964 6.81848 13.1184 6.92452 13.0141 6.99966C12.9099 7.07481 12.7846 7.11524 12.6561 7.11525H8.58838C8.17335 7.11525 7.83688 6.77878 7.83688 6.36375V6.36371C7.83688 6.24704 7.86404 6.13198 7.91622 6.02763C7.9684 5.92329 8.04416 5.83253 8.13749 5.76253L10.4619 4.01926C10.5655 3.94155 10.6946 3.90587 10.8234 3.91938C10.9522 3.93289 11.0712 3.99458 11.1564 4.0921L12.7321 5.89533Z" stroke="black" stroke-width="0.5" stroke-miterlimit="10" stroke-linecap="round" stroke-linejoin="round"/>
<path d="M11.5945 5.98796V7.11525" stroke="black" stroke-width="0.5" stroke-miterlimit="10" stroke-linecap="round" stroke-linejoin="round"/>
<path d="M10.4672 7.11521V9.35986C10.4672 9.61429 10.4155 9.86606 10.3152 10.0999L9.85639 11.1706C9.51562 11.9658 9.33991 12.8218 9.33992 13.6869V16.5091L4.07935 20.6424V23.6484L5.58239 21.3939L6.3126 21.104" stroke="black" stroke-width="0.5" stroke-miterlimit="10" stroke-linecap="round" stroke-linejoin="round"/>
<path d="M5.5824 21.3939L4.8309 20.2667" stroke="black" stroke-width="0.5" stroke-miterlimit="10" stroke-linecap="round" stroke-linejoin="round"/>
<path d="M15.352 7.30308L14.0137 5.63016C13.9071 5.49689 13.849 5.33132 13.849 5.16066V4.48491" stroke="black" stroke-width="0.5" stroke-miterlimit="10" stroke-linecap="round" stroke-linejoin="round"/>
</g>
</g>
<defs>
<clipPath id="clip0_832_277100">
<rect width="24" height="24" fill="white"/>
</clipPath>
</defs>
</svg>
