<svg width="24" height="24" viewBox="0 0 24 24" fill="none" xmlns="http://www.w3.org/2000/svg">
<g clip-path="url(#clip0_832_277079)">
<path d="M6.55624 15.8164H4.4041C4.30667 15.8164 4.21323 15.8551 4.14434 15.924C4.07545 15.9929 4.03674 16.0864 4.03674 16.1838C4.03674 16.2812 4.07545 16.3747 4.14434 16.4436C4.21323 16.5125 4.30667 16.5512 4.4041 16.5512H6.55628C6.65371 16.5512 6.74715 16.5124 6.81604 16.4435C6.88493 16.3746 6.92363 16.2812 6.92362 16.1838C6.92362 16.0863 6.88491 15.9929 6.81601 15.924C6.74711 15.8551 6.65367 15.8164 6.55624 15.8164ZM6.55624 14.3629H4.4041C4.30667 14.3629 4.21323 14.4016 4.14434 14.4705C4.07545 14.5394 4.03674 14.6328 4.03674 14.7302C4.03674 14.8277 4.07545 14.9211 4.14434 14.99C4.21323 15.0589 4.30667 15.0976 4.4041 15.0976H6.55628C6.65371 15.0976 6.74715 15.0589 6.81604 14.99C6.88493 14.9211 6.92363 14.8277 6.92362 14.7302C6.92362 14.6328 6.88491 14.5394 6.81601 14.4705C6.74711 14.4016 6.65367 14.3629 6.55624 14.3629ZM17.5763 13.2039C16.6184 13.2039 15.8391 13.9816 15.8391 14.9375C15.8391 15.8934 16.6184 16.6711 17.5763 16.6711C18.5342 16.6711 19.3135 15.8934 19.3135 14.9375C19.3135 13.9816 18.5342 13.2039 17.5763 13.2039ZM17.5763 15.9364C17.0235 15.9364 16.5738 15.4883 16.5738 14.9375C16.5738 14.3867 17.0235 13.9386 17.5763 13.9386C18.1291 13.9386 18.5788 14.3867 18.5788 14.9375C18.5788 15.4884 18.1291 15.9364 17.5763 15.9364ZM22.2224 16.5707C21.9889 15.8542 21.3252 15.3729 20.5707 15.3729C20.3887 15.3729 20.2081 15.4015 20.0337 15.458C19.5918 15.6013 19.2324 15.9078 19.0218 16.3211C18.8117 16.7336 18.775 17.2029 18.9183 17.643C19.1519 18.3594 19.8156 18.8407 20.5701 18.8407C20.7521 18.8407 20.9328 18.812 21.1072 18.7555C21.5492 18.6123 21.9085 18.3057 22.119 17.8924C22.3291 17.4799 22.3658 17.0106 22.2224 16.5707ZM21.4644 17.5588C21.343 17.7971 21.1357 17.974 20.8806 18.0566C20.7803 18.0893 20.6755 18.1059 20.5701 18.106C20.1346 18.106 19.7515 17.8284 19.6168 17.4153C19.5759 17.2909 19.5601 17.1596 19.5704 17.029C19.5806 16.8984 19.6167 16.7712 19.6765 16.6547C19.7979 16.4164 20.0052 16.2396 20.2602 16.1569C20.3605 16.1243 20.4653 16.1076 20.5707 16.1075C21.0062 16.1075 21.3892 16.3851 21.524 16.7983C21.5648 16.9227 21.5806 17.054 21.5704 17.1845C21.5602 17.3151 21.5241 17.4423 21.4644 17.5588ZM20.8323 19.5977C20.5064 19.1506 19.9809 18.8837 19.4262 18.8837C19.0578 18.8837 18.7051 18.9981 18.4063 19.2147C18.0306 19.4871 17.7838 19.8892 17.7114 20.347C17.6391 20.8044 17.7495 21.2625 18.0225 21.637C18.3483 22.084 18.8739 22.3509 19.4284 22.3509C19.7969 22.3509 20.1496 22.2364 20.4484 22.0198C20.8241 21.7474 21.0709 21.3453 21.1433 20.8875C21.2157 20.4302 21.1053 19.9721 20.8323 19.5977ZM20.4177 20.7727C20.376 21.0363 20.2338 21.2679 20.0171 21.4249C19.8462 21.5495 19.64 21.6165 19.4284 21.6162C19.1079 21.6162 18.8042 21.4621 18.6162 21.2041C18.5387 21.0984 18.4829 20.9784 18.4522 20.8509C18.4214 20.7235 18.4163 20.5912 18.4371 20.4618C18.4788 20.1981 18.621 19.9665 18.8375 19.8095C19.0085 19.6849 19.2147 19.618 19.4263 19.6183C19.7469 19.6183 20.0506 19.7723 20.2386 20.0304C20.3957 20.2459 20.4593 20.5096 20.4177 20.7727ZM17.4425 20.347C17.3698 19.8892 17.1227 19.4873 16.7469 19.2152C16.4482 18.999 16.0958 18.8847 15.7277 18.8847C15.1727 18.8847 14.6469 19.1519 14.3211 19.5995C14.0484 19.9741 13.9382 20.4323 14.0108 20.8897C14.0836 21.3473 14.3306 21.7493 14.7065 22.0214C15.0052 22.2377 15.3576 22.352 15.7256 22.352C16.2805 22.352 16.8063 22.0848 17.1322 21.6372C17.4049 21.2626 17.5151 20.8044 17.4425 20.347ZM16.5382 21.2048C16.3502 21.4631 16.0464 21.6173 15.7256 21.6173C15.5133 21.6173 15.3099 21.5512 15.1373 21.4263C14.9207 21.2694 14.7784 21.038 14.7365 20.7744C14.6948 20.5113 14.7582 20.2475 14.9152 20.0318C15.1032 19.7735 15.407 19.6193 15.7278 19.6193C15.9401 19.6193 16.1435 19.6854 16.3161 19.8103C16.5327 19.9671 16.6751 20.1987 16.7169 20.4622C16.7587 20.7254 16.6952 20.9891 16.5382 21.2048ZM16.1298 16.3219C15.919 15.9087 15.5595 15.6025 15.1176 15.4595C14.9444 15.4033 14.7635 15.3747 14.5815 15.3746C13.8264 15.3746 13.1625 15.8564 12.9295 16.5732C12.7863 17.0132 12.8233 17.4825 13.0334 17.8947C13.2442 18.3081 13.6038 18.6145 14.0459 18.7576C14.219 18.8138 14.3999 18.8424 14.582 18.8425C15.3369 18.8425 16.0008 18.3607 16.234 17.6437C16.3772 17.2036 16.3401 16.7342 16.1298 16.3219ZM15.5353 17.4165C15.4009 17.8299 15.0178 18.1077 14.582 18.1077C14.4772 18.1077 14.3729 18.0912 14.272 18.0585C14.0169 17.9759 13.8095 17.7993 13.6879 17.5609C13.6281 17.4445 13.592 17.3172 13.5817 17.1867C13.5715 17.0561 13.5872 16.9249 13.6281 16.8004C13.7625 16.387 14.1456 16.1092 14.5814 16.1092C14.6861 16.1092 14.7904 16.1258 14.8913 16.1584C15.1464 16.241 15.3538 16.4175 15.4753 16.6558C15.5352 16.7723 15.5713 16.8995 15.5816 17.0301C15.5919 17.1607 15.5762 17.292 15.5353 17.4165ZM18.7974 17.6296C18.6933 17.3093 18.4704 17.0488 18.1698 16.896C17.9926 16.8062 17.7969 16.7592 17.5982 16.7589C17.1212 16.7589 16.6902 17.0223 16.4736 17.4463C16.3207 17.7459 16.2937 18.087 16.3976 18.4068C16.5017 18.7271 16.7247 18.9875 17.0252 19.1402C17.2024 19.2301 17.3982 19.2771 17.5968 19.2774C18.0738 19.2774 18.5048 19.0139 18.7213 18.5899C18.8743 18.2904 18.9013 17.9494 18.7974 17.6296ZM18.0671 18.2558C17.9767 18.4327 17.7965 18.5427 17.5968 18.5427C17.5135 18.5427 17.4332 18.5233 17.3581 18.4851C17.2964 18.4541 17.2415 18.4111 17.1965 18.3586C17.1516 18.3061 17.1175 18.2453 17.0963 18.1796C17.0749 18.1143 17.0666 18.0453 17.0721 17.9768C17.0775 17.9083 17.0965 17.8416 17.1279 17.7805C17.2183 17.6035 17.3985 17.4935 17.5982 17.4935C17.6815 17.4935 17.7619 17.5129 17.837 17.5511C17.8987 17.5821 17.9536 17.6251 17.9985 17.6776C18.0435 17.7301 18.0775 17.7909 18.0987 17.8567C18.1201 17.922 18.1284 17.9909 18.1229 18.0594C18.1175 18.1279 18.0985 18.1947 18.0671 18.2558Z" fill="black"/>
<path d="M23.5483 23.2654H20.4467C21.3008 22.7949 22.0383 22.1127 22.5841 21.2593C22.6352 21.1772 22.6519 21.0783 22.6306 20.9841C22.6092 20.8898 22.5516 20.8077 22.4702 20.7557C22.3888 20.7036 22.2901 20.6857 22.1956 20.7059C22.1011 20.726 22.0183 20.7826 21.9652 20.8634C21.0033 22.3675 19.3625 23.2654 17.5761 23.2654C14.7079 23.2654 12.3744 20.9385 12.3744 18.0784C12.3744 15.2184 14.7079 12.8915 17.5761 12.8915C20.4443 12.8915 22.7778 15.2184 22.7778 18.0784C22.7778 18.6734 22.6777 19.2566 22.4804 19.8118C22.4477 19.9036 22.4529 20.0046 22.4947 20.0926C22.5366 20.1806 22.6117 20.2483 22.7035 20.281C22.7953 20.3136 22.8963 20.3084 22.9843 20.2666C23.0723 20.2247 23.14 20.1497 23.1727 20.0578C23.3982 19.4235 23.5125 18.7575 23.5125 18.0784C23.5125 15.4196 21.7467 13.1647 19.3235 12.4187V10.058C19.5235 9.95718 19.6613 9.75037 19.6613 9.51149V7.51072C19.6613 7.17312 19.3866 6.89848 19.049 6.89848H4.44348L15.4936 3.9455C15.5865 3.91929 15.2779 3.73348 15.3257 3.64956C15.3734 3.56564 15.2208 3.52361 15.1959 3.43032C15.1709 3.33704 15.456 3.35967 15.3728 3.31076C15.2895 3.26186 15.1817 3.28711 15.0881 3.31076L13.7555 3.64956L12.3179 2.21574L13.6367 1.86329L15.1169 3.33953C15.0724 3.38503 15.0406 3.44132 15.0244 3.50287C15.0083 3.56441 15.0084 3.6291 15.0248 3.69058C15.05 3.78467 15.1115 3.86491 15.1959 3.91366C15.2802 3.96242 15.3804 3.9757 15.4745 3.95059L18.5217 3.13628C18.5994 3.11568 18.6723 3.07985 18.7361 3.03087C18.7999 2.98189 18.8534 2.92074 18.8934 2.85095C18.9338 2.78141 18.9601 2.70454 18.9706 2.62478C18.9811 2.54502 18.9757 2.46397 18.9546 2.38632L18.4354 0.453659C18.3479 0.127876 18.0117 -0.0663274 17.6856 0.0208135L0.5385 4.60324C0.460749 4.62384 0.387859 4.65966 0.324052 4.70863C0.260244 4.7576 0.206788 4.81874 0.16678 4.88852C0.126328 4.95806 0.100084 5.03493 0.0895669 5.11469C0.0790501 5.19445 0.0844704 5.2755 0.105514 5.35315L0.624797 7.28581C0.639469 7.34056 0.68461 7.48616 0.68461 7.51077V9.51154C0.68461 9.75041 0.822423 9.95727 1.02244 10.0581V18.8131C1.02244 19.1507 1.29708 19.4253 1.63468 19.4253H6.5C6.59743 19.4253 9.07271 19.3866 9.14161 19.3177C9.2105 19.2488 6.0097 19.1554 6.0097 19.058C6.0097 18.9605 10.1017 18.8671 10.0328 18.7982C9.9639 18.7293 11.2909 18.6906 11.1934 18.6906H1.75711V10.1238H18.5887V12.2433C18.3489 12.2021 18.1068 12.1756 17.8638 12.1639V11.3396C17.8638 11.002 17.5891 10.7274 17.2515 10.7274H16.0165C15.919 10.7274 15.8256 10.7661 15.7567 10.835C15.6878 10.9039 15.6491 10.9973 15.6491 11.0947C15.6491 11.1922 15.6878 11.2856 15.7567 11.3545C15.8256 11.4234 15.919 11.4621 16.0165 11.4621H17.1291V12.1735C16.3289 12.2329 15.5493 12.4548 14.8378 12.8257H13.8515V11.4621H16.1746C16.272 11.4621 16.0268 11.4085 16.0956 11.3396C16.1645 11.2707 16.1746 11.1922 16.1746 11.0947C16.1746 10.9973 17.5984 10.9039 17.5295 10.835C17.4606 10.7661 16.0974 10.7274 16 10.7274H3.09432C2.75673 10.7274 2.48209 11.002 2.48209 11.3396V17.3496C2.48209 17.6872 2.75673 17.9619 3.09432 17.9619H11.6412C11.6404 18.0007 11.6397 18.0394 11.6397 18.0784C11.6397 18.2851 11.6505 18.4893 11.6713 18.6906H11.1934C11.096 18.6906 6.07859 18.7293 6.0097 18.7982C5.9408 18.8671 5.9021 18.9605 5.9021 19.058C5.9021 19.1554 5.9408 19.2488 6.0097 19.3177C6.07859 19.3866 6.17203 19.4253 6.26946 19.4253H11.7947C12.4076 22.0438 14.767 24 17.576 24H23.5483C23.645 23.999 23.7374 23.9598 23.8054 23.891C23.8734 23.8222 23.9115 23.7294 23.9115 23.6327C23.9115 23.536 23.8734 23.4432 23.8054 23.3744C23.7374 23.3056 23.645 23.2665 23.5483 23.2654ZM17.7575 0.762098L18.2132 2.45828L17.7518 2.5816L16.3142 1.14788L17.7575 0.762098ZM15.4936 1.36707L16.9312 2.80084L15.895 3.07778L14.4573 1.64401L15.4936 1.36707ZM11.4974 2.43503L12.935 3.8688L11.8987 4.14574L10.461 2.71196L11.4974 2.43503ZM9.64044 2.93125L11.0781 4.36502L9.75918 4.71747L8.32161 3.28365L9.64044 2.93125ZM7.50106 3.50298L8.93867 4.93676L7.90231 5.21369L6.46474 3.77992L7.50106 3.50298ZM5.64424 3.9992L7.08185 5.43298L5.76293 5.78543L4.32526 4.35171L5.64424 3.9992ZM3.50467 4.57099L4.94228 6.00471L3.90601 6.28165L2.46844 4.84793L3.50467 4.57099ZM0.846939 5.28124L1.64789 5.06721L3.08551 6.50093L1.30266 6.97737L0.846939 5.28124ZM1.41928 9.38905V7.7067L1.6943 7.6332H2.9139L1.89746 9.38905H1.41928ZM2.74632 9.38905L3.76276 7.6332H4.8362L3.81972 9.38905H2.74632ZM4.66867 9.38905L5.68516 7.6332H7.05115L6.03471 9.38905H4.66867ZM6.88357 9.38905L7.90001 7.6332H8.9735L7.95706 9.38905H6.88357ZM8.80592 9.38905L9.82236 7.6332H11.1884L10.1719 9.38905H8.80592ZM11.0208 9.38905L12.0373 7.6332H13.1108L12.0943 9.38905H11.0208ZM12.9432 9.38905L13.9596 7.6332H15.3257L14.3092 9.38905H12.9432ZM15.1581 9.38905L16.1746 7.6332H17.2481L16.2316 9.38905H15.1581ZM17.0805 9.38905L18.0969 7.6332H18.9265V9.38905H17.0805ZM8.31781 11.4621H13.1168V12.8256H8.31781V11.4621ZM3.21676 11.4621H7.58314V12.8257H3.21676V11.4621ZM7.85797 16.5512H11.8402C11.7807 16.7736 11.7343 16.9994 11.7013 17.2273H3.21676V13.5604H13.7432C13.4566 13.8026 13.1935 14.0714 12.9573 14.363H7.85797C7.76054 14.363 7.6671 14.4017 7.5982 14.4706C7.52931 14.5395 7.49061 14.6329 7.49061 14.7303C7.49061 14.8278 7.52931 14.9212 7.5982 14.9901C7.6671 15.059 7.76054 15.0977 7.85797 15.0977H12.4485C12.3128 15.3289 12.1931 15.5691 12.0902 15.8166H7.85801C7.65514 15.8166 7.49065 15.9811 7.49065 16.1839C7.49065 16.3868 7.65514 16.5512 7.85797 16.5512Z" fill="black"/>
</g>
<defs>
<clipPath id="clip0_832_277079">
<rect width="24" height="24" fill="white"/>
</clipPath>
</defs>
</svg>
