<svg width="24" height="24" viewBox="0 0 24 24" fill="none" xmlns="http://www.w3.org/2000/svg">
<path d="M23.5444 7.41562L19.7869 2.66475C19.7269 2.58895 19.6397 2.53946 19.5439 2.52675V2.526L11.8995 1.4685C11.8643 1.46326 11.8285 1.46352 11.7934 1.46925L4.45313 2.55563C4.36034 2.57443 4.27629 2.62318 4.21388 2.69437L0.456384 7.44488C0.403144 7.5092 0.374326 7.59025 0.375012 7.67375C0.375698 7.75724 0.405844 7.83781 0.460134 7.90125L0.453384 7.9065L11.6224 22.389C11.6573 22.4343 11.7021 22.471 11.7534 22.4963C11.8046 22.5216 11.861 22.5348 11.9182 22.535C11.9753 22.5352 12.0318 22.5223 12.0832 22.4973C12.1347 22.4723 12.1797 22.4359 12.2149 22.3909L23.5463 7.87875L23.5399 7.87387C23.5944 7.81014 23.6247 7.72929 23.6256 7.64545C23.6265 7.56161 23.5979 7.48012 23.5448 7.41525L23.5444 7.41562ZM22.6196 7.45575L17.4158 9.1125L19.6005 3.63863L22.6196 7.45575ZM12.0131 4.785L15.9551 9.3375L8.05013 9.36188L12.0131 4.785ZM16.6538 8.99925L12.8081 4.55812L18.8906 3.3945L16.6538 8.99925ZM16.2203 10.0871L11.925 20.9047L7.77263 10.113L16.2203 10.0871ZM7.34701 9.0285L5.11013 3.42375L11.1926 4.58737L7.34701 9.0285ZM6.94201 10.0425L10.8184 20.1188L1.78051 8.39887L6.94201 10.0425ZM17.0565 10.014L22.2083 8.37375L13.0508 20.1019L17.0565 10.014ZM11.85 2.21887L17.1863 2.95688C11.9509 3.9585 12.0233 3.93863 11.952 3.96938L6.75001 2.97375L11.85 2.21887ZM4.39988 3.6675L6.58463 9.14138L1.38113 7.485L4.39988 3.6675Z" fill="black"/>
</svg>
