<svg width="24" height="24" viewBox="0 0 24 24" fill="none" xmlns="http://www.w3.org/2000/svg">
<path d="M1.24341 15.8578H3.29499V22.4547C3.29499 22.5293 3.32462 22.6008 3.37736 22.6535C3.43011 22.7063 3.50164 22.7359 3.57624 22.7359H5.73952C5.81411 22.7359 5.88565 22.7063 5.93839 22.6535C5.99114 22.6008 6.02077 22.5293 6.02077 22.4547V15.8578H17.9792V22.4547C17.9792 22.5293 18.0089 22.6008 18.0616 22.6535C18.1144 22.7063 18.1859 22.7359 18.2605 22.7359H20.4238C20.4984 22.7359 20.5699 22.7063 20.6226 22.6535C20.6754 22.6008 20.705 22.5293 20.705 22.4547V15.8578H22.7566C22.8312 15.8578 22.9027 15.8282 22.9555 15.7754C23.0082 15.7227 23.0378 15.6512 23.0378 15.5766V4.20694C23.0378 4.13234 23.0082 4.06081 22.9555 4.00806C22.9027 3.95532 22.8312 3.92569 22.7566 3.92569H17.6829L18.9212 1.82658H19.9684V2.85806H19.1381C19.0635 2.85806 18.992 2.88769 18.9392 2.94044C18.8865 2.99318 18.8568 3.06472 18.8568 3.13931C18.8568 3.2139 18.8865 3.28544 18.9392 3.33818C18.992 3.39093 19.0635 3.42056 19.1381 3.42056H20.1866C20.2281 3.43031 20.2712 3.43031 20.3127 3.42056H21.3613C21.4359 3.42056 21.5074 3.39093 21.5601 3.33818C21.6129 3.28544 21.6425 3.2139 21.6425 3.13931C21.6425 3.06472 21.6129 2.99318 21.5601 2.94044C21.5074 2.88769 21.4359 2.85806 21.3613 2.85806H20.5309V1.54533C20.5309 1.47073 20.5013 1.3992 20.4485 1.34645C20.3958 1.29371 20.3243 1.26408 20.2497 1.26408H18.7605C18.7116 1.26408 18.6635 1.27684 18.6211 1.30111C18.5786 1.32538 18.5432 1.36031 18.5183 1.40245L17.0297 3.92569H10.407L11.6453 1.82658H12.6926V2.85806H11.8622C11.7876 2.85806 11.7161 2.88769 11.6634 2.94044C11.6106 2.99318 11.581 3.06472 11.581 3.13931C11.581 3.2139 11.6106 3.28544 11.6634 3.33818C11.7161 3.39093 11.7876 3.42056 11.8622 3.42056H12.9108C12.9522 3.43031 12.9954 3.43031 13.0368 3.42056H14.0854C14.16 3.42056 14.2316 3.39093 14.2843 3.33818C14.337 3.28544 14.3667 3.2139 14.3667 3.13931C14.3667 3.06472 14.337 2.99318 14.2843 2.94044C14.2316 2.88769 14.16 2.85806 14.0854 2.85806H13.2551V1.54533C13.2551 1.47073 13.2254 1.3992 13.1727 1.34645C13.12 1.29371 13.0484 1.26408 12.9738 1.26408H11.4847C11.4358 1.26408 11.3877 1.27684 11.3452 1.30111C11.3027 1.32538 11.2673 1.36031 11.2425 1.40245L9.75399 3.92569H3.61088L4.84913 1.82658H5.89636V2.85806H5.06602C4.99143 2.85806 4.91989 2.88769 4.86714 2.94044C4.8144 2.99318 4.78477 3.06472 4.78477 3.13931C4.78477 3.2139 4.8144 3.28544 4.86714 3.33818C4.91989 3.39093 4.99143 3.42056 5.06602 3.42056H6.11456C6.15603 3.43031 6.19919 3.43031 6.24066 3.42056H7.28906C7.36366 3.42056 7.43519 3.39093 7.48794 3.33818C7.54068 3.28544 7.57031 3.2139 7.57031 3.13931C7.57031 3.06472 7.54068 2.99318 7.48794 2.94044C7.43519 2.88769 7.36366 2.85806 7.28906 2.85806H6.45886V1.54533C6.45886 1.47073 6.42923 1.3992 6.37649 1.34645C6.32374 1.29371 6.2522 1.26408 6.17761 1.26408H4.68849C4.63957 1.26409 4.5915 1.27685 4.54902 1.30112C4.50655 1.32539 4.47113 1.36031 4.44628 1.40245L2.95781 3.92569H1.24341C1.16882 3.92569 1.09728 3.95532 1.04453 4.00806C0.99179 4.06081 0.962158 4.13234 0.962158 4.20694V15.5766C0.962158 15.6512 0.99179 15.7227 1.04453 15.7754C1.09728 15.8282 1.16882 15.8578 1.24341 15.8578ZM5.45827 22.1736H3.85749V15.8578H5.45827V22.1736ZM20.1425 22.1736H18.5417V15.8578H20.1425V22.1736ZM1.52466 4.48819H22.4753V15.2953H1.52466V4.48819Z" fill="black"/>
<path d="M21.3613 5.47603H2.63873C2.56414 5.47603 2.4926 5.50566 2.43986 5.5584C2.38711 5.61115 2.35748 5.68269 2.35748 5.75728V14.026C2.35748 14.1006 2.38711 14.1722 2.43986 14.2249C2.4926 14.2776 2.56414 14.3073 2.63873 14.3073H21.3613C21.4359 14.3073 21.5074 14.2776 21.5601 14.2249C21.6129 14.1722 21.6425 14.1006 21.6425 14.026V5.75728C21.6425 5.68269 21.6129 5.61115 21.5601 5.5584C21.5074 5.50566 21.4359 5.47603 21.3613 5.47603ZM21.08 13.7448H2.91998V6.03853H21.08V13.7448Z" fill="black"/>
<path d="M4 11.9423V8H5.08422C5.29266 8 5.47023 8.05711 5.61694 8.17132C5.76365 8.28425 5.87547 8.44145 5.95241 8.64293C6.03023 8.84312 6.06915 9.07411 6.06915 9.3359C6.06915 9.59769 6.02979 9.82868 5.95106 10.0289C5.87234 10.2291 5.75828 10.385 5.60889 10.4966C5.46039 10.6083 5.28058 10.6641 5.06946 10.6641H4.3784V9.99615H4.97553C5.08735 9.99615 5.17949 9.96856 5.25196 9.91338C5.32531 9.85691 5.37988 9.77927 5.41566 9.68046C5.45234 9.58037 5.47068 9.46551 5.47068 9.3359C5.47068 9.205 5.45234 9.09079 5.41566 8.99326C5.37988 8.89445 5.32531 8.81809 5.25196 8.7642C5.1786 8.70902 5.08556 8.68142 4.97285 8.68142H4.58103V11.9423H4Z" fill="black"/>
<path d="M7.3419 12C7.12989 12 6.9474 11.9384 6.79442 11.8152C6.64235 11.6907 6.52516 11.5149 6.44286 11.2878C6.36055 11.0594 6.3194 10.7892 6.3194 10.4774C6.3194 10.1732 6.36055 9.90632 6.44286 9.67661C6.52516 9.4469 6.641 9.26789 6.7904 9.13956C6.94069 9.01123 7.11692 8.94706 7.31909 8.94706C7.45507 8.94706 7.58165 8.97851 7.69884 9.04139C7.81692 9.10298 7.9198 9.19602 8.00746 9.3205C8.09603 9.44498 8.16491 9.60154 8.21411 9.79018C8.26331 9.97754 8.28791 10.197 8.28791 10.4485V10.6737H6.54752V10.1655H7.74983C7.74983 10.0475 7.73194 9.94289 7.69615 9.85178C7.66037 9.76067 7.61072 9.68944 7.54721 9.63811C7.48459 9.5855 7.41168 9.55919 7.32848 9.55919C7.24171 9.55919 7.16478 9.58807 7.09768 9.64581C7.03148 9.70228 6.9796 9.77863 6.94203 9.87488C6.90446 9.96984 6.88522 10.0757 6.88433 10.1925V10.6756C6.88433 10.8219 6.90311 10.9483 6.94069 11.0549C6.97915 11.1614 7.03327 11.2435 7.10305 11.3013C7.17283 11.359 7.25558 11.3879 7.35129 11.3879C7.41481 11.3879 7.47296 11.375 7.52574 11.3494C7.57852 11.3237 7.62369 11.2852 7.66126 11.2339C7.69884 11.1825 7.72746 11.1197 7.74714 11.0452L8.27584 11.0953C8.249 11.2775 8.19398 11.4366 8.11079 11.5727C8.02849 11.7074 7.92203 11.8126 7.79142 11.8884C7.66171 11.9628 7.51187 12 7.3419 12Z" fill="black"/>
<path d="M8.66095 11.9423V8.98556H9.23258V10.1328H9.39361L9.9545 8.98556H10.6254L9.8968 10.4524L10.6335 11.9423H9.9545L9.44594 10.8932H9.23258V11.9423H8.66095Z" fill="black"/>
<path d="M10.7543 11.9423L10.7516 11.2916H10.82C10.8683 11.2916 10.9099 11.2749 10.9448 11.2416C10.9806 11.2069 11.0101 11.1511 11.0334 11.0741C11.0566 10.9971 11.075 10.8951 11.0884 10.768C11.1018 10.6397 11.1107 10.4819 11.1152 10.2945L11.1488 8.98556H12.716V11.9423H12.1713V9.63041H11.6627L11.6305 10.5332C11.6224 10.7809 11.6014 10.9939 11.5674 11.1723C11.5343 11.3507 11.4882 11.497 11.4292 11.6112C11.3702 11.7241 11.299 11.8075 11.2159 11.8614C11.1327 11.9153 11.036 11.9423 10.926 11.9423H10.7543Z" fill="black"/>
<path d="M13.7469 11.9981C13.6154 11.9981 13.4982 11.9654 13.3954 11.8999C13.2925 11.8332 13.2111 11.735 13.1511 11.6054C13.0921 11.4745 13.0626 11.3115 13.0626 11.1165C13.0626 10.9522 13.0836 10.8142 13.1257 10.7026C13.1677 10.591 13.2249 10.5011 13.2974 10.4331C13.3699 10.3651 13.4522 10.3138 13.5443 10.2791C13.6373 10.2445 13.7349 10.2201 13.8368 10.206C13.9567 10.188 14.0533 10.1713 14.1267 10.1559C14.2 10.1392 14.2533 10.1149 14.2864 10.0828C14.3195 10.0507 14.336 10.0032 14.336 9.94033V9.92878C14.336 9.80687 14.3092 9.71254 14.2555 9.64581C14.2027 9.57908 14.1276 9.54572 14.0301 9.54572C13.9272 9.54572 13.8453 9.57844 13.7845 9.64389C13.7237 9.70805 13.6834 9.7889 13.6637 9.88643L13.135 9.82483C13.1619 9.64517 13.2147 9.48989 13.2934 9.359C13.3721 9.22682 13.4736 9.12544 13.598 9.05486C13.7232 8.983 13.8681 8.94706 14.0327 8.94706C14.1473 8.94706 14.2568 8.96631 14.3615 9.00481C14.4671 9.04331 14.5605 9.10298 14.642 9.18383C14.7243 9.26468 14.7891 9.36862 14.8365 9.49567C14.8839 9.62143 14.9076 9.77222 14.9076 9.94803V11.9423H14.3655V11.5322H14.3494C14.3163 11.6246 14.272 11.7061 14.2166 11.7767C14.1611 11.846 14.0945 11.9005 14.0166 11.9403C13.9388 11.9788 13.8489 11.9981 13.7469 11.9981ZM13.9106 11.4321C13.9947 11.4321 14.069 11.4084 14.1334 11.3609C14.1978 11.3122 14.2483 11.2467 14.285 11.1646C14.3217 11.0825 14.34 10.9894 14.34 10.8855V10.5717C14.3221 10.5884 14.2975 10.6038 14.2662 10.6179C14.2358 10.6307 14.2014 10.6429 14.1629 10.6545C14.1244 10.6647 14.086 10.6744 14.0475 10.6833C14.009 10.691 13.9742 10.6981 13.9428 10.7045C13.8758 10.7186 13.8172 10.7411 13.7671 10.7719C13.717 10.8027 13.6781 10.8444 13.6503 10.897C13.6226 10.9483 13.6087 11.0125 13.6087 11.0895C13.6087 11.2012 13.6369 11.2865 13.6933 11.3455C13.7505 11.4033 13.823 11.4321 13.9106 11.4321Z" fill="black"/>
<path d="M16.5695 11.0356L17.1277 8.98556H17.5625L16.7587 11.9423H16.379L15.594 8.98556H16.0274L16.5695 11.0356ZM15.8973 8.98556V11.9423H15.3511V8.98556H15.8973ZM17.27 11.9423V8.98556H17.8094V11.9423H17.27Z" fill="black"/>
<path d="M18.8393 11.9981C18.7078 11.9981 18.5906 11.9654 18.4877 11.8999C18.3848 11.8332 18.3034 11.735 18.2435 11.6054C18.1845 11.4745 18.1549 11.3115 18.1549 11.1165C18.1549 10.9522 18.176 10.8142 18.218 10.7026C18.2601 10.591 18.3173 10.5011 18.3898 10.4331C18.4622 10.3651 18.5445 10.3138 18.6367 10.2791C18.7297 10.2445 18.8272 10.2201 18.9292 10.206C19.0491 10.188 19.1457 10.1713 19.219 10.1559C19.2924 10.1392 19.3456 10.1149 19.3787 10.0828C19.4118 10.0507 19.4284 10.0032 19.4284 9.94033V9.92878C19.4284 9.80687 19.4015 9.71254 19.3479 9.64581C19.2951 9.57908 19.2199 9.54572 19.1224 9.54572C19.0195 9.54572 18.9377 9.57844 18.8769 9.64389C18.816 9.70805 18.7758 9.7889 18.7561 9.88643L18.2274 9.82483C18.2542 9.64517 18.307 9.48989 18.3857 9.359C18.4645 9.22682 18.566 9.12544 18.6903 9.05486C18.8156 8.983 18.9605 8.94706 19.1251 8.94706C19.2396 8.94706 19.3492 8.96631 19.4539 9.00481C19.5594 9.04331 19.6529 9.10298 19.7343 9.18383C19.8166 9.26468 19.8815 9.36862 19.9289 9.49567C19.9763 9.62143 20 9.77222 20 9.94803V11.9423H19.4579V11.5322H19.4418C19.4087 11.6246 19.3644 11.7061 19.3089 11.7767C19.2535 11.846 19.1868 11.9005 19.109 11.9403C19.0312 11.9788 18.9413 11.9981 18.8393 11.9981ZM19.003 11.4321C19.0871 11.4321 19.1613 11.4084 19.2257 11.3609C19.2902 11.3122 19.3407 11.2467 19.3774 11.1646C19.4141 11.0825 19.4324 10.9894 19.4324 10.8855V10.5717C19.4145 10.5884 19.3899 10.6038 19.3586 10.6179C19.3282 10.6307 19.2937 10.6429 19.2553 10.6545C19.2168 10.6647 19.1783 10.6744 19.1399 10.6833C19.1014 10.691 19.0665 10.6981 19.0352 10.7045C18.9681 10.7186 18.9095 10.7411 18.8594 10.7719C18.8093 10.8027 18.7704 10.8444 18.7427 10.897C18.7149 10.9483 18.7011 11.0125 18.7011 11.0895C18.7011 11.2012 18.7293 11.2865 18.7856 11.3455C18.8429 11.4033 18.9153 11.4321 19.003 11.4321Z" fill="black"/>
</svg>
