<svg width="24" height="24" viewBox="0 0 24 24" fill="none" xmlns="http://www.w3.org/2000/svg">
<g clip-path="url(#clip0_672_277057)">
<path d="M8.80725 12.1429H10.5488M8.80725 9.28378H10.5488M13.4513 12.1429H15.1928M13.4513 9.28378H15.1928" stroke="black" stroke-width="0.5" stroke-miterlimit="22.9256" stroke-linecap="round" stroke-linejoin="round"/>
<path d="M8.90256 15.0022H15.0022" stroke="black" stroke-width="0.5" stroke-miterlimit="22.9256"/>
<path fill-rule="evenodd" clip-rule="evenodd" d="M10.5704 18.862H13.4296V21.1017L15.3764 21.7507C15.9308 21.9354 16.2888 22.4321 16.2888 23.0165V23.4844H7.71121V23.0165C7.71121 22.4321 8.06915 21.9354 8.62354 21.7507L10.5704 21.1017V18.862ZM12 6.47227C13.8609 6.47227 15.3833 7.99477 15.3833 9.85561V15.3833C15.3833 17.2442 13.8608 18.7667 12 18.7667C10.1391 18.7667 8.61665 17.2442 8.61665 15.3833V9.85561C8.61665 7.99477 10.1391 6.47227 12 6.47227Z" stroke="black" stroke-width="0.5" stroke-miterlimit="22.9256" stroke-linecap="round" stroke-linejoin="round"/>
<path d="M22.1853 8.06658L21.8924 8.16572C20.8764 8.50973 19.7938 8.14059 19.1996 7.24753C17.6485 4.91625 14.9871 3.37481 12 3.37481C9.01246 3.37481 6.35071 4.91667 4.79966 7.24842C4.20444 8.14326 3.11854 8.51217 2.10144 8.16506L1.80121 8.06259" stroke="black" stroke-width="0.5" stroke-miterlimit="22.9256"/>
<path d="M0.515625 18.0042V11.9524C0.515625 5.66212 5.68359 0.515625 12 0.515625C18.3164 0.515625 23.4844 5.66217 23.4844 11.9523V18.0042" stroke="black" stroke-width="0.5" stroke-miterlimit="22.9256"/>
<path d="M4.23258 13.0007V23.1473M19.7674 13.0007V23.1473M4.23258 22.5278C2.12573 22.1431 0.515625 20.2875 0.515625 18.074C0.515625 15.8604 2.12573 14.0048 4.23258 13.6202V22.5278ZM19.7674 22.5278C21.8743 22.1431 23.4844 20.2875 23.4844 18.074C23.4844 15.8604 21.8743 14.0048 19.7674 13.6202V22.5278Z" stroke="black" stroke-width="0.5" stroke-miterlimit="22.9256" stroke-linecap="round" stroke-linejoin="round"/>
</g>
<defs>
<clipPath id="clip0_672_277057">
<rect width="24" height="24" fill="white"/>
</clipPath>
</defs>
</svg>
