<svg width="24" height="24" viewBox="0 0 24 24" fill="none" xmlns="http://www.w3.org/2000/svg">
<g clip-path="url(#clip0_672_277006)">
<path d="M24 10.6406V3.32812H18.7266V0H13.2656C12.6454 0 12.2465 0.205406 12 0.469734C11.7535 0.205406 11.3546 0 10.7344 0H5.27344V3.32812H0V10.6406H1.10156V23.2969H0V24H24V23.2969H22.8984V10.6406H24ZM12.4539 1.03387C12.8134 0.474703 13.5485 0.794859 18.0234 0.703125V6C13.3777 6.10191 13.0432 5.75752 12.3516 6.33764C12.3595 0.954985 12.3015 1.27106 12.4539 1.03387ZM5.97656 0.703125H10.7344C11.584 0.703125 11.645 1.23103 11.6484 1.33973V6.33769C10.9518 5.75339 10.4855 6.09895 5.97656 6.00005V0.703125ZM5.97656 6.70312H10.7344C11.3282 6.70312 11.5275 7.37484 11.5993 7.5H12.4007C12.4728 7.37442 12.6723 6.70312 13.2656 6.70312H18.0234V7.6875H13.2656C12.7541 7.6875 12.3048 7.95412 12 8.42887C11.6952 7.95412 11.2459 7.6875 10.7344 7.6875H5.97656V6.70312ZM11.6484 23.2969H6.91406V13.2656H11.6484V23.2969ZM17.0859 23.2969H12.3516V13.2656H17.0859V23.2969ZM22.1953 23.2969H17.7891V12.5625H6.21094V23.2969H1.80469V10.6406H22.1953V23.2969ZM0.703125 9.9375V9.23438H4.10156V8.53125H0.703125V5.39062H4.10156V4.6875H0.703125V4.03125H5.27344V8.39062H10.7344C11.3282 8.39062 11.5275 9.06234 11.5993 9.1875H12.4007C12.4728 9.06192 12.6723 8.39062 13.2656 8.39062H18.7266V4.03125H23.2969V4.6875H19.8984V5.39062H23.2969V8.53125H19.8984V9.23438H23.2969V9.9375H0.703125Z" fill="black"/>
<path d="M13.0547 16.6641H13.7578V19.4766H13.0547V16.6641ZM10.2422 16.6641H10.9453V19.4766H10.2422V16.6641ZM5.36719 12.5625H2.46094V22.4062H5.36719V12.5625ZM4.66406 21.7031H3.16406V13.2656H4.66406V21.7031ZM21.5391 12.5625H18.6328V22.4062H21.5391V12.5625ZM20.8359 21.7031H19.3359V13.2656H20.8359V21.7031Z" fill="black"/>
</g>
<defs>
<clipPath id="clip0_672_277006">
<rect width="24" height="24" fill="white"/>
</clipPath>
</defs>
</svg>
