<svg width="24" height="24" viewBox="0 0 24 24" fill="none" xmlns="http://www.w3.org/2000/svg">
<path d="M10.5591 11.0887V4.99611H13.4541V11.0887" stroke="black" stroke-width="0.5" stroke-miterlimit="10" stroke-linecap="round" stroke-linejoin="round"/>
<path fill-rule="evenodd" clip-rule="evenodd" d="M9.47352 6.92722H14.5397C14.9377 6.92722 15.2634 7.253 15.2634 7.65096V10.5459C15.2634 10.9439 14.9376 11.2696 14.5397 11.2696H9.47352C9.07556 11.2696 8.74979 10.944 8.74979 10.5459V7.65096C8.74979 7.2529 9.07542 6.92722 9.47352 6.92722Z" stroke="black" stroke-width="0.5" stroke-miterlimit="22.9256" stroke-linecap="round" stroke-linejoin="round"/>
<path d="M12.9719 19.2885C16.2659 19.4348 18.7981 20.3138 18.7981 21.3767C18.7981 22.5417 15.7544 23.4864 12 23.4864C8.24559 23.4864 5.20193 22.5417 5.20193 21.3766C5.20193 20.3138 7.73407 19.4347 11.0281 19.2884" stroke="black" stroke-width="0.5" stroke-miterlimit="10" stroke-linejoin="round"/>
<path d="M12 14.5786C15.2366 14.5786 17.8604 11.9548 17.8604 8.71816C17.8604 5.48156 15.2366 2.85777 12 2.85777C8.7634 2.85777 6.13962 5.48156 6.13962 8.71816C6.13962 11.9548 8.7634 14.5786 12 14.5786Z" stroke="black" stroke-width="0.5" stroke-miterlimit="10" stroke-linecap="round" stroke-linejoin="round"/>
<path d="M20.1577 8.67128C20.1577 4.16591 16.5054 0.513618 12 0.513618C7.49464 0.513618 3.84235 4.16591 3.84235 8.67128C3.84235 12.2193 6.10811 15.2369 9.27116 16.3597L12 20.9078L14.7289 16.3597C17.8919 15.2369 20.1577 12.2194 20.1577 8.67128Z" stroke="black" stroke-width="0.5" stroke-miterlimit="10" stroke-linecap="round" stroke-linejoin="round"/>
</svg>
