<svg width="24" height="24" viewBox="0 0 24 24" fill="none" xmlns="http://www.w3.org/2000/svg">
<g clip-path="url(#clip0_672_276994)">
<path d="M3.97484 9.34129V1.83095H20.0251V3.82599V9.24392M20.0251 13.0687V16.6726C20.0251 16.7622 19.9896 16.8481 19.9262 16.9114C19.8629 16.9748 19.777 17.0103 19.6874 17.0103H4.31259C4.22302 17.0103 4.13711 16.9748 4.07377 16.9114C4.01043 16.8481 3.97484 16.7622 3.97484 16.6726V13.0667M2.67237 23.6484V12.4917M3.36057 12.4917H2.20925C2.14955 12.4917 2.0923 12.468 2.05009 12.4258C2.00788 12.3836 1.98416 12.3263 1.98416 12.2667V10.057C1.98416 9.99728 2.00788 9.94003 2.05009 9.89781C2.0923 9.8556 2.14955 9.83189 2.20925 9.83189H3.36057V12.4917Z" stroke="black" stroke-width="0.5" stroke-miterlimit="10" stroke-linecap="round" stroke-linejoin="round"/>
<path d="M0.650086 23.6484L2.67237 17.6124L4.6946 23.6484M21.3277 23.6484V12.4917M20.6395 12.4917H21.7908C21.8505 12.4917 21.9077 12.468 21.95 12.4258C21.9922 12.3836 22.0159 12.3263 22.0159 12.2666V10.057C22.0159 9.99727 21.9922 9.94002 21.95 9.89781C21.9077 9.8556 21.8505 9.83188 21.7908 9.83188H20.6395V12.4917ZM20.6395 12.4917V9.82949L17.5188 7.34939C17.3449 7.21113 17.0882 7.335 17.0882 7.55718V14.764C17.0882 14.9862 17.3449 15.1101 17.5188 14.9718L20.6395 12.4917ZM23.3499 23.6484L21.3277 17.6124L19.3054 23.6484M6.17903 14.7317L6.4812 14.9718C6.65514 15.1101 6.91178 14.9862 6.91178 14.764V7.55718C6.91178 7.335 6.65514 7.21113 6.4812 7.34939L3.36053 9.82949V12.4917L6.17903 14.7317ZM1.98411 12.0027H1.19581C0.731336 12.0027 0.354813 11.6262 0.354813 11.1617C0.354813 10.6973 0.731336 10.3207 1.19581 10.3207H1.98411V12.0027ZM22.0159 12.0027H22.8042C23.2687 12.0027 23.6452 11.6262 23.6452 11.1617C23.6452 10.6973 23.2687 10.3207 22.8042 10.3207H22.0159V12.0027ZM20.6188 1.83113H3.38125C3.33708 1.83114 3.29335 1.82244 3.25255 1.80555C3.21174 1.78865 3.17467 1.76388 3.14344 1.73265C3.11221 1.70142 3.08744 1.66434 3.07054 1.62354C3.05364 1.58273 3.04495 1.539 3.04495 1.49484V0.68792C3.04495 0.643756 3.05364 0.600022 3.07054 0.559218C3.08744 0.518414 3.11221 0.481338 3.14344 0.450109C3.17467 0.41888 3.21174 0.394108 3.25255 0.37721C3.29335 0.360312 3.33708 0.351617 3.38125 0.351624H20.6188C20.663 0.351617 20.7067 0.360312 20.7475 0.37721C20.7883 0.394108 20.8254 0.41888 20.8566 0.450109C20.8878 0.481338 20.9126 0.518414 20.9295 0.559218C20.9464 0.600022 20.9551 0.643756 20.9551 0.68792V1.49488C20.9551 1.58407 20.9196 1.66959 20.8566 1.73265C20.7935 1.79571 20.708 1.83113 20.6188 1.83113Z" stroke="black" stroke-width="0.5" stroke-miterlimit="10" stroke-linecap="round" stroke-linejoin="round"/>
</g>
<defs>
<clipPath id="clip0_672_276994">
<rect width="24" height="24" fill="white"/>
</clipPath>
</defs>
</svg>
