<svg width="24" height="24" viewBox="0 0 24 24" fill="none" xmlns="http://www.w3.org/2000/svg">
<g clip-path="url(#clip0_672_276998)">
<path d="M0 10.0724H24M1.14197 23.9851V10.0724H22.9323V23.9851M9.4538 7.2607C9.4538 6.74874 9.72708 6.33338 10.2337 6.32409L4.3913 6.3232C3.87352 6.3232 3.4538 6.74292 3.4538 7.2607C3.4538 7.77849 3.87352 8.1982 4.3913 8.1982L10.2337 8.19731C9.72708 8.18808 9.4538 7.77267 9.4538 7.2607ZM7.5788 5.3857C7.5788 4.87374 7.85208 4.45838 8.3587 4.44909L2.5163 4.4482C1.99852 4.4482 1.5788 4.86792 1.5788 5.3857C1.5788 5.90349 1.99852 6.3232 2.5163 6.3232L8.3587 6.32231C7.85208 6.31308 7.5788 5.89767 7.5788 5.3857ZM8.5163 9.1357C8.5163 8.62374 8.78958 8.20838 9.2962 8.19909L3.4538 8.1982C2.93602 8.1982 2.5163 8.61792 2.5163 9.1357C2.5163 9.65349 2.93602 10.0723 3.4538 10.0723H9.2962C8.78958 10.0631 8.5163 9.64767 8.5163 9.1357Z" stroke="black" stroke-width="0.5" stroke-miterlimit="10"/>
<path d="M5.64093 13.5131H4.23468V21.9506H10.3284L10.3779 22.0496C10.5039 22.3016 10.6975 22.5135 10.9372 22.6616C11.1768 22.8097 11.453 22.8882 11.7347 22.8882C12.0164 22.8882 12.2925 22.8097 12.5322 22.6616C12.7718 22.5135 12.9655 22.3016 13.0914 22.0496L13.1409 21.9506H19.2347V13.5131H17.8284" stroke="black" stroke-width="0.5" stroke-miterlimit="10"/>
<path d="M7.04718 14.4975H10.3284M7.04718 15.9037H8.45343M5.64093 12.1069H9.85968C10.8952 12.1069 11.7347 12.9464 11.7347 13.9819V20.5444H5.64093V12.1069Z" stroke="black" stroke-width="0.5" stroke-miterlimit="10"/>
<path d="M5.64093 18.6694H9.85968C10.8952 18.6694 11.7347 19.5089 11.7347 20.5444M11.7347 20.5444H17.8284V12.1069H13.6097C12.5742 12.1069 11.7347 12.9464 11.7347 13.9819V20.5444Z" stroke="black" stroke-width="0.5" stroke-miterlimit="10"/>
<path d="M17.8284 18.6694H13.6097C12.5742 18.6694 11.7347 19.5089 11.7347 20.5444M13.1409 14.4975H16.4222M13.1409 15.9038H14.5472M9.15656 15.9038H9.85968M15.2972 15.9038H16.0003M16.9835 8.0461V7.34297C16.9835 6.95466 17.2983 6.63985 17.6866 6.63985H20.8928C21.2811 6.63985 21.5959 6.95466 21.5959 7.34297V8.0461M18.5865 6.63985V3.68869C18.5865 3.30038 18.9014 2.98557 19.2897 2.98557C19.678 2.98557 19.9928 3.30038 19.9928 3.68869V6.6398M11.987 8.0461H22.9323V10.0724H11.987V8.0461Z" stroke="black" stroke-width="0.5" stroke-miterlimit="10"/>
<path d="M19.9928 5.23346H22.2194C22.6075 5.23346 22.9225 4.91892 22.9225 4.53033V1.06955C22.9225 0.681425 22.6075 0.366425 22.2194 0.366425H16.36C15.9719 0.366425 15.6569 0.681425 15.6569 1.06955V4.53033C15.6569 4.91892 15.9719 5.23346 16.36 5.23346H18.5865M12.8203 8.0461V5.5156M11.3303 4.10935H14.3103V5.5156H11.3303V4.10935Z" stroke="black" stroke-width="0.5" stroke-miterlimit="10"/>
</g>
<defs>
<clipPath id="clip0_672_276998">
<rect width="24" height="24" fill="white"/>
</clipPath>
</defs>
</svg>
