<svg width="24" height="24" viewBox="0 0 24 24" fill="none" xmlns="http://www.w3.org/2000/svg">
<g clip-path="url(#clip0_672_277102)">
<path d="M13.028 9.36708C11.0755 7.82283 8.89584 7.71591 7.61629 8.99546C7.26047 9.35128 7.02454 9.79332 6.90248 10.2881C6.70218 11.1002 6.01125 11.6957 5.17598 11.7396C3.95222 11.8039 2.80087 12.2657 1.92539 13.1412C-0.183471 15.25 0.106825 18.9594 2.57372 21.4263C4.42387 23.2764 6.97293 23.9023 9.02151 23.2099C9.02151 23.2099 10.9582 22.6498 11.9744 20.2942C12.246 19.6645 12.2962 18.9488 12.2611 18.2371C12.2344 17.6972 12.6426 17.2284 13.1813 17.1834C13.8908 17.1242 14.5257 16.8625 15.0045 16.3837C15.8076 15.5807 16.0001 14.3385 15.6505 13.042C14.3446 13.6205 13.2981 13.841 12.5221 13.0651" stroke="black" stroke-width="0.5" stroke-miterlimit="10" stroke-linecap="round" stroke-linejoin="round"/>
<path d="M7.82101 13.6252L10.3747 16.179L8.77859 17.7751L6.22489 15.2213L7.82101 13.6252Z" stroke="black" stroke-width="0.5" stroke-miterlimit="10" stroke-linecap="round" stroke-linejoin="round"/>
<path d="M17.6225 4.7723L8.29529 14.0998M19.2218 6.37003L9.89138 15.6959M22.3395 3.78492L23.2881 4.73644M23.4844 4.54012L23.0918 4.93275M20.2091 1.66059L19.2636 0.711937M19.4599 0.515625L19.0673 0.90825M20.6938 5.74767L21.4771 6.54741M21.6734 6.35109L21.2807 6.74372M18.2523 3.32414L17.4526 2.52295M17.6489 2.32659L17.2563 2.71927M5.33368 17.5225L6.47752 18.6664M15.8173 6.73664L17.2663 8.20758M13.9869 8.604L15.4009 10.0286M12.0853 10.4596L13.5167 11.8911M10.2734 12.351L11.6588 13.7261M23.1687 2.75723L21.2428 0.831328C21.2401 0.828656 21.2356 0.828703 21.2321 0.831469L18.3532 3.14241L17.4577 4.60706L19.3929 6.5423L20.8576 5.64684L23.1685 2.76787C23.1713 2.76445 23.1714 2.75991 23.1687 2.75723Z" stroke="black" stroke-width="0.5" stroke-miterlimit="10" stroke-linecap="round" stroke-linejoin="round"/>
<path d="M17.3151 22.6498C17.9965 22.6498 18.5489 22.0974 18.5489 21.4159C18.5489 20.7345 17.9965 20.1821 17.3151 20.1821C16.6336 20.1821 16.0812 20.7345 16.0812 21.4159C16.0812 22.0974 16.6336 22.6498 17.3151 22.6498Z" stroke="black" stroke-width="0.5" stroke-miterlimit="10" stroke-linecap="round" stroke-linejoin="round"/>
<path d="M23.4522 20.1845C23.6088 19.5213 23.1981 18.8567 22.5349 18.7001C21.8717 18.5435 21.2071 18.9542 21.0505 19.6174C20.8939 20.2805 21.3046 20.9451 21.9678 21.1017C22.631 21.2583 23.2956 20.8477 23.4522 20.1845Z" stroke="black" stroke-width="0.5" stroke-miterlimit="10" stroke-linecap="round" stroke-linejoin="round"/>
<path d="M18.549 21.4159V15.7996L23.4844 14.2818V19.8982M18.549 18.028L23.4844 16.5102M5.11585 4.18149L3.05692 0.615284L3.42493 0.55908C4.12308 0.452487 4.83712 0.542812 5.48673 0.819893" stroke="black" stroke-width="0.5" stroke-miterlimit="10" stroke-linecap="round" stroke-linejoin="round"/>
<path d="M5.10252 5.88445C5.57915 5.08797 5.31985 4.05591 4.52337 3.57928C3.72689 3.10265 2.69483 3.36195 2.2182 4.15843C1.74158 4.95491 2.00087 5.98697 2.79735 6.4636C3.59383 6.94022 4.62589 6.68093 5.10252 5.88445Z" stroke="black" stroke-width="0.5" stroke-miterlimit="10" stroke-linecap="round" stroke-linejoin="round"/>
</g>
<defs>
<clipPath id="clip0_672_277102">
<rect width="24" height="24" fill="white"/>
</clipPath>
</defs>
</svg>
