<svg width="24" height="24" viewBox="0 0 24 24" fill="none" xmlns="http://www.w3.org/2000/svg">
<path d="M21.3644 22.5937H2.63575C2.57444 22.5937 2.51566 22.5693 2.4723 22.526C2.42893 22.4827 2.40454 22.4239 2.40446 22.3626V18.0474C2.40446 16.0037 4.06678 14.3409 6.11097 14.3409H9.62757V12.2968C9.62757 12.2355 9.65193 12.1767 9.69531 12.1333C9.73868 12.0899 9.79751 12.0655 9.85885 12.0655C9.92019 12.0655 9.97902 12.0899 10.0224 12.1333C10.0658 12.1767 10.0901 12.2355 10.0901 12.2968V14.5722C10.0901 14.6999 9.98646 14.8034 9.85885 14.8034H6.11097C4.32228 14.8034 2.86703 16.2587 2.86703 18.0474V22.1312H21.1331V18.0474C21.1331 16.2587 19.6777 14.8034 17.8886 14.8034H14.1411C14.0798 14.8034 14.021 14.7791 13.9776 14.7357C13.9343 14.6924 13.9099 14.6336 13.9099 14.5723V12.2968C13.9099 12.2355 13.9342 12.1767 13.9776 12.1333C14.021 12.0899 14.0798 12.0655 14.1411 12.0655C14.2025 12.0655 14.2613 12.0899 14.3047 12.1333C14.3481 12.1767 14.3724 12.2355 14.3724 12.2968V14.3409H17.8886C19.9327 14.3409 21.5955 16.0039 21.5955 18.0475V22.3625C21.5955 22.4902 21.492 22.5937 21.3644 22.5937Z" fill="black"/>
<path d="M6.58986 22.5937C6.55953 22.5937 6.5295 22.5877 6.50149 22.5761C6.47348 22.5645 6.44803 22.5474 6.4266 22.526C6.40518 22.5045 6.38819 22.479 6.37661 22.451C6.36503 22.423 6.35909 22.3929 6.35913 22.3626V18.7542C6.35913 18.693 6.38347 18.6342 6.42679 18.5909C6.47011 18.5476 6.52887 18.5232 6.59014 18.5232C6.65141 18.5232 6.71016 18.5476 6.75349 18.5909C6.79681 18.6342 6.82115 18.693 6.82115 18.7542V22.3625C6.82116 22.3928 6.8152 22.4229 6.80359 22.451C6.79198 22.479 6.77496 22.5045 6.75349 22.526C6.73203 22.5475 6.70654 22.5645 6.67849 22.5761C6.65043 22.5878 6.62023 22.5937 6.58986 22.5937ZM17.4097 22.5937C17.3484 22.5937 17.2896 22.5693 17.2463 22.526C17.2029 22.4827 17.1785 22.4239 17.1784 22.3626V18.7542C17.1784 18.6929 17.2028 18.6341 17.2462 18.5907C17.2895 18.5473 17.3484 18.5229 17.4097 18.5229C17.471 18.5229 17.5299 18.5473 17.5732 18.5907C17.6166 18.6341 17.641 18.6929 17.641 18.7542V22.3625C17.641 22.4902 17.5375 22.5937 17.4097 22.5937Z" fill="black"/>
<path d="M16.5409 5.77532C16.4796 5.77532 16.4207 5.75095 16.3774 5.70758C16.334 5.66421 16.3096 5.60538 16.3096 5.54404V4.56395C16.3096 3.07784 15.1006 1.86882 13.6145 1.86882H10.3857C8.89954 1.86882 7.69052 3.07784 7.69052 4.56395V5.5439C7.68846 5.60386 7.6632 5.66067 7.62007 5.70236C7.57693 5.74406 7.51929 5.76737 7.4593 5.76739C7.39931 5.76741 7.34166 5.74413 7.2985 5.70246C7.25534 5.66079 7.23004 5.60399 7.22795 5.54404V4.56395C7.22795 2.82302 8.64417 1.40625 10.3857 1.40625H13.6146C15.3556 1.40625 16.7722 2.82302 16.7722 4.56395V5.5439C16.7722 5.67165 16.6687 5.77532 16.5409 5.77532ZM11.9998 13.0514C10.6661 13.0514 9.44501 12.5316 8.56223 11.5876C7.70159 10.6677 7.22795 9.42397 7.22795 8.08637C7.22795 8.02503 7.25232 7.9662 7.29569 7.92282C7.33907 7.87945 7.39789 7.85508 7.45924 7.85508C7.52058 7.85508 7.5794 7.87945 7.62278 7.92282C7.66615 7.9662 7.69052 8.02503 7.69052 8.08637C7.69052 10.6532 9.54329 12.5889 11.9998 12.5889C14.4569 12.5889 16.3096 10.6532 16.3096 8.08637C16.3096 8.02503 16.334 7.9662 16.3774 7.92282C16.4207 7.87945 16.4796 7.85508 16.5409 7.85508C16.6023 7.85508 16.6611 7.87945 16.7045 7.92282C16.7478 7.9662 16.7722 8.02503 16.7722 8.08637C16.7722 9.42397 16.298 10.6677 15.4374 11.5876C14.5547 12.5316 13.3341 13.0514 11.9998 13.0514Z" fill="black"/>
<path d="M10.9995 5.41919H10.9956C10.9343 5.4181 10.8759 5.39273 10.8332 5.34865C10.7906 5.30457 10.7672 5.24537 10.7681 5.18403L10.8298 1.6338C10.8306 1.57306 10.8554 1.51511 10.8987 1.47251C10.942 1.42991 11.0004 1.4061 11.0611 1.40625H11.065C11.1263 1.40738 11.1847 1.43278 11.2273 1.47689C11.2699 1.521 11.2933 1.58021 11.2924 1.64155L11.2308 5.19178C11.2298 5.25246 11.205 5.31032 11.1617 5.35287C11.1185 5.39541 11.0602 5.41924 10.9995 5.41919ZM13.0001 5.41919C12.9395 5.41902 12.8814 5.39513 12.8381 5.35262C12.7949 5.31011 12.7701 5.25238 12.7689 5.19178L12.7075 1.64155C12.707 1.61118 12.7125 1.581 12.7236 1.55274C12.7348 1.52448 12.7514 1.4987 12.7725 1.47686C12.7936 1.45502 12.8188 1.43756 12.8467 1.42547C12.8745 1.41338 12.9045 1.40689 12.9349 1.40639H12.9388C13.0646 1.40639 13.1677 1.50715 13.1701 1.6338L13.2312 5.18417C13.2318 5.21453 13.2263 5.24469 13.2152 5.27295C13.2041 5.3012 13.1876 5.32699 13.1665 5.34884C13.1454 5.37069 13.1202 5.38818 13.0924 5.4003C13.0645 5.41241 13.0346 5.41893 13.0042 5.41947H13.0001V5.41919Z" fill="black"/>
<path d="M7.36234 7.51971C7.36234 7.5438 7.36953 7.65743 7.49867 7.80401C7.70975 8.04388 8.33716 8.46312 10.1631 8.5726C10.4078 8.58741 10.4218 8.57537 10.5301 8.48153C10.5682 8.44873 10.6154 8.40734 10.6771 8.36056C11.1098 8.03391 12.8898 8.03391 13.3226 8.36056C13.3849 8.4072 13.4319 8.44873 13.47 8.48153C13.5784 8.57537 13.5918 8.58755 13.8372 8.5726C15.7068 8.46022 16.3226 8.02657 16.523 7.7784C16.6393 7.63446 16.6388 7.52497 16.6388 7.52401C16.6369 7.51238 16.6359 7.50063 16.6359 7.48885V5.84273C16.6267 5.8264 16.5747 5.78252 16.4667 5.76522C13.5086 5.2819 10.4916 5.2819 7.53341 5.76522C7.42504 5.78252 7.37285 5.8264 7.36386 5.84273V7.48885C7.36386 7.50518 7.3651 7.50615 7.36234 7.51971ZM10.2791 9.03891C10.2357 9.03891 10.188 9.03753 10.1355 9.03476C8.57384 8.94064 7.55846 8.61593 7.11707 8.06865C6.89977 7.79958 6.89548 7.55875 6.90115 7.47874V5.83941C6.90115 5.57643 7.12538 5.36286 7.45922 5.30846C10.4665 4.81746 13.5336 4.81746 16.5409 5.30846C16.8745 5.36286 17.0984 5.57629 17.0984 5.83941V7.47874C17.1042 7.55875 17.1004 7.79958 16.8831 8.06851C16.4417 8.61593 15.4259 8.94064 13.8646 9.03462C13.471 9.05815 13.3552 8.9942 13.167 8.83129C13.1272 8.7959 13.0862 8.76197 13.044 8.72956C12.9659 8.67074 12.6132 8.57731 11.9998 8.57731C11.3863 8.57731 11.0341 8.67088 10.9562 8.72956C10.9065 8.76721 10.8694 8.79946 10.8327 8.83129C10.6699 8.97247 10.5614 9.03891 10.2791 9.03891Z" fill="black"/>
<path d="M17.1466 7.82518H16.8623C16.801 7.82518 16.7421 7.80082 16.6988 7.75744C16.6554 7.71407 16.631 7.65524 16.631 7.5939C16.631 7.53256 16.6554 7.47373 16.6988 7.43036C16.7421 7.38698 16.801 7.36262 16.8623 7.36262H17.1466C17.231 7.36243 17.3118 7.32881 17.3714 7.26911C17.4311 7.20941 17.4646 7.1285 17.4647 7.04413V6.51111C17.4646 6.42678 17.4311 6.34592 17.3714 6.28629C17.3118 6.22665 17.2309 6.19312 17.1466 6.19304H16.8671C16.8072 6.19097 16.7504 6.16569 16.7087 6.12255C16.667 6.0794 16.6437 6.02175 16.6437 5.96176C16.6437 5.90177 16.667 5.84412 16.7087 5.80097C16.7504 5.75783 16.8072 5.73255 16.8671 5.73048H17.1466C17.3535 5.73077 17.5519 5.81311 17.6983 5.95944C17.8446 6.10578 17.9269 6.30416 17.9272 6.51111V7.04399C17.9271 7.25104 17.8448 7.44957 17.6985 7.59602C17.5521 7.74248 17.3536 7.82489 17.1466 7.82518ZM7.13784 7.82518H6.85354C6.64652 7.82489 6.44807 7.74249 6.30173 7.59607C6.15538 7.44965 6.07309 7.25115 6.07291 7.04413V6.51111C6.07291 6.08066 6.42309 5.73048 6.85354 5.73048H7.13244C7.1924 5.73255 7.2492 5.75783 7.29088 5.80097C7.33256 5.84412 7.35586 5.90177 7.35586 5.96176C7.35586 6.02175 7.33256 6.0794 7.29088 6.12255C7.2492 6.16569 7.1924 6.19097 7.13244 6.19304H6.85354C6.76921 6.19312 6.68835 6.22665 6.62872 6.28629C6.56908 6.34592 6.53555 6.42678 6.53547 6.51111V7.04399C6.53551 7.12839 6.56902 7.20933 6.62864 7.26906C6.68827 7.32879 6.76915 7.36243 6.85354 7.36262H7.13784C7.19918 7.36262 7.25801 7.38698 7.30138 7.43036C7.34476 7.47373 7.36912 7.53256 7.36912 7.5939C7.36912 7.65524 7.34476 7.71407 7.30138 7.75744C7.25801 7.80082 7.19918 7.82518 7.13784 7.82518Z" fill="black"/>
<path d="M11.9998 15.8626C11.2263 15.8626 10.451 15.4839 9.69594 14.7364C9.65238 14.6932 9.62776 14.6345 9.6275 14.5731C9.62724 14.5118 9.65136 14.4528 9.69456 14.4092C9.7159 14.3877 9.74128 14.3705 9.76926 14.3588C9.79723 14.347 9.82725 14.3409 9.85759 14.3408C9.88794 14.3407 9.918 14.3465 9.94608 14.358C9.97415 14.3695 9.99968 14.3865 10.0212 14.4079C11.3527 15.7253 12.6469 15.7253 13.9784 14.4079C13.9997 14.3854 14.0253 14.3675 14.0537 14.3551C14.0821 14.3427 14.1127 14.3362 14.1437 14.3359C14.1746 14.3356 14.2054 14.3415 14.234 14.3532C14.2627 14.365 14.2886 14.3824 14.3104 14.4044C14.3322 14.4264 14.3494 14.4526 14.3609 14.4814C14.3723 14.5101 14.3779 14.5409 14.3773 14.5719C14.3767 14.6028 14.3698 14.6334 14.3572 14.6616C14.3445 14.6899 14.3263 14.7153 14.3036 14.7364C13.5485 15.4839 12.7732 15.8626 11.9998 15.8626Z" fill="black"/>
</svg>
