<svg width="126" height="125" viewBox="0 0 126 125" fill="none" xmlns="http://www.w3.org/2000/svg">
<path d="M22.3454 100.545C44.9529 112.162 81.5954 112.162 104.208 100.545C126.82 88.9274 126.815 70.0899 104.208 58.4699C81.6004 46.8499 44.9579 46.8524 22.3454 58.4699C-0.267109 70.0874 -0.249609 88.9274 22.3454 100.545Z" fill="#F5F5F5"/>
<path d="M21.9481 85.1526L49.2306 100.903C49.5661 101.073 49.937 101.161 50.3131 101.161C50.6893 101.161 51.0602 101.073 51.3956 100.903L103.053 71.0751C103.651 70.7301 103.651 70.1701 103.053 69.8251L75.7681 54.0751C75.4327 53.9049 75.0618 53.8162 74.6856 53.8162C74.3095 53.8162 73.9386 53.9049 73.6031 54.0751L21.9481 83.9026C21.3506 84.2501 21.3506 84.8076 21.9481 85.1526Z" fill="#37474F"/>
<path d="M36.6928 92.4701C37.1578 92.7056 37.6716 92.8283 38.1928 92.8283C38.714 92.8283 39.2279 92.7056 39.6928 92.4701C40.5228 91.9901 40.5228 91.2201 39.6928 90.7351C39.2279 90.4997 38.714 90.377 38.1928 90.377C37.6716 90.377 37.1578 90.4997 36.6928 90.7351C35.8628 91.2151 35.8628 92.0001 36.6928 92.4701Z" fill="#263238"/>
<path d="M49.2302 100.905L21.9477 85.155C21.4127 84.8475 21.3577 84.3675 21.7777 84.0225C21.5111 84.2336 21.292 84.4985 21.1348 84.8001C20.9775 85.1017 20.8857 85.433 20.8652 85.7725V86.79C20.8854 87.1656 20.9939 87.5313 21.182 87.8571C21.3701 88.1829 21.6325 88.4597 21.9477 88.665L49.2302 104.415C49.5641 104.589 49.9366 104.675 50.3127 104.665V101.162C49.9359 101.17 49.5634 101.081 49.2302 100.905Z" fill="#455A64"/>
<path d="M103.052 74.5925C103.367 74.3869 103.63 74.11 103.818 73.7843C104.006 73.4585 104.114 73.093 104.135 72.7175V71.7C104.114 71.3604 104.022 71.029 103.864 70.7275C103.706 70.426 103.487 70.161 103.22 69.95C103.643 70.295 103.587 70.775 103.052 71.085L51.395 100.905C51.0614 101.079 50.6887 101.165 50.3125 101.155V104.675C50.6887 104.685 51.0614 104.599 51.395 104.425L103.052 74.5925Z" fill="#263238"/>
<path d="M53.728 97.6401L27.978 82.7701C27.618 82.5626 27.618 82.2276 27.978 82.0201L70.333 57.5526C70.5344 57.4503 70.7571 57.397 70.983 57.397C71.2089 57.397 71.4316 57.4503 71.633 57.5526L97.3955 72.4201C97.7555 72.6251 97.7555 72.9626 97.3955 73.1701L55.0255 97.6401C54.8246 97.7424 54.6023 97.7958 54.3768 97.7958C54.1513 97.7958 53.929 97.7424 53.728 97.6401Z" fill="#FAFAFA"/>
<path d="M47.0304 77.6326L62.2629 86.4251L52.6479 91.9776C52.4798 92.0614 52.2945 92.1051 52.1066 92.1051C51.9188 92.1051 51.7335 92.0614 51.5654 91.9776L37.4154 83.8076C37.3501 83.7854 37.2933 83.7434 37.2532 83.6873C37.213 83.6313 37.1914 83.564 37.1914 83.4951C37.1914 83.4261 37.213 83.3589 37.2532 83.3028C37.2933 83.2468 37.3501 83.2047 37.4154 83.1826L47.0304 77.6326Z" fill="#E6E6E6"/>
<path d="M62.2505 86.4251L60.4555 79.2901C60.4147 79.1198 60.32 78.9672 60.1855 78.8551C60.0494 78.7395 59.8808 78.6688 59.703 78.6526L47.0205 77.6326L62.2505 86.4251Z" fill="#E0E0E0"/>
<path d="M62.2501 86.4251L48.6176 85.8626C48.4543 85.8561 48.2987 85.7916 48.1787 85.6807C48.0587 85.5698 47.9821 85.4199 47.9626 85.2576L47.0176 77.6301L62.2501 86.4251Z" fill="#E0E0E0"/>
<path d="M62.2501 86.4251L48.6176 85.8626C48.4543 85.8561 48.2987 85.7916 48.1787 85.6807C48.0587 85.5698 47.9821 85.4199 47.9626 85.2576L47.0176 77.6301L48.7001 85.1301C48.7152 85.1969 48.7513 85.2572 48.803 85.3021C48.8547 85.3471 48.9193 85.3744 48.9876 85.3801L62.2501 86.4251Z" fill="#FAFAFA"/>
<path d="M50.0752 85.8401L52.1077 92.2901L52.6477 91.9776L50.0752 85.8401Z" fill="#FAFAFA"/>
<path d="M36.875 83.4951L37.415 83.1826L48.045 84.6676L36.875 83.4951Z" fill="#FAFAFA"/>
<path d="M55.6956 74.4252L67.8131 81.4252C67.9809 81.5102 68.1663 81.5544 68.3544 81.5544C68.5425 81.5544 68.7279 81.5102 68.8956 81.4252L86.0931 71.5001C86.1584 71.478 86.2152 71.4359 86.2553 71.3799C86.2955 71.3238 86.3171 71.2566 86.3171 71.1876C86.3171 71.1187 86.2955 71.0515 86.2553 70.9954C86.2152 70.9394 86.1584 70.8973 86.0931 70.8751L73.9756 63.8751C73.8079 63.7901 73.6225 63.7458 73.4344 63.7458C73.2463 63.7458 73.0609 63.7901 72.8931 63.8751L55.6956 73.8002C55.6303 73.8223 55.5736 73.8644 55.5335 73.9204C55.4933 73.9765 55.4717 74.0437 55.4717 74.1127C55.4717 74.1816 55.4933 74.2488 55.5335 74.3049C55.5736 74.3609 55.6303 74.403 55.6956 74.4252Z" fill="#E6E6E6"/>
<path d="M65.3298 73.5C65.1854 73.2757 65.0999 73.0186 65.0811 72.7525C65.0623 72.4864 65.1109 72.2199 65.2223 71.9775C65.4473 71.4775 65.9373 70.9975 66.6898 70.565C67.5149 70.0799 68.4256 69.7582 69.3723 69.6175C70.2958 69.4844 71.2358 69.5183 72.1473 69.7175C73.0875 69.922 73.9895 70.2739 74.8198 70.76C75.6232 71.2217 76.1698 71.6983 76.4598 72.19C76.6015 72.3994 76.6861 72.6421 76.7054 72.8942C76.7247 73.1462 76.6779 73.399 76.5698 73.6275C76.3498 74.095 75.8873 74.5325 75.1873 74.9375C74.5162 75.3431 73.761 75.5894 72.9798 75.6575C72.3295 75.7208 71.6752 75.5866 71.1023 75.2725C70.9996 75.2279 70.9076 75.1621 70.8321 75.0794C70.7567 74.9966 70.6997 74.8989 70.6648 74.7925C70.6482 74.7005 70.6563 74.6057 70.6884 74.5178C70.7205 74.4299 70.7753 74.3522 70.8473 74.2925C70.4446 74.3253 70.0393 74.2975 69.6448 74.21C69.2582 74.1267 68.887 73.9833 68.5448 73.785C67.9682 73.4517 67.6665 73.09 67.6398 72.7C67.6132 72.31 67.889 71.9517 68.4673 71.625C69.1651 71.2158 69.9637 71.0106 70.7723 71.0325C71.5982 71.0508 72.4056 71.2806 73.1173 71.7C73.4118 71.8642 73.6744 72.0802 73.8923 72.3375C74.0655 72.528 74.1785 72.7655 74.2173 73.02L71.9673 74.325C71.7848 74.43 71.6848 74.5225 71.6698 74.6025C71.6548 74.6825 71.7198 74.7675 71.8623 74.8525C72.1736 75.0037 72.53 75.034 72.8623 74.9375C73.3519 74.823 73.8203 74.6314 74.2498 74.37C74.8148 74.045 75.1723 73.695 75.3223 73.3275C75.3975 73.1492 75.4261 72.9547 75.4056 72.7623C75.385 72.5699 75.316 72.3859 75.2048 72.2275C74.9031 71.7966 74.5017 71.4449 74.0348 71.2025C73.0755 70.6349 71.9909 70.3129 70.8773 70.265C69.7477 70.2332 68.6326 70.5265 67.6648 71.11C67.0498 71.465 66.6548 71.84 66.4798 72.235C66.3921 72.4189 66.3534 72.6223 66.3674 72.8255C66.3814 73.0288 66.4477 73.2249 66.5598 73.395C66.8627 73.8407 67.2716 74.2041 67.7498 74.4525C68.0676 74.6343 68.4025 74.7842 68.7498 74.9C69.0738 75.012 69.4092 75.0874 69.7498 75.125C69.7862 75.1279 69.8217 75.1372 69.8548 75.1525C69.8723 75.1525 69.8723 75.185 69.8548 75.2175L69.5248 75.68C69.5112 75.6979 69.4952 75.7139 69.4773 75.7275C69.4287 75.7441 69.3759 75.7441 69.3273 75.7275C68.9151 75.6755 68.5095 75.5799 68.1173 75.4425C67.7074 75.3064 67.3121 75.1297 66.9373 74.915C66.1623 74.5 65.6273 74.0125 65.3298 73.5ZM70.5423 73.7175C70.8871 73.7612 71.2368 73.6956 71.5423 73.53L72.8498 72.78C72.6949 72.5174 72.4663 72.3062 72.1923 72.1725C71.775 71.9277 71.3011 71.7959 70.8173 71.79C70.3354 71.7816 69.8606 71.9062 69.4448 72.15C69.0798 72.36 68.9023 72.5675 68.9123 72.7725C68.9123 72.9775 69.1173 73.19 69.4998 73.41C69.8206 73.5879 70.1764 73.6937 70.5423 73.72V73.7175Z" fill="#FAFAFA"/>
<path d="M87.3156 63.2251C87.4184 63.2782 87.5324 63.3059 87.6481 63.3059C87.7638 63.3059 87.8778 63.2782 87.9806 63.2251C88.0203 63.2113 88.0548 63.1855 88.0791 63.1512C88.1035 63.1169 88.1166 63.0759 88.1166 63.0339C88.1166 62.9918 88.1035 62.9508 88.0791 62.9166C88.0548 62.8823 88.0203 62.8564 87.9806 62.8426C87.8773 62.7915 87.7635 62.7649 87.6481 62.7649C87.5328 62.7649 87.419 62.7915 87.3156 62.8426C87.2759 62.8564 87.2415 62.8823 87.2171 62.9166C87.1928 62.9508 87.1797 62.9918 87.1797 63.0339C87.1797 63.0759 87.1928 63.1169 87.2171 63.1512C87.2415 63.1855 87.2759 63.2113 87.3156 63.2251Z" fill="#263238"/>
<path d="M88.375 66.2351C88.5806 66.3398 88.808 66.3944 89.0387 66.3944C89.2695 66.3944 89.4969 66.3398 89.7025 66.2351C90.07 66.0251 90.07 65.6801 89.7025 65.4701C89.4969 65.3654 89.2695 65.3108 89.0387 65.3108C88.808 65.3108 88.5806 65.3654 88.375 65.4701C88 65.6801 88 66.0251 88.375 66.2351Z" fill="#263238"/>
<path d="M87.4398 64.9026C87.6898 64.7601 87.6723 64.5251 87.4098 64.3751L83.0448 61.8526C82.9045 61.7774 82.7483 61.7369 82.5892 61.7343C82.43 61.7317 82.2725 61.7671 82.1298 61.8376C81.8798 61.9776 81.8998 62.2151 82.1598 62.3651L86.5248 64.8851C86.6654 64.9592 86.8214 64.9995 86.9803 65.0025C87.1392 65.0055 87.2965 64.9713 87.4398 64.9026Z" fill="#263238"/>
<path d="M30.8447 33.11C30.8585 32.8415 30.9358 32.5801 31.07 32.3472C31.2043 32.1143 31.3918 31.9165 31.6172 31.77L71.1747 8.93251C71.4144 8.81045 71.6795 8.74683 71.9485 8.74683C72.2174 8.74683 72.4826 8.81045 72.7222 8.93251L73.5922 9.43251C73.8173 9.57876 74.0046 9.77617 74.1389 10.0086C74.2731 10.2411 74.3505 10.502 74.3647 10.77V41.095C74.3493 41.3631 74.2715 41.6239 74.1373 41.8566C74.0032 42.0893 73.8165 42.2873 73.5922 42.435L34.0347 65.2725C33.7952 65.3934 33.5306 65.4563 33.2622 65.4563C32.9939 65.4563 32.7293 65.3934 32.4897 65.2725L31.6172 64.7725C31.3929 64.6248 31.2062 64.4268 31.0721 64.1941C30.938 63.9614 30.8601 63.7006 30.8447 63.4325V33.11Z" fill="#E74362"/>
<path opacity="0.4" d="M31.0693 32.3474L33.2643 33.6124L74.1393 10.0124C74.0091 9.77718 73.8216 9.57857 73.5943 9.43492L72.7193 8.93492C72.4801 8.81289 72.2154 8.74927 71.9468 8.74927C71.6783 8.74927 71.4136 8.81289 71.1743 8.93492L31.6193 31.7699C31.3888 31.9112 31.1992 32.1102 31.0693 32.3474Z" fill="white"/>
<path opacity="0.1" d="M30.8447 33.1075V63.4275C30.859 63.6962 30.9367 63.9577 31.0714 64.1906C31.2061 64.4234 31.394 64.6212 31.6197 64.7675L32.4897 65.2675C32.557 65.3066 32.6282 65.3385 32.7022 65.3625C32.8056 65.3966 32.9119 65.4209 33.0197 65.435C33.2229 65.4614 33.429 65.4538 33.6297 65.4125C33.6805 65.4022 33.7306 65.3888 33.7797 65.3725C33.8116 65.3639 33.8426 65.3522 33.8722 65.3375C33.8138 65.3626 33.7508 65.3755 33.6872 65.3755C33.6236 65.3755 33.5607 65.3626 33.5022 65.3375C33.4212 65.2834 33.3564 65.2083 33.3145 65.1203C33.2727 65.0322 33.2555 64.9345 33.2647 64.8375V34.5C33.257 34.3625 33.2914 34.2259 33.3633 34.1085C33.4353 33.991 33.5413 33.8982 33.6672 33.8425L33.2647 33.6075L31.0697 32.3425C30.9312 32.5744 30.8537 32.8376 30.8447 33.1075Z" fill="black"/>
<path opacity="0.2" d="M33.2647 33.6126L51.5847 40.4576C52.2183 40.6933 52.9132 40.7063 53.5552 40.4946C54.1972 40.2829 54.7481 39.859 55.1172 39.2926L58.0597 34.7926L74.2847 9.93262L58.6447 34.9551L74.3647 41.1076C74.3487 41.3822 74.2626 41.6482 74.1147 41.8801L58.6022 35.0251L55.1822 40.5001C54.8028 41.1078 54.2169 41.5581 53.5322 41.7685C52.8474 41.9788 52.1098 41.935 51.4547 41.6451L49.0222 40.5701L33.4997 65.3351C33.4187 65.281 33.3538 65.2059 33.312 65.1179C33.2702 65.0298 33.253 64.9321 33.2622 64.8351V64.3351L48.9447 40.5501L33.2647 33.6126Z" fill="black"/>
<path d="M37.7973 26.5325L35.0923 24.975L35.0673 24.96C33.8673 24.2825 32.2223 24.385 30.3998 25.435C26.7323 27.5525 23.7598 32.7025 23.7598 36.935C23.7598 39.0475 24.5098 40.535 25.6973 41.23L28.1573 42.6325L28.7448 41.65C29.414 41.4978 30.0564 41.2449 30.6498 40.9C34.3173 38.7825 37.2898 33.6325 37.2898 29.4C37.2895 28.8287 37.2198 28.2595 37.0823 27.705L37.7973 26.5325Z" fill="#37474F"/>
<path d="M32.9648 26.9126C29.2948 29.0301 26.3223 34.1801 26.3223 38.4126C26.3223 42.6451 29.2948 44.3651 32.9623 42.2476C36.6298 40.1301 39.6048 34.9776 39.6048 30.7476C39.6048 26.5176 36.6323 24.7926 32.9648 26.9126Z" fill="#455A64"/>
<path d="M30.8993 35.0849C30.8757 35.0605 30.8586 35.0305 30.8494 34.9978C30.8402 34.9651 30.8393 34.9306 30.8468 34.8974C30.8594 34.8072 30.8937 34.7214 30.9468 34.6474L32.9993 31.5999C33.0518 31.5274 33.1018 31.4549 33.1568 31.3849C33.2026 31.3195 33.2613 31.2642 33.3293 31.2224L34.0793 30.7974C34.1042 30.7789 34.134 30.7682 34.1649 30.7666C34.1958 30.7649 34.2266 30.7725 34.2533 30.7882C34.28 30.804 34.3014 30.8272 34.3149 30.8551C34.3285 30.883 34.3335 30.9142 34.3293 30.9449V37.9799C34.3253 38.0685 34.2986 38.1546 34.2518 38.2299C34.2104 38.3078 34.1492 38.3733 34.0743 38.4199L33.3093 38.8599C33.2839 38.8792 33.2536 38.8911 33.2218 38.8942C33.19 38.8972 33.158 38.8914 33.1293 38.8774C33.1031 38.8592 33.0824 38.8343 33.0692 38.8052C33.056 38.7762 33.0508 38.7441 33.0543 38.7124V33.3349L31.7168 35.3174C31.6726 35.3899 31.6084 35.4481 31.5318 35.4849C31.5041 35.4989 31.4731 35.5048 31.4422 35.5022C31.4113 35.4995 31.3817 35.4884 31.3568 35.4699L30.8993 35.0849Z" fill="#FAFAFA"/>
<path d="M92.1524 59.3325V58.885H92.2624C92.4282 58.581 92.6805 58.333 92.9874 58.1725C93.6127 57.8557 94.3039 57.6907 95.0049 57.6907C95.7059 57.6907 96.397 57.8557 97.0224 58.1725C97.3292 58.333 97.5815 58.581 97.7474 58.885H97.8574V59.3175C97.8574 59.745 97.5874 60.175 97.0224 60.5025C96.3984 60.8168 95.7094 60.9803 95.0108 60.9799C94.3122 60.9794 93.6234 60.8151 92.9999 60.5C92.4274 60.18 92.1499 59.75 92.1524 59.3325Z" fill="#263238"/>
<path d="M97.0226 57.7202C96.3976 57.4023 95.7063 57.2366 95.0051 57.2366C94.3039 57.2366 93.6126 57.4023 92.9876 57.7202C91.8726 58.3627 91.8726 59.4052 92.9876 60.0502C93.613 60.3669 94.3041 60.532 95.0051 60.532C95.7061 60.532 96.3973 60.3669 97.0226 60.0502C98.1376 59.4052 98.1376 58.3627 97.0226 57.7202Z" fill="#455A64"/>
<path d="M95.7503 41.75V58.695C95.7443 58.7596 95.7213 58.8214 95.6835 58.8742C95.6457 58.9269 95.5945 58.9686 95.5353 58.995C95.3744 59.0775 95.1961 59.1205 95.0153 59.1205C94.8344 59.1205 94.6562 59.0775 94.4953 58.995C94.436 58.9686 94.3849 58.9269 94.3471 58.8742C94.3093 58.8214 94.2862 58.7596 94.2803 58.695V41.75H95.7503Z" fill="#37474F"/>
<path d="M94.2705 43.595V44.125L95.7405 44.9725V44.445L94.2705 43.595Z" fill="#263238"/>
<path d="M103.648 37.2626L103.523 37.5126L102.178 40.2076L101.54 41.5001L99.3801 45.8326L99.1427 46.3101H99.1002C99.0132 46.313 98.9271 46.2932 98.8502 46.2526L89.2227 40.6876C89.1509 40.6422 89.0909 40.5805 89.0474 40.5075C89.004 40.4345 88.9784 40.3523 88.9727 40.2676V36.5476C88.9727 34.6926 90.1952 32.4826 91.7027 31.6126C92.4177 31.2001 93.0652 31.1676 93.5527 31.4401L103.648 37.2626Z" fill="#455A64"/>
<path d="M101.83 37.46C101.22 37.685 99.0078 39.5125 99.0078 42.3925C99.0078 44.8125 99.0078 46.0675 99.0078 46.295H99.0978H99.1403L99.3778 45.8175L101.54 41.5L102.178 40.22L102.325 39.9275L101.83 37.46Z" fill="#37474F"/>
<path d="M104.441 43.25C104.416 43.2908 104.382 43.3244 104.341 43.3475L104.316 43.3625L99.3431 46.25C99.2813 46.2829 99.213 46.3016 99.1431 46.305H99.1006V42.3925C99.1129 41.6847 99.2597 40.9856 99.5331 40.3325L99.7831 40.4725L101.546 41.49L104.281 43.0725L104.421 43.1525C104.436 43.1631 104.446 43.1792 104.45 43.1973C104.454 43.2154 104.45 43.2343 104.441 43.25Z" fill="#37474F"/>
<path d="M103.647 37.2626C103.165 37.0126 102.527 37.0551 101.83 37.4601C100.974 37.9981 100.282 38.7608 99.8298 39.6651C99.7152 39.8818 99.6126 40.1046 99.5223 40.3326C99.249 40.9857 99.1022 41.6847 99.0898 42.3926V46.3026H99.1323C99.2023 46.2992 99.2705 46.2804 99.3323 46.2476L104.302 43.3751L104.327 43.3601C104.367 43.3342 104.401 43.3012 104.427 43.2626C104.497 43.1749 104.538 43.0672 104.542 42.9551V39.2501C104.555 38.2501 104.205 37.5576 103.647 37.2626ZM104.202 43.1126L99.4523 45.8626C99.4123 45.8851 99.3798 45.8626 99.3798 45.8201V42.3926C99.3925 41.7335 99.5273 41.0825 99.7773 40.4726C99.7801 40.4593 99.7852 40.4466 99.7924 40.4351C99.8881 40.1937 99.9983 39.9583 100.122 39.7301C100.543 38.8996 101.182 38.1989 101.97 37.7026C102.275 37.5089 102.626 37.3994 102.987 37.3851C103.174 37.383 103.358 37.4277 103.522 37.5151C103.997 37.7651 104.272 38.3826 104.272 39.2401V42.9901C104.271 43.0146 104.264 43.0384 104.252 43.0596C104.24 43.0809 104.223 43.099 104.202 43.1126Z" fill="#455A64"/>
<path d="M104.275 39.2501V43.0826L99.7754 40.4826C99.7782 40.4693 99.7833 40.4567 99.7904 40.4451C100.273 39.2401 101.085 38.2176 101.968 37.7126C102.273 37.5189 102.624 37.4094 102.985 37.3951C103.783 37.3851 104.275 38.0976 104.275 39.2501Z" fill="#263238"/>
<path d="M96.04 41.1501L96.4375 40.9201C96.5223 40.8818 96.6157 40.8664 96.7083 40.8757C96.8009 40.8849 96.8895 40.9183 96.965 40.9726C97.1834 41.1151 97.365 41.3071 97.4953 41.533C97.6256 41.7589 97.7009 42.0122 97.715 42.2726C97.7241 42.364 97.7091 42.4563 97.6713 42.5401C97.6336 42.6239 97.5745 42.6963 97.5 42.7501L97.1325 42.9626L97.065 42.8501C96.9896 42.8335 96.9172 42.8057 96.85 42.7676C96.6317 42.625 96.45 42.433 96.3197 42.2072C96.1894 41.9813 96.1142 41.728 96.1 41.4676C96.1006 41.4028 96.1082 41.3383 96.1225 41.2751L96.04 41.1501Z" fill="#E0E0E0"/>
<path d="M96.5879 41.1926C96.806 41.3348 96.9876 41.5263 97.1179 41.7518C97.2482 41.9772 97.3236 42.2301 97.3379 42.4901C97.3379 42.9701 97.0004 43.1626 96.5879 42.9251C96.3697 42.7824 96.1881 42.5904 96.0579 42.3646C95.9276 42.1387 95.8522 41.8854 95.8379 41.6251C95.8354 41.1476 96.1729 40.9526 96.5879 41.1926Z" fill="#FAFAFA"/>
<path d="M96.5876 42.265C96.5299 42.265 96.4746 42.2421 96.4338 42.2013C96.393 42.1605 96.3701 42.1052 96.3701 42.0475V35.895C96.3701 35.8373 96.393 35.782 96.4338 35.7412C96.4746 35.7004 96.5299 35.6775 96.5876 35.6775C96.6453 35.6775 96.7006 35.7004 96.7414 35.7412C96.7822 35.782 96.8051 35.8373 96.8051 35.895V42.0475C96.8051 42.1052 96.7822 42.1605 96.7414 42.2013C96.7006 42.2421 96.6453 42.265 96.5876 42.265Z" fill="#EBEBEB"/>
<path d="M96.3704 36.5026L94.1904 35.2451L94.8729 36.5576L94.1904 37.0826L96.3704 38.3426V36.5026Z" fill="#E74362"/>
<mask id="mask0_295_179389" style="mask-type:luminance" maskUnits="userSpaceOnUse" x="99" y="37" width="6" height="10">
<path d="M104.275 39.25C104.275 38.1075 103.775 37.395 102.987 37.395C102.626 37.4093 102.275 37.5188 101.97 37.7125C101.087 38.2125 100.275 39.24 99.7924 40.445C99.7853 40.4566 99.7802 40.4692 99.7774 40.4825C99.5274 41.0916 99.3926 41.7418 99.3799 42.4V46.4925L104.275 43.6675V39.25Z" fill="white"/>
</mask>
<g mask="url(#mask0_295_179389)">
<path d="M103.14 40.5C103.139 40.4666 103.129 40.434 103.113 40.4049C103.096 40.3758 103.073 40.351 103.045 40.3325L98.1153 37.4875C98.0853 37.4728 98.0524 37.4651 98.019 37.4651C97.9856 37.4651 97.9527 37.4728 97.9228 37.4875L97.8128 37.55C97.7849 37.5685 97.7617 37.5933 97.7452 37.6224C97.7287 37.6515 97.7193 37.6841 97.7178 37.7175V41.5C97.7199 41.5333 97.7295 41.5657 97.746 41.5947C97.7624 41.6238 97.7853 41.6487 97.8128 41.6675L102.75 44.5C102.78 44.5148 102.813 44.5225 102.847 44.5225C102.88 44.5225 102.913 44.5148 102.943 44.5L103.053 44.4375C103.081 44.4191 103.104 44.3943 103.12 44.3652C103.137 44.3361 103.146 44.3035 103.148 44.27L103.14 40.5Z" fill="#F0F0F0"/>
<path d="M103.113 40.4001L102.84 40.5576L97.75 37.6176C97.7664 37.5884 97.7895 37.5635 97.8175 37.5451L97.9275 37.4826C97.9571 37.4666 97.9901 37.4583 98.0238 37.4583C98.0574 37.4583 98.0904 37.4666 98.12 37.4826L103.05 40.3276C103.076 40.3466 103.098 40.3714 103.113 40.4001Z" fill="#FAFAFA"/>
<path d="M103.14 40.5001V44.2776C103.139 44.3111 103.129 44.3437 103.113 44.3728C103.096 44.4019 103.073 44.4267 103.045 44.4451L102.935 44.5076L102.91 44.5201H102.87C102.845 44.5251 102.818 44.5251 102.793 44.5201H102.775H102.763C102.77 44.5239 102.778 44.5258 102.786 44.5258C102.795 44.5258 102.803 44.5239 102.81 44.5201C102.82 44.5134 102.829 44.504 102.834 44.493C102.839 44.482 102.841 44.4698 102.84 44.4576V40.6676C102.841 40.6505 102.836 40.6336 102.827 40.6193C102.817 40.6049 102.804 40.5939 102.788 40.5876L102.84 40.5576L103.113 40.4001C103.131 40.4304 103.14 40.465 103.14 40.5001Z" fill="#E0E0E0"/>
<path d="M102.84 40.5575L100.555 41.41C100.476 41.439 100.39 41.4405 100.31 41.4142C100.23 41.3879 100.161 41.3353 100.115 41.265L99.7503 40.705L97.7278 37.605L99.6753 40.725L97.7178 41.5C97.7196 41.5337 97.7299 41.5664 97.7478 41.595L99.6828 40.74L100.108 41.4225C100.155 41.4984 100.228 41.5547 100.314 41.5809C100.399 41.6071 100.491 41.6014 100.573 41.565L100.875 41.4325L102.81 44.5C102.82 44.4932 102.829 44.4839 102.834 44.4729C102.839 44.4619 102.841 44.4496 102.84 44.4375V44.375L100.885 41.41L102.84 40.5575Z" fill="#E0E0E0"/>
</g>
<path d="M107.558 39.88L107.035 40.315C106.899 40.5162 106.749 40.7082 106.588 40.89L105.088 42.6225L104.558 43.235L101.148 45.205L99.5176 46.5575H99.5001C99.4514 46.5655 99.4015 46.5576 99.3576 46.535L99.2051 46.4475C99.1923 46.4401 99.1814 46.4299 99.173 46.4178C99.1646 46.4056 99.159 46.3917 99.1566 46.3771C99.1542 46.3626 99.1551 46.3476 99.1591 46.3334C99.1632 46.3192 99.1704 46.3061 99.1801 46.295L100.37 44.92L101.12 44.0475C102.513 42.5252 104.112 41.2049 105.87 40.125C106.575 39.72 107.015 39.58 107.173 39.6775L107.53 39.885C107.53 39.885 107.555 39.88 107.558 39.88Z" fill="#455A64"/>
<path d="M106.955 41.1051L105.955 42.2476L105.935 42.2726L105 43.3551C104.944 43.4162 104.88 43.4692 104.81 43.5126L99.56 46.5376C99.5423 46.5479 99.5228 46.5547 99.5025 46.5576H99.5L101.39 44.3751L101.5 44.2501C102.894 42.7293 104.492 41.4099 106.25 40.3301C106.938 39.9326 107.377 39.7901 107.545 39.8726C107.75 39.9851 107.56 40.4076 106.955 41.1051Z" fill="#37474F"/>
</svg>
