<svg width="25" height="24" viewBox="0 0 25 24" fill="none" xmlns="http://www.w3.org/2000/svg">
<path d="M23.2999 1.59998H18.9001V0.400078C18.8985 0.295031 18.8556 0.194832 18.7808 0.121114C18.7059 0.0473972 18.6051 0.00607763 18.5 0.00607763C18.3949 0.00607763 18.2941 0.0473972 18.2192 0.121114C18.1444 0.194832 18.1015 0.295031 18.0999 0.400078V1.59998H14.5001V1.20009C14.5001 0.537187 13.9628 0 13.3 0H11.7C11.0372 0 10.4999 0.537187 10.4999 1.20009V1.59994H6.90008V0.400125C6.89847 0.295078 6.85561 0.194878 6.78076 0.121161C6.7059 0.0474441 6.60506 0.0061245 6.5 0.0061245C6.39494 0.0061245 6.2941 0.0474441 6.21924 0.121161C6.14439 0.194878 6.10153 0.295078 6.09992 0.400125V1.60003H1.70009C1.03719 1.59998 0.5 2.13717 0.5 2.80003C0.5 3.4627 1.03719 3.99994 1.70009 3.99994H2.89719C2.89109 4.90556 2.90909 5.91998 2.92995 6.99647C3.02005 11.6799 3.14473 18.0956 1.16113 22.2896C1.07465 22.4722 1.03575 22.6737 1.04804 22.8753C1.06033 23.077 1.12342 23.2723 1.23144 23.443C1.33954 23.6137 1.48908 23.7543 1.66614 23.8517C1.84319 23.9491 2.04201 24.0001 2.24408 24H22.7559C22.958 24.0001 23.1568 23.9491 23.3338 23.8517C23.5109 23.7543 23.6604 23.6137 23.7685 23.443C23.8765 23.2723 23.9396 23.077 23.9519 22.8753C23.9642 22.6737 23.9253 22.4722 23.8388 22.2896C21.8552 18.0956 21.9799 11.6799 22.07 6.99647C22.0909 5.92162 22.1099 4.90556 22.1028 3.99994H23.2999C23.9628 3.99994 24.5 3.46275 24.5 2.80003C24.5 2.13722 23.9628 1.59998 23.2999 1.59998ZM11.2999 1.20009C11.2999 1.14755 11.3102 1.09551 11.3303 1.04696C11.3504 0.998407 11.3799 0.954293 11.4171 0.917135C11.4542 0.879978 11.4983 0.850505 11.5469 0.830401C11.5954 0.810298 11.6475 0.799956 11.7 0.799969H13.3C13.3525 0.799956 13.4046 0.810298 13.4531 0.830401C13.5017 0.850505 13.5458 0.879978 13.5829 0.917135C13.6201 0.954293 13.6496 0.998407 13.6697 1.04696C13.6898 1.09551 13.7001 1.14755 13.7001 1.20009V1.59994H11.2999V1.20009ZM10.9001 2.39995H18.0999V3.19997H6.90008V2.39995H10.9001ZM1.29992 2.80003C1.29992 2.74749 1.31026 2.69546 1.33037 2.64691C1.35047 2.59836 1.37995 2.55426 1.4171 2.5171C1.45426 2.47995 1.49837 2.45048 1.54692 2.43038C1.59547 2.41028 1.6475 2.39994 1.70005 2.39995H6.09987V3.19997H1.70009C1.64756 3.19999 1.59554 3.18966 1.54699 3.16957C1.49845 3.14948 1.45434 3.12002 1.41719 3.08288C1.38003 3.04574 1.35056 3.00165 1.33044 2.95312C1.31033 2.90458 1.29993 2.85257 1.29992 2.80003ZM21.2704 6.98072C21.1728 12.0091 21.0515 18.2681 23.1151 22.6317C23.1441 22.6923 23.1572 22.7592 23.1533 22.8263C23.1494 22.8934 23.1285 22.9583 23.0926 23.0151C23.0567 23.0719 23.0069 23.1186 22.9481 23.1509C22.8892 23.1833 22.8231 23.2001 22.7559 23.2H2.24408C2.17685 23.2003 2.11064 23.1835 2.05167 23.1512C1.9927 23.1189 1.94289 23.0722 1.9069 23.0154C1.87091 22.9586 1.84992 22.8936 1.8459 22.8265C1.84187 22.7594 1.85495 22.6924 1.88389 22.6317C3.94841 18.2681 3.82719 12.0091 3.72959 6.98072C3.70873 5.91197 3.68952 4.89478 3.69519 3.99994H6.09987V6.15272C6.0495 6.19978 6.00758 6.25515 5.97594 6.31641L5.74962 6.77531L5.24352 6.84891C5.13274 6.86498 5.02867 6.91173 4.94307 6.98387C4.85748 7.056 4.79377 7.15065 4.75916 7.2571C4.72455 7.36355 4.72041 7.47757 4.74722 7.58625C4.77402 7.69493 4.8307 7.79394 4.91084 7.87209L5.27684 8.22877L5.19116 8.73286C5.17239 8.84299 5.18475 8.95618 5.22684 9.05967C5.26893 9.16316 5.33908 9.25284 5.42939 9.31861C5.5197 9.38439 5.62657 9.42364 5.73798 9.43196C5.8494 9.44027 5.96092 9.41731 6.05998 9.36567L6.51317 9.12562L6.96566 9.36328C7.06472 9.41534 7.17636 9.43867 7.28798 9.43064C7.3996 9.42262 7.50675 9.38355 7.59734 9.31786C7.6879 9.25207 7.75828 9.16228 7.80054 9.05863C7.84279 8.95497 7.85525 8.84157 7.8365 8.73122L7.75006 8.22675L8.11611 7.87041C8.19628 7.79222 8.253 7.69318 8.27985 7.58447C8.3067 7.47575 8.30263 7.36169 8.26808 7.25517C8.23347 7.14868 8.16975 7.054 8.08413 6.98185C7.99851 6.90969 7.89439 6.86294 7.78358 6.84689L7.27766 6.7733L7.05116 6.31439C7.01375 6.24244 6.96204 6.17889 6.89919 6.12764V3.99994H18.0999V9.19997C18.1014 9.24483 18.1102 9.28894 18.1265 9.33089C18.0642 9.38188 18.013 9.44498 17.976 9.51638L17.7496 9.97523L17.2435 10.0488C17.1327 10.0649 17.0287 10.1117 16.9431 10.1838C16.8575 10.2559 16.7938 10.3506 16.7592 10.457C16.7246 10.5635 16.7204 10.6775 16.7472 10.7862C16.774 10.8949 16.8307 10.9939 16.9108 11.072L17.2768 11.4287L17.1912 11.9328C17.1724 12.0429 17.1848 12.1561 17.2268 12.2596C17.2689 12.3631 17.3391 12.4528 17.4294 12.5185C17.5197 12.5843 17.6266 12.6236 17.738 12.6319C17.8494 12.6402 17.9609 12.6172 18.06 12.5656L18.5132 12.3256L18.9657 12.5632C19.0647 12.6153 19.1764 12.6386 19.288 12.6306C19.3996 12.6226 19.5068 12.5835 19.5973 12.5178C19.6879 12.452 19.7583 12.3622 19.8006 12.2586C19.8428 12.1549 19.8553 12.0415 19.8365 11.9311L19.7501 11.4269L20.1161 11.0704C20.1963 10.9922 20.253 10.8932 20.2799 10.7845C20.3067 10.6758 20.3026 10.5618 20.2681 10.4553C20.2335 10.3488 20.1698 10.2541 20.0842 10.1819C19.9986 10.1097 19.8944 10.0629 19.7836 10.0468L19.2777 9.97322L19.0512 9.51431C19.0096 9.4335 18.9499 9.36334 18.8768 9.30928C18.8898 9.27413 18.8977 9.23728 18.9001 9.19997V3.99994H21.3048C21.3105 4.89478 21.2912 5.91197 21.2704 6.98072ZM6.94438 8.26078L6.97991 8.46919L6.79442 8.37159C6.70821 8.3257 6.61204 8.30169 6.51437 8.30169C6.4167 8.30169 6.32053 8.3257 6.23431 8.37159L6.04681 8.46989L6.08234 8.2628C6.11656 8.0678 6.05192 7.86858 5.91003 7.73072L5.75877 7.58311L5.97045 7.55273C6.06623 7.5384 6.15712 7.50108 6.23534 7.44397C6.31356 7.38686 6.37678 7.31166 6.41961 7.2248L6.51317 7.03528L6.60641 7.22405C6.64943 7.31141 6.71307 7.38698 6.79183 7.44424C6.87059 7.50151 6.9621 7.53874 7.05847 7.55273L7.26758 7.58311L7.11598 7.73072C6.97536 7.86858 6.91123 8.06634 6.94442 8.26041L6.94438 8.26078ZM18.9444 11.4608L18.9799 11.6691L18.7944 11.5715C18.7082 11.5256 18.612 11.5016 18.5144 11.5016C18.4167 11.5016 18.3205 11.5256 18.2343 11.5715L18.0468 11.67L18.0823 11.4628C18.0992 11.3668 18.0923 11.2681 18.0622 11.1754C18.0322 11.0827 17.9799 10.9987 17.91 10.9308L17.7588 10.7833L17.9705 10.7529C18.0662 10.7385 18.1571 10.7011 18.2353 10.644C18.3135 10.5868 18.3768 10.5116 18.4196 10.4248L18.5132 10.2353L18.6064 10.424C18.6494 10.5114 18.7131 10.587 18.7918 10.6443C18.8706 10.7016 18.9621 10.7389 19.0585 10.7529L19.2676 10.7833L19.116 10.9308C18.9754 11.0685 18.9112 11.2665 18.9444 11.4604L18.9444 11.4608ZM23.2999 3.19997H18.9001V2.39995H23.2999C23.3528 2.39938 23.4053 2.4093 23.4543 2.42915C23.5033 2.449 23.548 2.47837 23.5856 2.51557C23.6232 2.55277 23.653 2.59706 23.6734 2.64588C23.6938 2.69469 23.7043 2.74706 23.7043 2.79996C23.7043 2.85286 23.6938 2.90523 23.6734 2.95405C23.653 3.00286 23.6232 3.04715 23.5856 3.08435C23.548 3.12155 23.5033 3.15093 23.4543 3.17077C23.4053 3.19062 23.3528 3.20054 23.2999 3.19997Z" fill="#1B1F3B"/>
<path d="M12.5 9.60001C13.8255 9.60001 14.9 8.52558 14.9 7.2001C14.9 5.87457 13.8255 4.79991 12.5 4.79991C11.1745 4.79991 10.1 5.87457 10.1 7.2001C10.1013 8.52502 11.175 9.59869 12.5 9.60001ZM12.5 5.59993C13.3837 5.59993 14.1 6.31641 14.1 7.2001C14.1 8.08374 13.3837 8.80004 12.5 8.80004C11.6163 8.80004 10.9 8.08379 10.9 7.2001C10.9 6.31641 11.6163 5.59993 12.5 5.59993ZM16.1 15.6H15.6472C15.6816 15.2401 15.6999 14.8801 15.6999 14.5168V12C15.6999 11.1163 14.9836 10.4 14.1 10.4H10.9C10.0164 10.4 9.30001 11.1163 9.30001 12V14.5168C9.30001 14.8768 9.31834 15.2401 9.35274 15.6001H8.89993C8.23853 15.6033 7.70335 16.1386 7.70007 16.7999C7.70104 17.0472 7.77842 17.2882 7.92162 17.4899C8.06483 17.6915 8.26685 17.844 8.50004 17.9264V21.2C8.50004 21.3061 8.54218 21.4078 8.61719 21.4828C8.69221 21.5578 8.79394 21.6 8.90003 21.6C9.00611 21.6 9.10785 21.5578 9.18286 21.4828C9.25787 21.4078 9.30001 21.3061 9.30001 21.2V18H10.2408L10.4488 20.8824C10.492 21.5108 11.0139 21.999 11.6439 21.9999H11.7C11.9962 21.999 12.2814 21.8877 12.5 21.6879C12.7186 21.8877 13.0038 21.999 13.2999 21.9999H13.356C13.985 21.9989 14.5063 21.5122 14.5508 20.8848L14.7591 18H15.6999V21.2C15.6993 21.2529 15.7093 21.3054 15.7291 21.3544C15.7489 21.4034 15.7783 21.448 15.8155 21.4856C15.8527 21.5232 15.897 21.5531 15.9458 21.5735C15.9946 21.5938 16.047 21.6043 16.0999 21.6043C16.1528 21.6043 16.2052 21.5938 16.254 21.5735C16.3028 21.5531 16.3471 21.5232 16.3843 21.4856C16.4215 21.448 16.4509 21.4034 16.4707 21.3544C16.4906 21.3054 16.5005 21.2529 16.4999 21.2V17.9277C16.667 17.8709 16.8187 17.7762 16.9429 17.6508C17.0567 17.5404 17.147 17.4081 17.2084 17.2619C17.2698 17.1156 17.3009 16.9585 17.2999 16.7999C17.2999 16.4817 17.1736 16.1765 16.9485 15.9514C16.7235 15.7264 16.4183 15.6 16.1 15.6001L16.1 15.6ZM10.1 12C10.1 11.5582 10.4582 11.2 10.9 11.2H14.1C14.5418 11.2 14.8999 11.5582 14.8999 12V14.5168C14.8999 15.2109 14.8313 15.9034 14.6952 16.5841L14.6339 16.8916C14.6162 16.9787 14.5689 17.057 14.5001 17.1132C14.4313 17.1694 14.3452 17.2001 14.2563 17.2C14.1994 17.2003 14.1432 17.1878 14.0917 17.1635C14.0403 17.1391 13.995 17.1035 13.9592 17.0592C13.9229 17.0152 13.8969 16.9636 13.8831 16.9082C13.8692 16.8528 13.8679 16.7951 13.8791 16.7392C14.0255 16.0074 14.0995 15.2631 14.0999 14.5168V12.8C14.0999 12.5792 13.9209 12.4001 13.7001 12.4001C13.6475 12.4001 13.5955 12.4104 13.547 12.4305C13.4985 12.4506 13.4544 12.4801 13.4172 12.5172C13.38 12.5543 13.3506 12.5984 13.3304 12.6469C13.3103 12.6954 13.3 12.7474 13.2999 12.8V14.5168C13.2996 14.8806 13.2804 15.2442 13.2423 15.6061C12.9669 15.6189 12.7044 15.727 12.5 15.9121C12.2955 15.727 12.0331 15.6189 11.7577 15.6061C11.7196 15.2442 11.7004 14.8806 11.7 14.5168V12.8C11.7 12.5792 11.5209 12.4001 11.2999 12.4001C11.1938 12.4002 11.0922 12.4423 11.0172 12.5173C10.9422 12.5922 10.9001 12.6939 10.9 12.8V14.5168C10.9002 15.2636 10.974 16.0085 11.1204 16.7408C11.1317 16.7967 11.1303 16.8545 11.1165 16.9098C11.1027 16.9652 11.0767 17.0168 11.0404 17.0609C11.0045 17.1052 10.9589 17.1409 10.9073 17.1653C10.8556 17.1897 10.7991 17.2021 10.742 17.2017C10.6533 17.2015 10.5674 17.1706 10.4988 17.1144C10.4302 17.0582 10.3832 16.9801 10.3655 16.8931L10.3044 16.5852C10.1683 15.9041 10.0998 15.2113 10.1 14.5168V12ZM8.62271 16.5148C8.65884 16.478 8.70201 16.4489 8.74964 16.4292C8.79727 16.4095 8.84838 16.3996 8.89993 16.4H9.46009C9.47912 16.5136 9.49689 16.6276 9.51957 16.7404L9.58075 17.0484C9.59228 17.0999 9.60709 17.1506 9.62523 17.2H8.89993C8.8474 17.2 8.79539 17.1897 8.74686 17.1695C8.69833 17.1494 8.65425 17.12 8.61711 17.0828C8.57998 17.0456 8.55053 17.0015 8.53044 16.953C8.51035 16.9045 8.50002 16.8524 8.50004 16.7999C8.49993 16.7465 8.51076 16.6937 8.53185 16.6447C8.55295 16.5956 8.58388 16.5514 8.62271 16.5148ZM11.7 21.2H11.6439C11.5428 21.1995 11.4457 21.1608 11.372 21.0915C11.2983 21.0223 11.2536 20.9277 11.2468 20.8268L11.0399 17.9601C11.6487 17.8052 12.029 17.2002 11.9047 16.5844C11.8955 16.5396 11.8895 16.4943 11.8813 16.4497C11.9464 16.4823 12.0013 16.5322 12.0399 16.594C12.0784 16.6558 12.0992 16.7271 12.0999 16.7999V20.8C12.0999 21.0209 11.9208 21.2 11.7 21.2ZM13.356 21.2H13.2999C13.1939 21.1999 13.0922 21.1578 13.0172 21.0828C12.9422 21.0078 12.9001 20.9061 12.9001 20.8V16.7999C12.9006 16.7269 12.9213 16.6555 12.9599 16.5935C12.9985 16.5315 13.0534 16.4814 13.1187 16.4487C13.1104 16.4936 13.1044 16.5388 13.0952 16.5837C12.97 17.1997 13.3507 17.8054 13.9601 17.9601L13.7528 20.8305C13.7451 20.9306 13.7001 21.0242 13.6266 21.0927C13.553 21.1612 13.4565 21.1995 13.356 21.2ZM16.3772 17.0852C16.3411 17.122 16.298 17.1511 16.2503 17.1708C16.2027 17.1906 16.1516 17.2005 16.1 17.2H15.3737C15.3921 17.1504 15.4069 17.0997 15.4183 17.048L15.4796 16.7408C15.5024 16.6276 15.5196 16.5136 15.5392 16.4H16.1C16.3208 16.4 16.4999 16.5791 16.4999 16.7999C16.5 16.8533 16.4892 16.9062 16.4681 16.9553C16.447 17.0043 16.4161 17.0485 16.3772 17.0852H16.3772Z" fill="#1B1F3B"/>
</svg>
