<svg width="24" height="24" viewBox="0 0 24 24" fill="none" xmlns="http://www.w3.org/2000/svg">
<path d="M23.4844 20.5617L15.9479 18.6168L8.33747 20.5194L0.515625 18.7859M0.515625 3.43828L8.33747 5.51001L15.9479 3.64968L23.4737 5.63686" stroke="black" stroke-width="0.5" stroke-miterlimit="10" stroke-linecap="round" stroke-linejoin="round"/>
<path d="M15.9479 18.6168V3.64969M8.33746 5.51002V20.5194" stroke="black" stroke-width="0.5" stroke-miterlimit="10" stroke-linejoin="round"/>
<path d="M23.4297 14.1076L22.1479 11.7392C21.2676 10.1126 18.9772 9.99604 17.9363 11.5248C16.8294 13.1505 14.6244 13.5904 12.9783 12.514L12.8437 12.426C11.9069 11.8133 10.6752 11.9077 9.84267 12.6558C8.95101 13.457 7.6372 13.5724 6.6195 12.939L0.515808 9.14011" stroke="black" stroke-width="0.5" stroke-miterlimit="22.9256" stroke-linecap="round" stroke-linejoin="round"/>
<path d="M0.515625 18.7859V3.43828M23.4737 5.63686L23.4844 20.5617" stroke="black" stroke-width="0.5" stroke-miterlimit="10" stroke-linecap="round" stroke-linejoin="round"/>
</svg>
