<svg width="106" height="32" viewBox="0 0 106 32" fill="none" xmlns="http://www.w3.org/2000/svg">
<g clip-path="url(#clip0_148_80092)">
<path d="M17.9486 22.462C17.3581 23.3882 16.5509 24.0525 15.528 24.454C14.5043 24.8572 13.3821 25.0578 12.1624 25.0578C11.3361 25.0578 10.5781 24.9275 9.88972 24.6652C9.2003 24.4041 8.65903 24.022 8.2655 23.5183C7.87201 23.0155 7.67507 22.3817 7.67507 21.6168C7.67507 20.7714 7.88204 20.0466 8.29566 19.4428C8.70853 18.8391 9.32842 18.3563 10.1549 17.9937C10.9817 17.632 11.9855 17.4504 13.166 17.4504C14.7801 17.4504 16.1772 17.6523 17.3581 18.0542C17.8578 18.225 18.3488 18.4437 18.8344 18.6934V18.7789C18.8344 20.3091 18.5392 21.5364 17.9486 22.462ZM20.4578 2.41747C18.666 1.73362 16.5908 1.39148 14.2288 1.39148C11.7881 1.39148 9.56446 1.74441 7.55757 2.44729C5.54987 3.1528 3.85686 3.88752 2.47958 4.65133L5.25477 10.0247C5.68775 9.74356 6.32691 9.40091 7.17377 8.99847C8.01993 8.59662 9.00391 8.24372 10.1258 7.94194C11.2474 7.63995 12.4579 7.48889 13.7564 7.48889C15.2522 7.48889 16.4723 7.84181 17.4171 8.54567C18.3617 9.25017 18.8344 10.2267 18.8344 11.4738V14.6738C17.9895 14.2164 16.9689 13.8124 15.7641 13.4662C14.5043 13.1037 13.1463 12.9229 11.6905 12.9229C9.32842 12.9229 7.27175 13.2849 5.52049 14.0096C3.76873 14.7338 2.41077 15.7706 1.44687 17.1186C0.48169 18.4677 0 20.0875 0 21.9784C0 23.83 0.422928 25.39 1.2693 26.6577C2.11542 27.9256 3.26694 28.882 4.7236 29.5254C6.17897 30.1689 7.8323 30.4918 9.68281 30.4918C11.5719 30.4918 13.2744 30.1597 14.7898 29.4956C16.3048 28.8309 17.515 27.8655 18.4207 26.597C18.573 26.3842 18.7078 26.1609 18.8344 25.9332V29.8877H26.2143V10.2055C26.2143 8.31463 25.7025 6.71463 24.6788 5.40609C23.6551 4.09836 22.2485 3.1022 20.4578 2.41747Z" fill="#E74362"/>
<path d="M59.4453 2.11456H50.2938L40.3162 11.9053V2.11456H32.9359V29.8865H40.3162V15.7441L51.5337 29.8865H60.6263L47.7555 13.5854L59.4453 2.11456Z" fill="#E74362"/>
<path d="M72.469 16.7025V2.11517H65.0894V32L83.8644 15.2999V29.8871H91.2435V0.00201416L72.469 16.7025Z" fill="#E74362"/>
<path d="M98.6251 26.1164C98.6251 28.2005 100.277 29.8898 102.314 29.8898C104.352 29.8898 106.005 28.2005 106.005 26.1164C106.005 24.0324 104.352 22.3432 102.314 22.3432C100.277 22.3432 98.6251 24.0324 98.6251 26.1164Z" fill="#E74362"/>
</g>
<defs>
<clipPath id="clip0_148_80092">
<rect width="106" height="32" fill="white"/>
</clipPath>
</defs>
</svg>
