<svg width="24" height="12" viewBox="0 0 24 12" fill="none" xmlns="http://www.w3.org/2000/svg">
<g clip-path="url(#clip0_290_176061)">
<path d="M9.11222 0.793125L5.97 8.28919H3.92006L2.37375 2.30663C2.28 1.93903 2.19853 1.80375 1.91325 1.64831C1.44694 1.395 0.676875 1.15809 0 1.01072L0.0456562 0.793125H3.34603C3.76603 0.793125 4.14422 1.07278 4.24041 1.557L5.05744 5.89509L7.07456 0.793125H9.11222ZM11.8835 0.793125L10.2801 8.28919H8.34056L9.94416 0.793125H11.8835ZM17.1443 5.84175C17.1524 3.86372 14.4093 3.75394 14.4272 2.87016C14.4337 2.60147 14.6897 2.31544 15.2499 2.24231C15.5274 2.20641 16.2941 2.17781 17.1625 2.57794L17.5023 0.987375C17.0357 0.818625 16.4352 0.65625 15.6883 0.65625C13.7711 0.65625 12.4225 1.67456 12.4117 3.13387C12.3992 4.21331 13.375 4.81491 14.1089 5.17444C14.8648 5.54156 15.1183 5.77753 15.1148 6.10566C15.1094 6.60862 14.5111 6.83128 13.9549 6.83953C12.9795 6.855 12.4141 6.57591 11.9631 6.36581L11.611 8.00906C12.0648 8.217 12.901 8.39766 13.7672 8.40684C15.8053 8.40684 17.1383 7.40016 17.1443 5.84175ZM22.2068 8.28919H24L22.4334 0.793125H20.779C20.4059 0.793125 20.0923 1.00969 19.9532 1.34259L17.0432 8.28919H19.0797L19.4837 7.16944H21.9718L22.2068 8.28919ZM20.0422 5.63334L21.0633 2.81831L21.6499 5.63334H20.0421H20.0422ZM14.3656 10.3525H13.5775V11.0859H14.459V11.3064H13.312V9.27188H14.4138V9.49237H13.5775V10.1352H14.3655V10.3527L14.3656 10.3525ZM14.8661 9.16322H15.1316V11.3063H14.8661V9.16322ZM15.8016 10.6241C15.8076 10.9835 16.0341 11.1313 16.3026 11.1313C16.4929 11.1313 16.6105 11.0981 16.7073 11.0559L16.7555 11.2462C16.6619 11.2883 16.499 11.3396 16.2664 11.3396C15.8167 11.3396 15.5482 11.0408 15.5482 10.6C15.5482 10.1594 15.8076 9.81516 16.2333 9.81516C16.7133 9.81516 16.837 10.2319 16.837 10.5005C16.837 10.5547 16.8339 10.5939 16.8278 10.6242L15.8016 10.6241ZM16.5803 10.434C16.5834 10.2681 16.511 10.0054 16.2121 10.0054C15.9404 10.0054 15.8257 10.2499 15.8045 10.434H16.5803ZM18.2823 11.2551C18.2129 11.2883 18.0589 11.3397 17.8627 11.3397C17.422 11.3397 17.1353 11.0408 17.1353 10.594C17.1353 10.1442 17.443 9.81525 17.92 9.81525C18.077 9.81525 18.2158 9.85434 18.2883 9.89372L18.2281 10.0959C18.1644 10.0628 18.0649 10.0264 17.92 10.0264C17.5849 10.0264 17.4039 10.277 17.4039 10.579C17.4039 10.917 17.6212 11.1253 17.911 11.1253C18.062 11.1253 18.1615 11.0891 18.237 11.0559L18.2823 11.2551ZM19.0274 9.49519V9.84534H19.4077V10.0475H19.0274V10.8354C19.0274 11.0168 19.0788 11.1192 19.2266 11.1192C19.299 11.1192 19.3414 11.1133 19.3807 11.101L19.3928 11.3035C19.3414 11.3215 19.2599 11.3396 19.1572 11.3396C19.0334 11.3396 18.9338 11.2973 18.8705 11.2281C18.798 11.1464 18.7678 11.0168 18.7678 10.8446V10.0475H18.5413V9.84534H18.7678V9.57375L19.0275 9.49528L19.0274 9.49519ZM19.7786 10.3012C19.7786 10.1291 19.7754 9.98128 19.7665 9.84534H19.999L20.0112 10.135H20.02C20.0866 9.939 20.2494 9.81516 20.4275 9.81516C20.4548 9.81516 20.4759 9.81825 20.5001 9.82116V10.0718C20.4729 10.0657 20.4458 10.0657 20.4094 10.0657C20.2224 10.0657 20.0894 10.2045 20.0533 10.4039C20.0471 10.4449 20.044 10.4862 20.0442 10.5277V11.3065H19.7786V10.3012ZM22.1328 10.5638C22.1328 11.1041 21.7553 11.3396 21.4053 11.3396C21.0127 11.3396 20.705 11.0498 20.705 10.588C20.705 10.1019 21.0279 9.81525 21.4295 9.81525C21.849 9.81525 22.1328 10.1198 22.1328 10.5638ZM20.9766 10.5789C20.9766 10.8989 21.1577 11.1405 21.4173 11.1405C21.671 11.1405 21.861 10.9018 21.861 10.5728C21.861 10.3253 21.7372 10.0143 21.4233 10.0143C21.1125 10.0143 20.9766 10.3043 20.9766 10.5789ZM22.5398 10.2408C22.5398 10.0869 22.5367 9.96609 22.5277 9.84544H22.7632L22.7783 10.0869H22.7842C22.8567 9.951 23.0258 9.81525 23.2673 9.81525C23.4694 9.81525 23.7834 9.936 23.7834 10.4369V11.3064H23.5178V10.4642C23.5178 10.2289 23.4303 10.0325 23.1798 10.0325C23.0077 10.0325 22.8717 10.1563 22.8236 10.3042C22.8114 10.3374 22.8054 10.3826 22.8054 10.428V11.3064H22.5398V10.2408Z" fill="#1A1F71"/>
</g>
<defs>
<clipPath id="clip0_290_176061">
<rect width="24" height="10.6875" fill="white" transform="translate(0 0.65625)"/>
</clipPath>
</defs>
</svg>
