<svg width="24" height="20" viewBox="0 0 24 20" fill="none" xmlns="http://www.w3.org/2000/svg">
<g clip-path="url(#clip0_290_176045)">
<path d="M4.36323 19.2353V18.0005C4.36323 17.5271 4.07504 17.2184 3.58107 17.2184C3.33414 17.2184 3.06657 17.3008 2.88132 17.5683C2.73732 17.3419 2.53154 17.2184 2.22282 17.2184C2.01695 17.2184 1.81126 17.2801 1.64654 17.5065V17.2596H1.21436V19.2353H1.64654V18.1445C1.64654 17.7947 1.83179 17.63 2.11998 17.63C2.40798 17.63 2.55217 17.8153 2.55217 18.1445V19.2353H2.98436V18.1445C2.98436 17.7947 3.19004 17.63 3.45761 17.63C3.74579 17.63 3.88979 17.8153 3.88979 18.1445V19.2353H4.36323ZM10.7636 17.2596H10.064V16.6628H9.63179V17.2596H9.24076V17.6505H9.6317V18.5562C9.6317 19.009 9.81695 19.2764 10.3109 19.2764C10.4962 19.2764 10.7019 19.2148 10.846 19.1324L10.7225 18.7619C10.599 18.8443 10.455 18.8649 10.3521 18.8649C10.1463 18.8649 10.064 18.7414 10.064 18.5355V17.6505H10.7636V17.2596ZM14.427 17.2184C14.1801 17.2184 14.0154 17.3419 13.9125 17.5065V17.2596H13.4803V19.2353H13.9125V18.124C13.9125 17.7947 14.0565 17.6095 14.3241 17.6095C14.4064 17.6095 14.5093 17.6301 14.5916 17.6506L14.7151 17.2391C14.6328 17.2184 14.5093 17.2184 14.427 17.2184V17.2184ZM8.89089 17.4242C8.68501 17.2801 8.39692 17.2184 8.0882 17.2184C7.59432 17.2184 7.26507 17.4654 7.26507 17.8564C7.26507 18.1858 7.51201 18.3709 7.9442 18.4327L8.14998 18.4533C8.37639 18.4944 8.49986 18.5562 8.49986 18.6591C8.49986 18.8031 8.33523 18.906 8.04704 18.906C7.75895 18.906 7.53254 18.8031 7.38845 18.7003L7.18267 19.0295C7.40907 19.1941 7.71779 19.2764 8.02642 19.2764C8.6027 19.2764 8.93204 19.009 8.93204 18.6385C8.93204 18.2886 8.66448 18.1034 8.25282 18.0417L8.04704 18.021C7.86179 18.0004 7.71779 17.9594 7.71779 17.8359C7.71779 17.6918 7.86179 17.6095 8.0882 17.6095C8.33523 17.6095 8.58217 17.7123 8.70564 17.7741L8.89089 17.4242ZM20.3748 17.2184C20.1278 17.2184 19.9631 17.3419 19.8602 17.5065V17.2596H19.428V19.2353H19.8602V18.124C19.8602 17.7947 20.0043 17.6095 20.2718 17.6095C20.3542 17.6095 20.4571 17.6301 20.5394 17.6506L20.6629 17.2391C20.5806 17.2184 20.4571 17.2184 20.3748 17.2184ZM14.8592 18.2474C14.8592 18.8443 15.2708 19.2764 15.9088 19.2764C16.1969 19.2764 16.4027 19.2148 16.6085 19.0501L16.4027 18.7003C16.2381 18.8237 16.0734 18.8854 15.8882 18.8854C15.5383 18.8854 15.2914 18.6385 15.2914 18.2474C15.2914 17.877 15.5383 17.63 15.8882 17.6095C16.0734 17.6095 16.2381 17.6712 16.4027 17.7947L16.6085 17.4449C16.4027 17.2801 16.1969 17.2184 15.9088 17.2184C15.2708 17.2184 14.8592 17.6506 14.8592 18.2474ZM18.8518 18.2474V17.2596H18.4196V17.5065C18.2755 17.3214 18.0698 17.2184 17.8022 17.2184C17.2465 17.2184 16.8144 17.6506 16.8144 18.2474C16.8144 18.8443 17.2465 19.2764 17.8022 19.2764C18.0903 19.2764 18.2962 19.1736 18.4196 18.9884V19.2353H18.8518V18.2474ZM17.2671 18.2474C17.2671 17.8976 17.4935 17.6095 17.8639 17.6095C18.2138 17.6095 18.4608 17.877 18.4608 18.2474C18.4608 18.5973 18.2138 18.8854 17.8639 18.8854C17.4935 18.8648 17.2671 18.5973 17.2671 18.2474ZM12.1014 17.2184C11.5252 17.2184 11.1135 17.63 11.1135 18.2474C11.1135 18.8649 11.5251 19.2764 12.122 19.2764C12.4101 19.2764 12.6983 19.1941 12.9247 19.009L12.7188 18.7003C12.5542 18.8237 12.3484 18.906 12.1426 18.906C11.875 18.906 11.6075 18.7826 11.5457 18.4326H13.007V18.2681C13.0276 17.63 12.6572 17.2184 12.1014 17.2184ZM12.1014 17.5889C12.3689 17.5889 12.5543 17.7536 12.5953 18.0623H11.5663C11.6075 17.7947 11.7927 17.5889 12.1014 17.5889ZM22.8238 18.2474V16.4775H22.3916V17.5065C22.2475 17.3214 22.0418 17.2184 21.7742 17.2184C21.2185 17.2184 20.7864 17.6506 20.7864 18.2474C20.7864 18.8443 21.2185 19.2764 21.7742 19.2764C22.0624 19.2764 22.2682 19.1736 22.3916 18.9884V19.2353H22.8238V18.2474ZM21.2392 18.2474C21.2392 17.8976 21.4655 17.6095 21.836 17.6095C22.1859 17.6095 22.4328 17.877 22.4328 18.2474C22.4328 18.5973 22.1859 18.8854 21.836 18.8854C21.4655 18.8648 21.2392 18.5973 21.2392 18.2474ZM6.79164 18.2474V17.2596H6.35945V17.5065C6.21536 17.3214 6.00957 17.2184 5.74201 17.2184C5.18636 17.2184 4.75417 17.6506 4.75417 18.2474C4.75417 18.8443 5.18636 19.2764 5.74201 19.2764C6.0302 19.2764 6.23598 19.1736 6.35945 18.9884V19.2353H6.79164V18.2474ZM5.18636 18.2474C5.18636 17.8976 5.41276 17.6095 5.78317 17.6095C6.13304 17.6095 6.38007 17.877 6.38007 18.2474C6.38007 18.5973 6.13304 18.8854 5.78317 18.8854C5.41276 18.8648 5.18636 18.5973 5.18636 18.2474Z" fill="black"/>
<path d="M8.74658 2.25659H15.2294V13.9051H8.74658V2.25659Z" fill="#FF5F00"/>
<path d="M9.15834 8.08084C9.15834 5.71412 10.2697 3.61488 11.9778 2.25653C10.7225 1.26869 9.13781 0.671875 7.40906 0.671875C3.31341 0.671875 0 3.98528 0 8.08084C0 12.1763 3.31341 15.4898 7.40897 15.4898C9.13772 15.4898 10.7224 14.893 11.9778 13.9051C10.2697 12.5673 9.15834 10.4476 9.15834 8.08084Z" fill="#EB001B"/>
<path d="M23.9763 8.08084C23.9763 12.1763 20.6629 15.4898 16.5673 15.4898C14.8386 15.4898 13.2539 14.893 11.9985 13.9051C13.7273 12.5468 14.8181 10.4476 14.8181 8.08084C14.8181 5.71412 13.7067 3.61488 11.9985 2.25653C13.2538 1.26869 14.8386 0.671875 16.5673 0.671875C20.6629 0.671875 23.9763 4.00591 23.9763 8.08084Z" fill="#F79E1B"/>
</g>
<defs>
<clipPath id="clip0_290_176045">
<rect width="24" height="18.6562" fill="white" transform="translate(0 0.671875)"/>
</clipPath>
</defs>
</svg>
