<svg width="24" height="24" viewBox="0 0 24 24" fill="none" xmlns="http://www.w3.org/2000/svg">
<path d="M9 14H12M10 12V8.2C10 8.014 10 7.921 10.012 7.844C10.0449 7.63518 10.1432 7.44217 10.2927 7.29268C10.4422 7.1432 10.6352 7.04493 10.844 7.012C10.92 7 11.014 7 11.2 7H13.5C14.163 7 14.7989 7.26339 15.2678 7.73223C15.7366 8.20107 16 8.83696 16 9.5C16 10.163 15.7366 10.7989 15.2678 11.2678C14.7989 11.7366 14.163 12 13.5 12H10ZM10 12V17M10 12H9" stroke="black" stroke-width="1.5" stroke-linecap="round"/>
<path d="M7 3.33801C8.51952 2.45891 10.2445 1.99731 12 2.00001C17.523 2.00001 22 6.47701 22 12C22 17.523 17.523 22 12 22C6.477 22 2 17.523 2 12C2 10.179 2.487 8.47001 3.338 7.00001" stroke="black" stroke-width="1.5" stroke-linecap="round"/>
</svg>
