<svg width="126" height="125" viewBox="0 0 126 125" fill="none" xmlns="http://www.w3.org/2000/svg">
<path d="M100.855 67.0624C79.715 54.8574 45.5525 54.8574 24.55 67.0624C3.54752 79.2674 3.65753 99.0624 24.8 111.262C45.9425 123.462 80.105 123.467 101.108 111.262C122.11 99.0574 122 79.2674 100.855 67.0624Z" fill="#F5F5F5"/>
<path d="M54.0224 13.2749C53.8024 12.5099 52.2499 11.0549 50.7049 11.0874C50.556 11.0905 50.4089 11.1192 50.2699 11.1724L20.2499 28.25C19.8106 28.5036 19.4453 28.8678 19.1905 29.3064C18.9357 29.745 18.8001 30.2427 18.7974 30.75V95.6999C18.7974 97.3524 20.7049 98.9324 22.4949 98.1724C22.5346 98.1603 22.5731 98.1444 22.6099 98.1249L52.6474 80.9999C53.0884 80.7485 53.455 80.3847 53.7097 79.9456C53.9644 79.5064 54.0981 79.0076 54.0974 78.4999V13.5874C54.0966 13.4789 54.0709 13.372 54.0224 13.2749Z" fill="#E74362"/>
<path opacity="0.3" d="M54.0224 13.2749C53.8024 12.5099 52.2499 11.0549 50.7049 11.0874C50.556 11.0905 50.4089 11.1192 50.2699 11.1724L20.2499 28.25C19.8106 28.5036 19.4453 28.8678 19.1905 29.3064C18.9357 29.745 18.8001 30.2427 18.7974 30.75V95.6999C18.7974 97.3524 20.7049 98.9324 22.4949 98.1724C22.5346 98.1603 22.5731 98.1444 22.6099 98.1249L52.6474 80.9999C53.0884 80.7485 53.455 80.3847 53.7097 79.9456C53.9644 79.5064 54.0981 79.0076 54.0974 78.4999V13.5874C54.0966 13.4789 54.0709 13.372 54.0224 13.2749Z" fill="black"/>
<path d="M22.9824 37.6125C22.9822 37.3584 23.0494 37.1088 23.1772 36.8891C23.305 36.6695 23.4888 36.4878 23.7099 36.3625L51.5899 20.5C51.6992 20.4378 51.8228 20.4054 51.9485 20.406C52.0742 20.4066 52.1976 20.4403 52.3062 20.5036C52.4148 20.5669 52.5049 20.6576 52.5674 20.7667C52.6299 20.8757 52.6627 20.9993 52.6624 21.125V73.5C52.6627 73.7538 52.5957 74.0031 52.4684 74.2227C52.3411 74.4423 52.1579 74.6242 51.9374 74.75L24.0574 90.635C23.948 90.697 23.8242 90.7293 23.6985 90.7286C23.5727 90.7279 23.4493 90.6943 23.3405 90.631C23.2318 90.5678 23.1415 90.4772 23.0787 90.3682C23.0159 90.2593 22.9827 90.1358 22.9824 90.01V37.6125Z" fill="#455A64"/>
<path opacity="0.3" d="M18.7949 30.75V95.7C18.7949 97.3525 20.7024 98.9325 22.4924 98.1725C22.3852 98.2095 22.2706 98.2204 22.1583 98.2042C22.0461 98.188 21.9392 98.1453 21.8468 98.0795C21.7544 98.0137 21.679 97.9268 21.6269 97.826C21.5748 97.7252 21.5476 97.6135 21.5474 97.5V32.5425C21.5492 31.9779 21.718 31.4264 22.0324 30.9575L19.0924 29.5C18.8996 29.8887 18.7979 30.3162 18.7949 30.75Z" fill="black"/>
<path opacity="0.1" d="M50.7075 11.085C50.5587 11.088 50.4115 11.1168 50.2725 11.17L20.25 28.25C19.7458 28.5389 19.3419 28.9751 19.0925 29.5L22.0325 30.97C22.2777 30.5905 22.6092 30.2743 23 30.0475L53.025 12.965C53.1102 12.9161 53.2046 12.8853 53.3022 12.8745C53.3999 12.8637 53.4987 12.8732 53.5925 12.9023C53.6864 12.9314 53.7732 12.9795 53.8476 13.0436C53.922 13.1077 53.9824 13.1865 54.025 13.275C53.805 12.5 52.25 11.0525 50.7075 11.085Z" fill="white"/>
<path d="M41.5224 23.6899C41.7349 23.5674 41.9099 23.6624 41.9099 23.9049C41.9023 24.0378 41.8635 24.167 41.7966 24.2821C41.7297 24.3972 41.6366 24.495 41.5249 24.5674L35.6349 27.9699C35.4249 28.0924 35.2549 27.9899 35.2524 27.7474C35.2597 27.6157 35.2979 27.4875 35.3639 27.3733C35.4299 27.259 35.5219 27.162 35.6324 27.0899L41.5224 23.6899Z" fill="#263238"/>
<path d="M34.1199 27.9624C34.3299 27.8424 34.4999 27.9375 34.5024 28.18C34.4955 28.3125 34.4575 28.4415 34.3915 28.5566C34.3255 28.6717 34.2333 28.7696 34.1224 28.8425C33.9099 28.965 33.7374 28.8649 33.7349 28.6224C33.7425 28.4899 33.7813 28.361 33.8482 28.2463C33.9151 28.1316 34.0082 28.0343 34.1199 27.9624Z" fill="#263238"/>
<path d="M37.8899 23.1949C38.3124 22.9449 38.6524 23.1449 38.6524 23.6299C38.64 23.8938 38.5656 24.151 38.4353 24.3807C38.305 24.6105 38.1224 24.8063 37.9024 24.9524C37.4824 25.2024 37.1324 24.9949 37.1299 24.5124C37.1448 24.2487 37.2213 23.9921 37.3533 23.7633C37.4853 23.5345 37.6691 23.3399 37.8899 23.1949Z" fill="#263238"/>
<path d="M37.8923 84.3375C38.7498 83.8375 39.4423 84.2375 39.4448 85.2225C39.4178 85.7613 39.264 86.2862 38.996 86.7545C38.728 87.2228 38.3533 87.6212 37.9023 87.9175C37.0448 88.4175 36.3323 88.0075 36.3298 87.0225C36.3608 86.4836 36.5185 85.9596 36.7899 85.4931C37.0614 85.0265 37.4391 84.6306 37.8923 84.3375Z" fill="#263238"/>
<path d="M58.42 24L56.7975 23.14C56.6872 23.0553 56.5542 23.0051 56.4154 22.9957C56.2766 22.9864 56.1382 23.0183 56.0175 23.0875L28.1425 38.9625C27.9224 39.0887 27.7395 39.2707 27.6122 39.4902C27.4849 39.7096 27.4177 39.9588 27.4175 40.2125V92.61C27.4174 92.7538 27.4611 92.8943 27.5428 93.0127C27.6245 93.131 27.7404 93.2217 27.875 93.2725L29.51 94.15L29.5375 94.1625C29.6424 94.2203 29.7602 94.2506 29.88 94.2506C29.9997 94.2506 30.1176 94.2203 30.2225 94.1625L58.1025 78.275C58.3229 78.1492 58.5061 77.9673 58.6335 77.7477C58.7608 77.5282 58.8277 77.2788 58.8275 77.025V24.6525C58.8301 24.516 58.7929 24.3816 58.7206 24.2658C58.6482 24.1499 58.5438 24.0576 58.42 24Z" fill="#E74362"/>
<path opacity="0.3" d="M58.83 26.4825V24.6525C58.8323 24.5157 58.7948 24.3811 58.722 24.2653C58.6492 24.1494 58.5443 24.0572 58.42 24L56.7975 23.14C56.6872 23.0553 56.5542 23.0051 56.4154 22.9957C56.2766 22.9864 56.1382 23.0183 56.0175 23.0875L28.1425 38.9625C27.9224 39.0887 27.7395 39.2707 27.6122 39.4902C27.4849 39.7096 27.4177 39.9588 27.4175 40.2125V42.615L29.1525 43.615L58.83 26.4825Z" fill="white"/>
<path opacity="0.5" d="M58.42 24L56.7975 23.14C56.6872 23.0553 56.5542 23.0051 56.4154 22.9957C56.2766 22.9864 56.1382 23.0183 56.0175 23.0875L28.1425 38.9625C27.9224 39.0887 27.7395 39.2707 27.6122 39.4902C27.4849 39.7096 27.4177 39.9588 27.4175 40.2125V92.61C27.4174 92.7538 27.4611 92.8943 27.5428 93.0127C27.6245 93.131 27.7404 93.2217 27.875 93.2725L29.51 94.15L29.5375 94.1625C29.6424 94.2203 29.7602 94.2506 29.88 94.2506C29.9997 94.2506 30.1176 94.2203 30.2225 94.1625L58.1025 78.275C58.3229 78.1492 58.5061 77.9673 58.6335 77.7477C58.7608 77.5282 58.8277 77.2788 58.8275 77.025V24.6525C58.8301 24.516 58.7929 24.3816 58.7206 24.2658C58.6482 24.1499 58.5438 24.0576 58.42 24Z" fill="white"/>
<path opacity="0.3" d="M27.4175 40.2125V92.61C27.4174 92.7539 27.4611 92.8943 27.5428 93.0127C27.6245 93.1311 27.7404 93.2217 27.875 93.2725L29.51 94.15C29.4015 94.0871 29.3115 93.9966 29.2492 93.8877C29.1868 93.7789 29.1543 93.6555 29.155 93.53V41.1375C29.1553 40.9453 29.1935 40.755 29.2675 40.5775L27.5625 39.5925C27.4686 39.7858 27.4191 39.9977 27.4175 40.2125Z" fill="#E74362"/>
<path opacity="0.4" d="M56.8026 23.1476C56.6922 23.0628 56.5593 23.0126 56.4205 23.0033C56.2817 22.994 56.1432 23.0259 56.0226 23.0951L28.1426 38.9626C27.8885 39.108 27.6852 39.3279 27.5601 39.5926L29.2651 40.5776C29.3882 40.2873 29.6034 40.0457 29.8776 39.8901L57.7501 24.0276C57.8504 23.9702 57.9635 23.9385 58.0791 23.9354C58.1947 23.9324 58.3093 23.958 58.4126 24.0101L56.8026 23.1476Z" fill="white"/>
<path d="M37.6475 40.7075C41.325 38.585 44.315 40.2875 44.3275 44.5125C44.34 48.7375 41.3675 53.885 37.69 56.0125C34.0125 58.14 31.0225 56.4325 31.01 52.2075C30.9975 47.9825 33.97 42.83 37.6475 40.7075Z" fill="#E74362"/>
<path d="M41.0151 44.6501C41.3764 44.3912 41.628 44.0067 41.7205 43.5719C41.813 43.1372 41.7397 42.6836 41.5151 42.3C41.7179 42.2109 41.8838 42.0546 41.9851 41.8575C42.0279 41.7628 42.0412 41.6573 42.0231 41.5548C42.0051 41.4524 41.9567 41.3577 41.8841 41.2833C41.8115 41.2088 41.7181 41.1579 41.6162 41.1372C41.5142 41.1166 41.4084 41.1272 41.3126 41.1675C41.3659 41.0138 41.3663 40.8467 41.3137 40.6927C41.2612 40.5387 41.1587 40.4066 41.0226 40.3175C40.8836 40.2417 40.7228 40.216 40.5671 40.2447C40.4115 40.2734 40.2704 40.3547 40.1676 40.475C40.1707 40.3748 40.1415 40.2762 40.0844 40.1939C40.0272 40.1115 39.945 40.0497 39.8501 40.0176C39.6545 39.9663 39.4476 39.9794 39.2601 40.055C39.0676 40.12 38.89 40.2151 38.6976 40.2751C38.3705 40.3578 38.0349 40.4014 37.6976 40.405C37.3568 40.4057 37.0216 40.4917 36.7226 40.655C36.5568 40.7555 36.4291 40.9084 36.3599 41.0895C36.2906 41.2706 36.2836 41.4696 36.3401 41.655C36.2915 41.5927 36.2304 41.5413 36.1606 41.5042C36.0908 41.4671 36.0139 41.4453 35.9351 41.44C35.8572 41.4381 35.7798 41.453 35.7082 41.4836C35.6366 41.5142 35.5724 41.5599 35.5201 41.6175C35.7326 41.7475 35.9376 41.89 36.1501 42.02C36.0296 41.9851 35.9011 41.9906 35.7841 42.0357C35.6671 42.0809 35.5682 42.1632 35.5026 42.27C35.4015 42.4824 35.3617 42.7188 35.3876 42.9525C35.4147 43.8434 35.5731 44.7254 35.8575 45.57C36.0025 46.005 36.3426 46.555 36.7551 46.755L41.0151 44.6501Z" fill="#37474F"/>
<path d="M40.3225 48L41.3225 48.86L41.855 51.915C42.2887 51.2603 42.6747 50.5752 43.01 49.865C42.5575 48.6875 42.19 48 40.3225 48Z" fill="#EBEBEB"/>
<path d="M37.69 55.9999C39.4175 54.9999 40.99 53.3399 42.1675 51.4174C42.0725 49.7624 41.8275 47.9824 40.3225 47.9824L35.85 48.0124L34.9375 48.1099L34.5 56.9149C35.455 56.9624 36.5375 56.6724 37.69 55.9999Z" fill="#E74362"/>
<g opacity="0.4">
<path d="M37.69 55.9999C39.4175 54.9999 40.99 53.3399 42.1675 51.4174C42.0725 49.7624 41.8275 47.9824 40.3225 47.9824L35.85 48.0124L34.9375 48.1099L34.5 56.9149C35.455 56.9624 36.5375 56.6724 37.69 55.9999Z" fill="white"/>
</g>
<path d="M39.5925 48.5849C40.01 49.9149 39.7475 51.7699 39.5925 52.6049C38.5325 51.1474 37.5425 49.6874 37.23 49.1049L38.7075 48.3899L39.5925 48.5849Z" fill="#EBEBEB"/>
<path d="M38.9751 49.805L39.3401 49.72C39.5167 50.1854 39.6645 50.6613 39.7826 51.145C39.7376 51.7325 39.6551 52.2575 39.5926 52.605C39.3826 52.32 39.1776 52.0325 38.9801 51.755C39.0436 51.1064 39.0419 50.4532 38.9751 49.805Z" fill="#455A64"/>
<path opacity="0.2" d="M38.9824 49.8825V49.805L39.3474 49.72L39.3674 49.7725C39.3085 49.8258 39.2372 49.8636 39.1599 49.8825C39.1014 49.8947 39.041 49.8947 38.9824 49.8825Z" fill="black"/>
<path d="M38.7775 48.85L38.49 48.665L37.8225 49.03C38.0511 49.2067 38.325 49.315 38.6125 49.3425L38.7775 48.85Z" fill="#455A64"/>
<path d="M39.22 48.78L39.3075 48.585L39.645 48.795C39.6095 48.9226 39.533 49.035 39.4275 49.115L39.22 48.78Z" fill="#455A64"/>
<path opacity="0.2" d="M38.7775 48.85L38.49 48.665L37.8225 49.03C38.0511 49.2067 38.325 49.315 38.6125 49.3425L38.7775 48.85Z" fill="black"/>
<path opacity="0.2" d="M39.22 48.78L39.3075 48.585L39.645 48.795C39.6095 48.9226 39.533 49.035 39.4275 49.115L39.22 48.78Z" fill="black"/>
<path d="M38.6125 49.3425C38.6406 49.1681 38.6963 48.9993 38.7775 48.8425L39.2201 48.7725C39.3023 48.8755 39.3719 48.988 39.4276 49.1075C39.4364 49.3128 39.4067 49.518 39.34 49.7125C39.227 49.7698 39.1018 49.799 38.975 49.7975C38.8093 49.6878 38.6824 49.5286 38.6125 49.3425Z" fill="#455A64"/>
<path d="M38.9326 48.695C38.2326 48.6825 37.8026 49.2425 37.1601 49.4325L35.8501 48.02L36.3501 47.27C36.4527 47.1202 36.5845 46.9927 36.7376 46.895V47.17C36.7401 47.2497 36.7627 47.3276 36.8033 47.3962C36.844 47.4648 36.9014 47.522 36.9701 47.5625L38.9326 48.695Z" fill="#E0E0E0"/>
<path d="M38.9324 48.695C39.3249 48.575 39.9074 49.0625 39.9074 49.0625C39.7024 47.9325 39.0874 47.4875 38.9349 47.4875L38.9324 48.695Z" fill="#E0E0E0"/>
<path d="M34.9374 48.1174L34.3324 48.2149C33.975 48.2734 33.6438 48.439 33.3826 48.6899C33.1214 48.9408 32.9426 49.2652 32.8699 49.6199C32.5304 51.3135 32.3978 53.0419 32.4749 54.7674L35.2499 53.4999C35.5349 51.3274 36.1049 49.5399 34.9374 48.1174Z" fill="#EBEBEB"/>
<path d="M35.215 54.4524V54.2024C35.2152 54.1804 35.2202 54.1587 35.2297 54.1388C35.2392 54.1189 35.253 54.1014 35.27 54.0874C35.2875 54.0722 35.3015 54.0534 35.311 54.0322C35.3205 54.0111 35.3253 53.9881 35.325 53.9649V53.5649C35.325 53.5389 35.3198 53.5131 35.3097 53.4891C35.2996 53.4652 35.2848 53.4434 35.2662 53.4253C35.2475 53.4071 35.2254 53.3928 35.2012 53.3833C35.177 53.3738 35.1511 53.3693 35.125 53.3699C33.875 53.3874 32.655 53.9824 32.3225 54.6849C32.2475 54.9045 32.2475 55.1428 32.3225 55.3624C32.105 55.6449 32.21 55.7899 32.3225 55.9949C32.4362 56.1015 32.5564 56.2009 32.6825 56.2924C33.5 54.9999 35.215 54.4524 35.215 54.4524Z" fill="#E0E0E0"/>
<path opacity="0.2" d="M33.9174 54.1726C33.3025 54.442 32.7602 54.8532 32.3349 55.3726C32.3103 55.2979 32.2935 55.2208 32.2849 55.1426C32.6992 54.6387 33.2767 54.2955 33.9174 54.1726Z" fill="black"/>
<path opacity="0.2" d="M35.3275 54.0225C35.3206 54.0515 35.3049 54.0777 35.2825 54.0975C35.2655 54.1114 35.2517 54.129 35.2422 54.1488C35.2327 54.1687 35.2277 54.1904 35.2275 54.2125V54.2325C34.3519 54.3666 33.5418 54.7765 32.915 55.4025C33.5 54.565 34.765 54.135 35.3275 54.0225Z" fill="black"/>
<path d="M37.6901 55.9999C38.7607 55.3624 39.7228 54.5581 40.5401 53.6174C38.9326 53.6174 36.6926 53.7174 35.2251 54.2249V54.4449C35.2251 54.4449 33.5151 54.9874 32.7051 56.2949C33.9176 57.1824 35.7026 57.1549 37.6901 55.9999Z" fill="#FFA8A7"/>
<path opacity="0.2" d="M35.3375 54.46L35.365 54.1875L35.225 54.2325V54.4525C34.8255 54.591 34.4423 54.7729 34.0825 54.995C33.9718 55.1465 33.8873 55.3155 33.8325 55.495C34.1675 55.0225 34.535 54.8325 35.25 54.65C35.8975 54.75 37.03 55.2275 38.18 55.7075C38.29 55.635 38.4 55.56 38.5075 55.4825C37.1025 55 35.6975 54.485 35.3375 54.46Z" fill="black"/>
<path d="M37.5525 46.9401H37.5325C37.3864 46.8647 37.2583 46.7587 37.1569 46.6293C37.0555 46.4998 36.9832 46.35 36.945 46.1901C36.9075 46.0276 36.875 45.8651 36.85 45.7026C36.825 45.5401 36.7175 45.7026 36.7175 45.7026C36.7175 45.7026 36.7175 46.0626 36.735 46.4901C36.735 46.7151 36.735 46.9601 36.75 47.1826C36.7525 47.2623 36.7751 47.3401 36.8158 47.4088C36.8564 47.4774 36.9138 47.5346 36.9825 47.5751L38.9325 48.7126V47.3251C38.4512 47.2917 37.9816 47.1607 37.5525 46.9401Z" fill="#FFA8A7"/>
<path opacity="0.2" d="M37.2749 46.9126C37.1575 46.7652 37.0724 46.5949 37.0249 46.4126C37.1335 46.633 37.3083 46.814 37.5249 46.9301H37.5449C37.9761 47.145 38.4464 47.27 38.9274 47.2976V47.6526C38.649 47.6282 38.3745 47.5703 38.1099 47.4801C37.7839 47.3728 37.4946 47.1762 37.2749 46.9126Z" fill="black"/>
<path d="M41.1349 42.5C41.2949 43.7096 41.2151 44.9388 40.8999 46.1175C40.841 46.3797 40.745 46.6323 40.6149 46.8675C40.4822 47.1012 40.2755 47.2841 40.0274 47.3875C39.7099 47.4738 39.375 47.4738 39.0574 47.3875C38.4601 47.3185 37.8806 47.1406 37.3474 46.8625C36.8474 46.5525 36.4299 45.9925 36.4799 45.395C36.3343 45.4856 36.1682 45.5382 35.997 45.5478C35.8257 45.5574 35.6548 45.5238 35.4999 45.45C35.348 45.3671 35.2193 45.2475 35.1254 45.1021C35.0315 44.9567 34.9755 44.7901 34.9624 44.6175C34.9306 44.4826 34.9434 44.341 34.9989 44.214C35.0544 44.087 35.1497 43.9815 35.2703 43.9133C35.391 43.8451 35.5305 43.8179 35.6679 43.8358C35.8054 43.8536 35.9333 43.9157 36.0324 44.0125C36.1864 44.1478 36.3203 44.3043 36.4299 44.4775C36.4802 44.5613 36.5475 44.6337 36.6274 44.69C36.6683 44.7169 36.7161 44.7312 36.7649 44.7312C36.8138 44.7312 36.8616 44.7169 36.9024 44.69C36.9367 44.6493 36.9614 44.6015 36.9748 44.55C36.9882 44.4985 36.99 44.4447 36.9799 44.3925L36.9449 43.6425C36.9432 43.5847 36.958 43.5276 36.9877 43.478C37.0174 43.4284 37.0607 43.3883 37.1124 43.3625C37.2689 43.2763 37.3895 43.1371 37.4524 42.97C37.507 42.824 37.539 42.6706 37.5474 42.515C37.5503 42.4867 37.5596 42.4594 37.5746 42.4351C37.5896 42.4109 37.6099 42.3905 37.634 42.3753C37.6581 42.3601 37.6854 42.3506 37.7137 42.3475C37.742 42.3445 37.7706 42.3479 37.7974 42.3575C38.8692 42.7453 40.0341 42.7951 41.1349 42.5Z" fill="#FFA8A7"/>
<path d="M39.4699 44.3374L40.1499 45.4824L39.3374 45.6349L39.4699 44.3374Z" fill="#F28F8F"/>
<path d="M38.5574 46.03L39.1724 46.33C39.1199 46.4004 39.0456 46.4515 38.9611 46.4754C38.8766 46.4993 38.7866 46.4948 38.7049 46.4625C38.6337 46.419 38.58 46.3519 38.5531 46.2729C38.5261 46.1939 38.5277 46.108 38.5574 46.03Z" fill="#F28F8F"/>
<path opacity="0.3" d="M38.5574 46.03L39.1724 46.33C39.1199 46.4004 39.0456 46.4515 38.9611 46.4754C38.8766 46.4993 38.7866 46.4948 38.7049 46.4625C38.6337 46.419 38.58 46.3519 38.5531 46.2729C38.5261 46.1939 38.5277 46.108 38.5574 46.03Z" fill="black"/>
<path d="M38.92 46.4825C38.8481 46.4989 38.7728 46.4919 38.705 46.4625C38.6487 46.4305 38.6029 46.3827 38.5736 46.3249C38.5442 46.2671 38.5326 46.2019 38.54 46.1375C38.6307 46.1357 38.7192 46.1658 38.79 46.2225C38.8659 46.2887 38.9126 46.3821 38.92 46.4825Z" fill="#F28F8F"/>
<path d="M38.295 44.3825C38.2901 44.4285 38.2991 44.4749 38.3208 44.5157C38.3424 44.5565 38.3758 44.59 38.4165 44.6118C38.4573 44.6336 38.5036 44.6427 38.5496 44.6381C38.5956 44.6334 38.6391 44.6152 38.6747 44.5857C38.7103 44.5562 38.7362 44.5167 38.7493 44.4724C38.7623 44.428 38.7618 44.3808 38.7479 44.3367C38.734 44.2927 38.7072 44.2537 38.6711 44.2249C38.6349 44.1961 38.591 44.1788 38.545 44.175C38.4843 44.1695 38.4239 44.1882 38.3771 44.2271C38.3302 44.266 38.3007 44.3219 38.295 44.3825Z" fill="#263238"/>
<path d="M40.2499 44.5C40.2463 44.5306 40.2487 44.5617 40.2572 44.5914C40.2657 44.6211 40.2799 44.6488 40.2992 44.6729C40.3185 44.697 40.3424 44.717 40.3695 44.7318C40.3966 44.7466 40.4263 44.7558 40.457 44.7589C40.4877 44.7621 40.5188 44.7591 40.5483 44.7501C40.5778 44.7412 40.6053 44.7264 40.6291 44.7068C40.6528 44.6871 40.6725 44.6628 40.6868 44.6355C40.7011 44.6082 40.7098 44.5782 40.7124 44.5475C40.7176 44.4867 40.6988 44.4264 40.6599 44.3794C40.621 44.3324 40.5652 44.3026 40.5045 44.2964C40.4439 44.2902 40.3832 44.308 40.3356 44.3461C40.288 44.3842 40.2572 44.4394 40.2499 44.5Z" fill="#263238"/>
<path d="M40.5674 43.6026L41.0474 44.0101C41.076 43.9488 41.0852 43.8802 41.0735 43.8136C41.0619 43.7469 41.0301 43.6855 40.9824 43.6376C40.9235 43.5934 40.8533 43.5667 40.7799 43.5605C40.7065 43.5543 40.6329 43.5689 40.5674 43.6026Z" fill="#263238"/>
<path d="M38.5849 43.3751L38.0349 43.6801C38.018 43.6139 38.0221 43.5442 38.0468 43.4805C38.0714 43.4169 38.1153 43.3625 38.1724 43.3251C38.239 43.2943 38.3129 43.2826 38.3858 43.2914C38.4586 43.3003 38.5276 43.3292 38.5849 43.3751Z" fill="#263238"/>
<path d="M49.7726 42.9175L49.7751 43.5625L46.8851 45.23L46.8826 44.585L49.7726 42.9175Z" fill="white"/>
<path d="M51.295 46.0049L51.2975 46.6499L46.8975 49.1899L46.895 48.5449L51.295 46.0049Z" fill="white"/>
<path d="M52.7349 43.855L52.7374 44.5L46.8924 47.875L46.8899 47.23L52.7349 43.855Z" fill="white"/>
<path d="M55.0124 38.5725L55.0149 39.2175L46.8824 43.915L46.8799 43.2675L55.0124 38.5725Z" fill="white"/>
<path d="M56.6225 36.3125L56.625 36.96L46.8775 42.585L46.875 41.94L56.6225 36.3125Z" fill="white"/>
<path d="M54.5924 35.0325L54.5974 36.325L46.8724 40.785L46.8699 39.4925L54.5924 35.0325Z" fill="white"/>
<path d="M30.7275 61.0275V92.0575L42.17 85.5375V54.4275L30.7275 61.0275Z" fill="#E74362"/>
<path d="M57.2526 45.7224L42.9026 54.0024V85.1199L57.2526 76.9424V45.7224Z" fill="#E74362"/>
<g opacity="0.7">
<path d="M30.7275 61.0275V92.0575L42.17 85.5375V54.4275L30.7275 61.0275Z" fill="white"/>
<path d="M57.2526 45.7224L42.9026 54.0024V85.1199L57.2526 76.9424V45.7224Z" fill="white"/>
</g>
<path d="M51.635 72.78V73.3375L44.8475 77.255L44.845 76.7L51.635 72.78Z" fill="#E74362"/>
<path d="M55.355 69.5974L55.3575 70.1574L44.845 76.2249L44.8425 75.6674L55.355 69.5974Z" fill="#E74362"/>
<path d="M49.7826 71.7825V72.34L44.8426 75.1925L44.8401 74.6375L49.7826 71.7825Z" fill="#E74362"/>
<path d="M55.3499 67.5376L55.3524 68.0951L44.8399 74.1626L44.8374 73.6051L55.3499 67.5376Z" fill="#E74362"/>
<path d="M55.3475 66.5049L55.35 67.0624L44.835 73.1324V72.5749L55.3475 66.5049Z" fill="#E74362"/>
<path d="M47.3649 68.605V69.165L44.8299 70.63L44.8274 70.07L47.3649 68.605Z" fill="#E74362"/>
<path d="M55.3375 62.97V63.5275L44.8274 69.5975L44.825 69.04L55.3375 62.97Z" fill="#E74362"/>
<path d="M55.335 61.9399V62.4974L44.8225 68.5674V68.0099L55.335 61.9399Z" fill="#E74362"/>
<path d="M55.3301 60.9099L55.3326 61.4674L44.8201 67.5349V66.9799L55.3301 60.9099Z" fill="#E74362"/>
<path d="M51.6 60.5674L51.6025 61.1249L44.8125 65.0449V64.4874L51.6 60.5674Z" fill="#E74362"/>
<path d="M55.3201 57.385L55.3226 57.945L44.8101 64.015V63.455L55.3201 57.385Z" fill="#E74362"/>
<path d="M55.3174 56.355L55.3199 56.9125L44.8074 62.9825L44.8049 62.425L55.3174 56.355Z" fill="#E74362"/>
<path d="M55.3125 54.2925L55.315 54.8525L44.8026 60.9225L44.8 60.3625L55.3125 54.2925Z" fill="#E74362"/>
<path d="M55.315 55.325L55.3175 55.8825L44.805 61.9524L44.8025 61.395L55.315 55.325Z" fill="#E74362"/>
<path d="M53.7376 50.6875V51.245L44.7901 56.4125L44.7876 55.855L53.7376 50.6875Z" fill="#E74362"/>
<path d="M54.3725 52.385L54.375 52.945L44.795 58.475L44.7925 57.915L54.3725 52.385Z" fill="#E74362"/>
<path d="M51.095 53.2451V53.8026L44.7925 57.4426L44.79 56.8851L51.095 53.2451Z" fill="#E74362"/>
<path d="M55.2974 48.7549V49.3124L44.7849 55.3824V54.8249L55.2974 48.7549Z" fill="#E74362"/>
<path d="M55.3699 74.7925L55.3724 75.3475L44.8599 81.4175L44.8574 80.86L55.3699 74.7925Z" fill="#E74362"/>
<path d="M49.8024 79.0376V79.5951L44.8624 82.4476L44.8599 81.8901L49.8024 79.0376Z" fill="#E74362"/>
<path d="M52.7225 75.2876L52.725 75.8451L44.8575 80.3876L44.855 79.8301L52.7225 75.2876Z" fill="#E74362"/>
<path d="M55.365 72.73L55.3675 73.2875L44.855 79.3575L44.8525 78.7975L55.365 72.73Z" fill="#E74362"/>
<g opacity="0.1">
<path d="M51.635 72.7798V73.3373L44.8475 77.2548L44.845 76.6998L51.635 72.7798Z" fill="white"/>
<path d="M55.355 69.5974L55.3575 70.1574L44.845 76.2249L44.8425 75.6674L55.355 69.5974Z" fill="white"/>
<path d="M49.7823 71.7825V72.34L44.8423 75.1925L44.8398 74.6375L49.7823 71.7825Z" fill="white"/>
<path d="M55.3499 67.5374L55.3524 68.0949L44.8399 74.1624L44.8374 73.6049L55.3499 67.5374Z" fill="white"/>
<path d="M55.3475 66.5049L55.35 67.0624L44.835 73.1324V72.5749L55.3475 66.5049Z" fill="white"/>
</g>
<g opacity="0.4">
<path d="M47.3651 68.605V69.165L44.8301 70.63L44.8276 70.07L47.3651 68.605Z" fill="white"/>
<path d="M55.3375 62.97V63.5275L44.8274 69.5975L44.825 69.04L55.3375 62.97Z" fill="white"/>
<path d="M55.335 61.9399V62.4974L44.8225 68.5674V68.0099L55.335 61.9399Z" fill="white"/>
<path d="M55.3301 60.9099L55.3326 61.4674L44.8201 67.5349V66.9799L55.3301 60.9099Z" fill="white"/>
</g>
<g opacity="0.1">
<path d="M51.6 60.5674L51.6025 61.1249L44.8125 65.0449V64.4874L51.6 60.5674Z" fill="white"/>
<path d="M55.3201 57.385L55.3226 57.945L44.8101 64.015V63.455L55.3201 57.385Z" fill="white"/>
<path d="M55.3174 56.355L55.3199 56.9125L44.8074 62.9825L44.8049 62.425L55.3174 56.355Z" fill="white"/>
<path d="M55.3125 54.2925L55.315 54.8525L44.8026 60.9225L44.8 60.3625L55.3125 54.2925Z" fill="white"/>
<path d="M55.315 55.325L55.3175 55.8825L44.805 61.9524L44.8025 61.395L55.315 55.325Z" fill="white"/>
</g>
<g opacity="0.4">
<path d="M53.7374 50.6875V51.245L44.7899 56.4125L44.7874 55.855L53.7374 50.6875Z" fill="white"/>
<path d="M54.3725 52.3848L54.375 52.9448L44.795 58.4748L44.7925 57.9148L54.3725 52.3848Z" fill="white"/>
<path d="M51.0948 53.2449V53.8024L44.7923 57.4424L44.7898 56.8849L51.0948 53.2449Z" fill="white"/>
<path d="M55.2974 48.7549V49.3124L44.7849 55.3824V54.8249L55.2974 48.7549Z" fill="white"/>
</g>
<g opacity="0.4">
<path d="M55.3699 74.7925L55.3724 75.3475L44.8599 81.4175L44.8574 80.86L55.3699 74.7925Z" fill="white"/>
<path d="M49.8026 79.0376V79.5951L44.8626 82.4476L44.8601 81.8901L49.8026 79.0376Z" fill="white"/>
<path d="M52.7225 75.2876L52.725 75.8451L44.8575 80.3876L44.855 79.8301L52.7225 75.2876Z" fill="white"/>
<path d="M55.365 72.73L55.3675 73.2875L44.855 79.3575L44.8525 78.7975L55.365 72.73Z" fill="white"/>
</g>
<path d="M39.27 58.585L39.2725 59.66L32.1475 63.765L32.145 62.69L39.27 58.585Z" fill="#E74362"/>
<path d="M38.2826 61.2051L38.2851 61.7426L32.1526 65.2751V64.7376L38.2826 61.2051Z" fill="white"/>
<path d="M41.1024 80.7649L41.1049 81.8399L38.4749 83.3574L38.4724 82.2849L41.1024 80.7649Z" fill="#E74362"/>
<path d="M36.005 72.1599L36.0075 73.2349L32.1825 75.4349L32.1775 74.3624L36.005 72.1599Z" fill="#E74362"/>
<path d="M41.0251 69.2625L41.0276 70.3375L36.7601 72.8L36.7576 71.7275L41.0251 69.2625Z" fill="#E74362"/>
<path d="M38.9249 67.1699L38.9274 67.7049L32.1699 71.5974V71.0624L38.9249 67.1699Z" fill="white"/>
<path d="M38.3376 80.2151V80.7501L32.2076 84.2826L32.2051 83.7476L38.3376 80.2151Z" fill="white"/>
<path d="M39.3274 78.6499V79.1874L32.2024 83.2924V82.7549L39.3274 78.6499Z" fill="white"/>
<path d="M41.0449 76.6626L41.0475 77.2001L32.2 82.3001V81.7626L41.0449 76.6626Z" fill="white"/>
<path d="M39.3201 75.6101L39.3226 76.6851L32.1976 80.7901L32.1951 79.7176L39.3201 75.6101Z" fill="#E74362"/>
<path d="M39.9525 72.925L39.955 73.4625L32.1875 77.9375V77.4025L39.9525 72.925Z" fill="white"/>
<path d="M38.5076 72.7676L38.5101 73.3026L32.1851 76.9476V76.4101L38.5076 72.7676Z" fill="white"/>
<path d="M39.5899 67.7776L39.5924 68.3176L32.1724 72.5926V72.0526L39.5899 67.7776Z" fill="white"/>
<path d="M40.43 65.3076V65.8451L32.1675 70.6076V70.0701L40.43 65.3076Z" fill="white"/>
<path d="M39.2849 63.9175L39.2874 64.99L32.1624 69.095L32.1599 68.0225L39.2849 63.9175Z" fill="#E74362"/>
<path d="M36.2375 63.3799V63.9174L32.155 66.2649V65.7299L36.2375 63.3799Z" fill="white"/>
<path d="M40.0225 84.4326L40.025 84.9701L32.2225 89.4676L32.22 88.9301L40.0225 84.4326Z" fill="white"/>
<path d="M38.81 84.1375V84.6775L32.2175 88.475V87.9375L38.81 84.1375Z" fill="white"/>
<path d="M37.4625 82.8674L37.465 83.9399L32.215 86.9649L32.21 85.8924L37.4625 82.8674Z" fill="#E74362"/>
<path d="M73.595 98.3624C73.829 98.5867 74.1068 98.7601 74.4109 98.872C74.7151 98.9838 75.0391 99.0316 75.3625 99.0124C76.0102 98.97 76.6448 98.8098 77.235 98.5399C77.8325 98.2899 78.5825 97.6074 79.235 97.6199C79.8679 97.6142 80.4999 97.5708 81.1275 97.4899C81.1502 96.6276 81.0594 95.7661 80.8575 94.9274L77.8375 94.8474C77.0225 95.9649 75.4375 96.8924 74.2375 97.2424C74.0522 97.2936 73.8843 97.3945 73.7521 97.5342C73.6199 97.6738 73.5285 97.847 73.4875 98.0349C73.4888 98.0415 73.4888 98.0483 73.4875 98.0549C73.5101 98.1616 73.5463 98.2649 73.595 98.3624Z" fill="#37474F"/>
<path d="M79.2301 97.62C78.5826 97.6075 77.8326 98.295 77.2301 98.54C76.6398 98.8099 76.0052 98.97 75.3576 99.0125C75.0341 99.0317 74.7101 98.9839 74.4059 98.8721C74.1018 98.7602 73.824 98.5867 73.5901 98.3625C73.5421 98.2649 73.5069 98.1615 73.4851 98.055C73.4863 98.0484 73.4863 98.0416 73.4851 98.035C73.4578 98.1678 73.4578 98.3047 73.4851 98.4375C73.5069 98.544 73.5421 98.6474 73.5901 98.745C73.824 98.9692 74.1018 99.1427 74.4059 99.2546C74.7101 99.3664 75.0341 99.4142 75.3576 99.395C76.0051 99.3534 76.6397 99.1942 77.2301 98.925C77.8276 98.675 78.5776 97.99 79.2301 98.0025C79.8526 98.0078 80.4748 97.9719 81.0926 97.895C81.1076 97.76 81.1151 97.625 81.1226 97.49C80.4949 97.5709 79.8629 97.6143 79.2301 97.62Z" fill="#263238"/>
<path d="M88.5325 100.045C88.5351 100.375 88.5024 100.704 88.435 101.027C88.3304 101.602 88.0091 102.115 87.5375 102.46C87.1024 102.708 86.6106 102.839 86.11 102.84C85.6703 102.886 85.2259 102.84 84.805 102.705C84.4854 102.591 84.2151 102.37 84.04 102.08C84.0388 102.086 84.0388 102.092 84.04 102.097C84.1016 102.31 84.2138 102.504 84.3671 102.663C84.5204 102.823 84.7101 102.943 84.92 103.012C85.3407 103.149 85.7853 103.195 86.225 103.147C86.7258 103.148 87.218 103.017 87.6525 102.767C88.1253 102.423 88.4475 101.91 88.5525 101.335C88.6174 101.011 88.6501 100.682 88.65 100.352C88.6512 100.127 88.6984 99.9039 88.7886 99.6971C88.8789 99.4904 89.0103 99.3042 89.175 99.1499C89.256 99.076 89.3328 98.9975 89.405 98.9149C89.4558 98.8562 89.4944 98.7879 89.5184 98.7141C89.5424 98.6402 89.5515 98.5623 89.545 98.4849C89.545 98.4249 89.545 98.3649 89.5275 98.3049C89.4075 98.4449 89.1275 98.7774 89.0575 98.8424C88.8934 98.9971 88.7624 99.1834 88.6721 99.39C88.5819 99.5967 88.5344 99.8195 88.5325 100.045Z" fill="#263238"/>
<path d="M86.0551 96.6199C86.1643 97.2967 86.0776 97.9907 85.8051 98.6199C85.5329 99.2429 85.178 99.8265 84.7501 100.355C84.5412 100.605 84.3562 100.875 84.1976 101.16C84.043 101.443 83.9884 101.77 84.0426 102.087C84.2177 102.378 84.488 102.599 84.8076 102.712C85.2285 102.847 85.6729 102.893 86.1126 102.847C86.6132 102.846 87.105 102.715 87.5401 102.467C88.0118 102.123 88.333 101.61 88.4376 101.035C88.505 100.712 88.5377 100.382 88.5351 100.052C88.5373 99.8267 88.5852 99.6038 88.6759 99.3972C88.7665 99.1905 88.8981 99.0044 89.0626 98.8499C89.1326 98.7849 89.4126 98.4524 89.5326 98.3124C89.4666 97.821 89.3016 97.3481 89.0476 96.9224L86.0551 96.6199Z" fill="#37474F"/>
<path d="M77.7076 68.375C77.7076 68.375 76.9426 78.405 77.0101 81.195C77.0776 83.985 77.3576 95.0125 77.3576 95.0125C78.9201 95.925 81.1776 95.245 81.1776 95.245C81.3601 86.4425 82.1901 84.55 81.6276 81.3275C82.0251 78.935 82.5751 73.3625 82.5751 73.3625C83.3526 80.065 83.9176 83.52 83.9176 83.52L85.7776 96.9375C87.3051 97.735 89.2326 96.9375 89.2326 96.9375C89.2326 89.29 89.3976 86.055 88.6026 81.005C88.5601 73.2325 88.1651 68.505 88.1651 68.505L77.7076 68.375Z" fill="#455A64"/>
<path opacity="0.2" d="M79.5549 70.9648C80.0874 72.2723 81.7599 72.2723 81.7599 72.2723L82.0574 73.7573L81.9474 79.0398C82.2674 76.4698 82.5749 73.3624 82.5749 73.3624L82.3674 71.7723C81.3654 71.8307 80.3734 71.5459 79.5549 70.9648Z" fill="black"/>
<path d="M72.6525 57.1749L71.455 58.2499L68.14 54.6949C67.8189 54.35 67.5925 53.928 67.4825 53.4699L67.295 52.6824C67.2462 52.476 67.167 52.278 67.06 52.0949C66.8975 51.8149 66.725 51.5349 66.5775 51.2599C66.539 51.1689 66.4724 51.0927 66.3875 51.0424C66.3347 51.022 66.2769 51.0183 66.222 51.0317C66.167 51.0451 66.1175 51.075 66.08 51.1174C66.0061 51.2063 65.9678 51.3194 65.9725 51.4349C65.9797 51.5486 66.0007 51.6611 66.035 51.7699C66.08 51.9399 66.125 52.1099 66.1725 52.2699C66.1944 52.3394 66.2054 52.4119 66.205 52.4849C66.2051 52.5217 66.1963 52.558 66.1793 52.5906C66.1623 52.6233 66.1377 52.6513 66.1075 52.6724C65.965 52.7599 63.9225 50.8599 63.58 49.9924C63.4875 49.7574 62.755 49.8949 63.1975 50.8424C63.12 50.908 63.0587 50.9907 63.0183 51.0839C62.978 51.1771 62.9597 51.2784 62.965 51.3799C62.95 51.6299 62.9375 51.8974 62.9225 52.1549C62.8997 52.4051 62.9098 52.6572 62.9525 52.9049C63.0555 53.2722 63.2469 53.6086 63.51 53.8849C63.9715 54.3994 64.5409 54.8057 65.1775 55.0749C65.657 55.2896 66.0654 55.6364 66.355 56.0749L69.525 60.8549C69.7008 61.1177 69.9295 61.341 70.1966 61.5105C70.4636 61.6799 70.7631 61.7917 71.0758 61.8387C71.3885 61.8858 71.7076 61.8671 72.0127 61.7838C72.3177 61.7004 72.6021 61.5544 72.8475 61.3549L74.5225 59.9999L72.6525 57.1749Z" fill="#FFA8A7"/>
<path d="M78.3949 52.7174C76.7674 52.6249 76.3399 53.4674 75.3124 54.4324C74.2849 55.3974 72.3499 57.2499 72.3499 57.2499C72.4243 57.896 72.6603 58.513 73.0361 59.0439C73.4118 59.5747 73.9152 60.0024 74.4999 60.2874L78.0824 57.6449L78.3949 52.7174Z" fill="#455A64"/>
<path d="M88.4349 69.1348C88.4349 69.1348 82.3699 71.3523 77.4349 68.5873C77.4349 68.5873 77.7349 65.0573 77.8224 62.9998C77.9099 60.9423 77.2024 56.9698 77.0974 55.9048C76.9924 54.8398 77.1324 52.9973 78.3874 52.7173C80.7149 52.2173 85.0899 52.7173 85.0899 52.7173L87.7024 55.6048C88.8099 61.2498 88.6224 67.1648 88.4349 69.1348Z" fill="#E74362"/>
<path opacity="0.3" d="M88.4349 69.1348C88.4349 69.1348 82.3699 71.3523 77.4349 68.5873C77.4349 68.5873 77.7349 65.0573 77.8224 62.9998C77.9099 60.9423 77.2024 56.9698 77.0974 55.9048C76.9924 54.8398 77.1324 52.9973 78.3874 52.7173C80.7149 52.2173 85.0899 52.7173 85.0899 52.7173L87.7024 55.6048C88.8099 61.2498 88.6224 67.1648 88.4349 69.1348Z" fill="white"/>
<path d="M73.06 67.8224C73.06 67.8224 73.06 67.8224 73.06 67.8099V67.7974C73.06 67.7974 73.06 67.7974 73.06 67.7849V67.7724C73.06 67.7724 73.06 67.7724 73.06 67.7599L70.6475 63.1449V63.1324V63.1174V63.1024V63.0874V63.0724V63.0574V63.0424V63.0299C70.6371 63.0178 70.6253 63.0069 70.6125 62.9974H70.6H70.5875H70.575H70.56H70.545H70.5275L67.7125 61.3699H67.695H67.68H67.665H67.65H67.635H67.62H67.605H67.59H67.575H67.5225C67.5146 61.3694 67.5066 61.3707 67.4992 61.3737C67.4919 61.3767 67.4853 61.3814 67.48 61.3874L67.1375 61.7699C67.11 61.7924 67.1075 61.8374 67.1375 61.9124L69.55 66.5274C69.6848 66.742 69.8691 66.9212 70.0875 67.0499L72.9025 68.6749C73.0475 68.7574 73.135 68.7624 73.1525 68.7024C73.1525 68.7024 73.1525 68.7224 73.1525 68.7274L73.495 68.3449C73.4963 68.3391 73.4963 68.3331 73.495 68.3274C73.495 68.3274 73.495 68.3274 73.495 68.3124L73.06 67.8224ZM66.75 61.2874C66.75 61.2874 66.75 61.2874 66.77 61.2874H66.75ZM72.7225 68.2074C72.7195 68.1758 72.7101 68.1452 72.695 68.1174C72.7078 68.1437 72.7179 68.1714 72.725 68.1999L72.7225 68.2074Z" fill="#455A64"/>
<path opacity="0.15" d="M73.06 67.8225C73.06 67.8225 73.06 67.8225 73.06 67.81V67.7975C73.06 67.7975 73.06 67.7975 73.06 67.785V67.7725C73.06 67.7725 73.06 67.7725 73.06 67.76L70.6475 63.145L70.2725 63.5L72.6875 68.1175C72.7003 68.1439 72.7103 68.1716 72.7175 68.2C72.7192 68.2088 72.719 68.2178 72.7169 68.2264C72.7147 68.2351 72.7106 68.2431 72.705 68.25L73.0475 67.8675C73.0488 67.8618 73.0488 67.8558 73.0475 67.85C73.0475 67.85 73.0475 67.85 73.0475 67.835L73.06 67.8225Z" fill="white"/>
<path opacity="0.2" d="M70.6074 63.1049V63.0899V63.0749V63.0599V63.0449V63.0299V63.0149V63.0024C70.597 62.9903 70.5852 62.9794 70.5724 62.9699H70.5599H70.5474H70.5349H70.5199H70.5049H70.4874L67.6724 61.3424H67.6549H67.6399H67.6249H67.6099H67.5949H67.5799H67.5649H67.5499H67.5349H67.4824C67.4745 61.3419 67.4665 61.3432 67.4591 61.3462C67.4518 61.3493 67.4452 61.3539 67.4399 61.3599L67.0974 61.7424C67.1124 61.7249 67.1399 61.7224 67.1799 61.7299C67.2346 61.7447 67.2868 61.7674 67.3349 61.7974L70.1499 63.4224C70.2051 63.4553 70.2585 63.4912 70.3099 63.5299C70.3624 63.5724 70.4149 63.6174 70.4649 63.6649C70.511 63.7107 70.5544 63.7591 70.5949 63.8099C70.6283 63.8525 70.6584 63.8976 70.6849 63.9449L71.0274 63.5624L70.6074 63.1049Z" fill="white"/>
<path d="M70.7724 67.8C69.8199 67.2025 69.1099 66.0375 69.2524 64.9225C69.2524 64.9225 71.0324 65.855 71.8299 65.3575L71.4199 64.575C72.5454 64.5692 73.6382 64.9535 74.5124 65.6625C76.2087 65.3732 77.8668 64.8926 79.4549 64.23C79.9176 64.0279 80.3947 63.8608 80.8824 63.73C81.3753 63.5949 81.8973 63.6088 82.3824 63.77C82.6221 63.8538 82.8366 63.997 83.0058 64.1864C83.175 64.3757 83.2934 64.6049 83.3499 64.8525C83.3803 65.114 83.3458 65.3791 83.2494 65.6241C83.1531 65.8692 82.9978 66.0867 82.7974 66.2575C82.3922 66.5973 81.9229 66.8523 81.4174 67.0075C79.3674 67.7275 71.7224 68.3975 70.7724 67.8Z" fill="#FFA8A7"/>
<path d="M76.4775 48.1074C75.9793 47.7482 75.633 47.216 75.5063 46.615C75.3796 46.0139 75.4817 45.3872 75.7925 44.8574C75.5127 44.7341 75.2834 44.5189 75.1425 44.2475C75.0828 44.116 75.0642 43.9696 75.0891 43.8274C75.1139 43.6852 75.1811 43.5538 75.2819 43.4503C75.3826 43.3469 75.5122 43.2763 75.6537 43.2477C75.7952 43.219 75.942 43.2338 76.075 43.29C75.9996 43.0777 75.998 42.8461 76.0706 42.6329C76.1432 42.4196 76.2857 42.2371 76.475 42.115C76.6672 42.0096 76.89 41.9739 77.1055 42.014C77.321 42.0541 77.5161 42.1675 77.6575 42.3349C77.652 42.1964 77.6918 42.0597 77.7707 41.9457C77.8496 41.8316 77.9634 41.7462 78.095 41.7024C78.3666 41.6302 78.6542 41.6478 78.915 41.7524C79.165 41.8424 79.415 41.9749 79.6925 42.0574C80.1489 42.1715 80.6171 42.232 81.0875 42.2374C81.5596 42.2415 82.023 42.3645 82.435 42.595C82.83 42.845 83.185 43.4475 82.965 43.9625C83.0322 43.8763 83.1168 43.8053 83.2133 43.754C83.3098 43.7028 83.416 43.6724 83.525 43.665C83.6332 43.6627 83.7406 43.6838 83.8399 43.727C83.9391 43.7701 84.0279 43.8343 84.1 43.915C83.8075 44.0975 83.5225 44.2924 83.23 44.4749C83.3977 44.4279 83.5763 44.4374 83.7381 44.502C83.8999 44.5666 84.0359 44.6828 84.125 44.8325C84.2629 45.1271 84.3174 45.454 84.2825 45.7774C84.2444 47.0094 84.0254 48.2292 83.6325 49.3974C83.4325 50.0024 83.1325 50.6474 82.57 50.9199L76.4775 48.1074Z" fill="#37474F"/>
<path d="M79.5924 51.0149L79.7199 52.4574C79.726 52.5697 79.6981 52.6812 79.6399 52.7774C79.5599 52.9279 79.5289 53.0997 79.5513 53.2687C79.5737 53.4377 79.6484 53.5955 79.7649 53.7199C79.9506 53.8605 80.177 53.9369 80.4099 53.9374C80.8499 53.9618 81.2901 53.8924 81.7013 53.7338C82.1125 53.5752 82.4852 53.331 82.7949 53.0174C82.8593 52.9517 82.9095 52.8733 82.9422 52.7873C82.9749 52.7012 82.9894 52.6094 82.9849 52.5174L82.8899 48.8574L79.5924 51.0149Z" fill="#FFA8A7"/>
<path opacity="0.3" d="M82.5999 49.0525L79.5999 51.015L79.7124 52.295C80.4124 52.13 81.1174 51.93 81.6699 51.48C82.0175 51.1871 82.2852 50.8107 82.4479 50.3862C82.6105 49.9616 82.6628 49.5027 82.5999 49.0525Z" fill="black"/>
<path d="M76.3125 45.1349C76.0922 46.8066 76.2017 48.5054 76.635 50.1349C76.7184 50.4944 76.8522 50.8404 77.0325 51.1624C77.215 51.4873 77.5011 51.7416 77.845 51.8849C78.2846 52.0037 78.7479 52.0037 79.1875 51.8849C80.005 51.7424 80.8425 51.5899 81.5525 51.1599C82.2625 50.7299 82.8225 49.9549 82.755 49.1274C82.9565 49.2525 83.1862 49.3249 83.423 49.338C83.6597 49.3511 83.896 49.3045 84.11 49.2024C84.3211 49.0893 84.5005 48.9249 84.6315 48.7244C84.7625 48.5239 84.8411 48.2937 84.86 48.0549C84.8925 47.5899 84.625 47.0749 84.17 46.9849C84.0296 46.965 83.8865 46.9752 83.7503 47.0149C83.6141 47.0546 83.4879 47.1227 83.38 47.2149C83.166 47.4015 82.9799 47.6178 82.8275 47.8574C82.7575 47.9739 82.6639 48.0744 82.5525 48.1524C82.4972 48.191 82.4313 48.2117 82.3638 48.2117C82.2963 48.2117 82.2304 48.191 82.175 48.1524C82.1278 48.0958 82.0937 48.0295 82.0751 47.9582C82.0565 47.8869 82.0539 47.8123 82.0675 47.7399L82.115 46.6924C82.118 46.6119 82.0977 46.5322 82.0564 46.463C82.0152 46.3938 81.9548 46.3381 81.8825 46.3024C81.6663 46.1844 81.4996 45.9928 81.4125 45.7624C81.3372 45.5602 81.2925 45.3479 81.28 45.1324C81.2787 45.0914 81.2673 45.0513 81.2468 45.0157C81.2263 44.9801 81.1974 44.95 81.1625 44.9283C81.1277 44.9065 81.088 44.8937 81.047 44.8909C81.006 44.8882 80.965 44.8956 80.9275 44.9124C79.448 45.4558 77.8375 45.5335 76.3125 45.1349Z" fill="#FFA8A7"/>
<path d="M78.615 47.675L77.675 49.26L78.7975 49.4725L78.615 47.675Z" fill="#F28F8F"/>
<path d="M79.8798 50.0173L79.0273 50.4323C79.1001 50.5299 79.2028 50.6008 79.3198 50.6343C79.4368 50.6677 79.5616 50.6617 79.6749 50.6173C79.7731 50.5564 79.8472 50.4634 79.8846 50.354C79.922 50.2446 79.9203 50.1256 79.8798 50.0173Z" fill="#F28F8F"/>
<path opacity="0.3" d="M79.8798 50.0173L79.0273 50.4323C79.1001 50.5299 79.2028 50.6008 79.3198 50.6343C79.4368 50.6677 79.5616 50.6617 79.6749 50.6173C79.7731 50.5564 79.8472 50.4634 79.8846 50.354C79.922 50.2446 79.9203 50.1256 79.8798 50.0173Z" fill="black"/>
<path d="M79.3774 50.645C79.4771 50.6664 79.5809 50.6568 79.6749 50.6175C79.7528 50.573 79.8158 50.5067 79.8563 50.4267C79.8967 50.3467 79.9128 50.2565 79.9024 50.1675C79.7798 50.1666 79.6605 50.2081 79.5649 50.285C79.4582 50.3762 79.391 50.5053 79.3774 50.645Z" fill="#F28F8F"/>
<path d="M80.2499 47.7499C80.2544 47.7921 80.2505 47.8347 80.2385 47.8754C80.2264 47.9161 80.2065 47.9541 80.1798 47.987C80.1531 48.02 80.1201 48.0474 80.0828 48.0676C80.0455 48.0878 80.0046 48.1005 79.9624 48.1049C79.877 48.1126 79.792 48.0865 79.7257 48.0323C79.6593 47.9781 79.6168 47.9 79.6074 47.8149C79.5987 47.7297 79.6243 47.6445 79.6785 47.5782C79.7326 47.5118 79.8109 47.4697 79.8961 47.4611C79.9813 47.4525 80.0664 47.4781 80.1328 47.5322C80.1991 47.5864 80.2412 47.6647 80.2499 47.7499Z" fill="#263238"/>
<path d="M77.5375 47.905C77.5442 47.9685 77.5318 48.0326 77.502 48.0891C77.4721 48.1455 77.4262 48.1919 77.3701 48.2222C77.3139 48.2526 77.2499 48.2655 77.1864 48.2595C77.1228 48.2535 77.0624 48.2287 77.0129 48.1884C76.9635 48.148 76.9271 48.0939 76.9084 48.0328C76.8897 47.9718 76.8896 47.9065 76.908 47.8454C76.9264 47.7842 76.9626 47.7299 77.0119 47.6894C77.0612 47.6488 77.1215 47.6238 77.185 47.6175C77.2271 47.613 77.2696 47.6169 77.3102 47.629C77.3507 47.641 77.3885 47.661 77.4213 47.6877C77.4541 47.7145 77.4812 47.7474 77.5012 47.7847C77.5211 47.822 77.5335 47.8629 77.5375 47.905Z" fill="#263238"/>
<path d="M77.0974 46.6599L76.4348 47.2224C76.3949 47.1375 76.3819 47.0424 76.3976 46.9499C76.4132 46.8574 76.4567 46.7719 76.5223 46.7049C76.6045 46.6446 76.7019 46.6085 76.8034 46.6005C76.905 46.5926 77.0068 46.6132 77.0974 46.6599Z" fill="#263238"/>
<path d="M79.8425 46.3448L80.5925 46.7648C80.6166 46.6721 80.6112 46.5742 80.5771 46.4846C80.5431 46.395 80.4821 46.3182 80.4025 46.2648C80.3109 46.2251 80.2101 46.2115 80.1112 46.2256C80.0124 46.2398 79.9193 46.281 79.8425 46.3448Z" fill="#263238"/>
<path d="M81.9625 60.46L80.51 64.21L82.1125 66.71C84.4475 65.65 83.9675 65.96 85.5825 62.05L81.9625 60.46Z" fill="#FFA8A7"/>
<path d="M85.0974 52.7175C83.3474 54.7875 82.6899 58.345 81.7849 60.6325C82.7974 62.5475 85.6174 62.3625 85.6174 62.3625C88.1974 57 89.2899 52.935 85.0974 52.7175Z" fill="#455A64"/>
</svg>
